{
.appVersion = "905";
DisplayStrings = (
"A Aapb"
);
copyright = "Copyright (c) 2011-14 by vernon adams. All rights reserved.";
customParameters = (
{
name = glyphOrder;
value = (
A,
Aacute,
Abreve,
Acaron,
Acircumflex,
Adblgrave,
Adieresis,
Adotaccent,
Agrave,
Ainvertedbreve,
Amacron,
Aogonek,
Aring,
Aringacute,
Atilde,
AE,
AEacute,
AEmacron,
B,
Bdotaccent,
C,
Cacute,
Ccaron,
Ccedilla,
Ccircumflex,
Cdotaccent,
D,
DZ,
DZcaron,
Eth,
Dcaron,
Dcroat,
Ddotaccent,
Dz,
Dzcaron,
E,
Eacute,
Ebreve,
Ecaron,
uni0228,
Ecircumflex,
Edblgrave,
Edieresis,
Edotaccent,
Egrave,
Einvertedbreve,
Emacron,
Eogonek,
Etilde,
F,
Fdotaccent,
G,
Gacute,
Gbreve,
Gcaron,
Gcircumflex,
Gcommaaccent,
Gdotaccent,
H,
Hbar,
uni021E,
Hcircumflex,
I,
IJ,
Iacute,
Ibreve,
Icaron,
Icircumflex,
Idblgrave,
Idieresis,
Idotaccent,
Igrave,
Iinvertedbreve,
Imacron,
Iogonek,
Itilde,
J,
Jcircumflex,
K,
Kcaron,
Kcommaaccent,
L,
LJ,
Lacute,
Lcaron,
Lcommaaccent,
Ldot,
Lj,
Lslash,
M,
Mdotaccent,
N,
NJ,
Nacute,
Ncaron,
Ncommaaccent,
uni01F8,
Eng,
Nj,
Ntilde,
O,
Oacute,
Obreve,
Ocaron,
Ocircumflex,
Odblgrave,
Odieresis,
Ograve,
Ohungarumlaut,
Oinvertedbreve,
Omacron,
Oogonek,
Oslash,
Oslashacute,
Otilde,
OE,
P,
Pdotaccent,
Thorn,
Q,
R,
Racute,
Rcaron,
Rcommaaccent,
Rdblgrave,
Rinvertedbreve,
S,
Sacute,
Scaron,
Scedilla,
Scircumflex,
Scommaaccent,
Sdotaccent,
T,
Tbar,
Tcaron,
Tcedilla,
uni021A,
Tdotaccent,
U,
Uacute,
Ubreve,
Ucaron,
Ucircumflex,
Udblgrave,
Udieresis,
Ugrave,
Uhungarumlaut,
Uinvertedbreve,
Umacron,
Uogonek,
Uring,
Utilde,
V,
W,
Wacute,
Wcircumflex,
Wdieresis,
Wgrave,
X,
Y,
Yacute,
Ycircumflex,
Ydieresis,
Ygrave,
Ymacron,
Ytilde,
Z,
Zacute,
Zcaron,
Zdotaccent,
a,
aacute,
abreve,
acaron,
acircumflex,
adblgrave,
adieresis,
adotaccent,
agrave,
ainvertedbreve,
amacron,
aogonek,
aring,
aringacute,
atilde,
ae,
aeacute,
aemacron,
b,
bdotaccent,
c,
cacute,
ccaron,
ccedilla,
ccircumflex,
cdotaccent,
d,
eth,
dcaron,
dcroat,
ddotaccent,
dz,
dzcaron,
e,
eacute,
ebreve,
ecaron,
uni0229,
ecircumflex,
edblgrave,

glyphs = (
{
glyphname = A;
lastChange = "2016-06-28 15:21:37 +0000";
layers = (
{
anchors = (
{
name = ogonek;
position = "{534, -30}";
},
{
name = top;
position = "{542, 658}";
}
);
background = {
paths = (
{
closed = 1;
nodes = (
"65 89 OFFCURVE",
"114 -43 OFFCURVE",
"277 -43 CURVE SMOOTH",
"364 -43 OFFCURVE",
"431 -5 OFFCURVE",
"472 76 CURVE",
"472 76 OFFCURVE",
"470 42 OFFCURVE",
"470 34 CURVE SMOOTH",
"470 -24 OFFCURVE",
"508 -42 OFFCURVE",
"549 -42 CURVE SMOOTH",
"594 -42 OFFCURVE",
"638 0 OFFCURVE",
"662 24 CURVE SMOOTH",
"664 26 OFFCURVE",
"665 29 OFFCURVE",
"665 33 CURVE SMOOTH",
"665 44 OFFCURVE",
"655 58 OFFCURVE",
"647 58 CURVE SMOOTH",
"645 58 OFFCURVE",
"643 58 OFFCURVE",
"641 56 CURVE SMOOTH",
"619 34 OFFCURVE",
"595 3 OFFCURVE",
"562 3 CURVE SMOOTH",
"534 3 OFFCURVE",
"525 16 OFFCURVE",
"525 41 CURVE SMOOTH",
"525 68 OFFCURVE",
"536 110 OFFCURVE",
"549 168 CURVE SMOOTH",
"618 483 LINE SMOOTH",
"618 485 OFFCURVE",
"619 486 OFFCURVE",
"619 487 CURVE SMOOTH",
"619 502 OFFCURVE",
"600 512 OFFCURVE",
"585 512 CURVE SMOOTH",
"575 512 OFFCURVE",
"567 507 OFFCURVE",
"565 499 CURVE SMOOTH",
"501 217 LINE SMOOTH",
"476 107 OFFCURVE",
"401 6 OFFCURVE",
"290 6 CURVE SMOOTH",
"173 6 OFFCURVE",
"131 101 OFFCURVE",
"131 201 CURVE SMOOTH",
"131 455 OFFCURVE",
"337 615 OFFCURVE",
"522 615 CURVE SMOOTH",
"628 615 OFFCURVE",
"703 545 OFFCURVE",
"708 541 CURVE SMOOTH",
"715 535 OFFCURVE",
"723 533 OFFCURVE",
"729 533 CURVE SMOOTH",
"740 533 OFFCURVE",
"749 541 OFFCURVE",
"749 552 CURVE SMOOTH",
"749 558 OFFCURVE",
"746 565 OFFCURVE",
"739 572 CURVE SMOOTH",
"672 639 OFFCURVE",
"581 666 OFFCURVE",
"519 666 CURVE SMOOTH",
"282 666 OFFCURVE",
"65 465 OFFCURVE",
"65 200 CURVE SMOOTH"
);
},
{
closed = 1;
nodes = (
"-217 10 OFFCURVE",
"-218 1 OFFCURVE",
"-251 1 CURVE SMOOTH",
"-259 1 OFFCURVE",
"-263 7 OFFCURVE",
"-263 41 CURVE SMOOTH",
"-263 109 OFFCURVE",
"-229 243 OFFCURVE",
"-186 469 CURVE",
"-244 477 LINE",
"-310 129 OFFCURVE",
"-385 5 OFFCURVE",
"-521 5 CURVE SMOOTH",
"-616 5 OFFCURVE",
"-677 81 OFFCURVE",
"-677 203 CURVE SMOOTH",
"-677 431 OFFCURVE",
"-500 624 OFFCURVE",
"-292 624 CURVE SMOOTH",
"-207 624 OFFCURVE",
"-135 594 OFFCURVE",
"-89 539 CURVE",
"-43 565 LINE",
"-94 625 OFFCURVE",
"-191 664 OFFCURVE",
"-292 664 CURVE SMOOTH",
"-534 664 OFFCURVE",
"-737 454 OFFCURVE",
"-737 203 CURVE SMOOTH",
"-737 58 OFFCURVE",
"-652 -35 OFFCURVE",
"-521 -35 CURVE SMOOTH",
"-437 -35 OFFCURVE",
"-373 -4 OFFCURVE",
"-322 65 CURVE",
"-323 56 OFFCURVE",
"-323 48 OFFCURVE",
"-323 41 CURVE SMOOTH",
"-323 -12 OFFCURVE",
"-300 -39 OFFCURVE",
"-251 -39 CURVE SMOOTH",
"-177 -39 OFFCURVE",
"-161 -4 OFFCURVE",
"-128 26 CURVE",
"-170 56 LINE"
);
}
);
};
layerId = "DE4BB00D-BABA-4D36-9D9A-44FD0E91C3DF";
paths = (
{
closed = 1;
nodes = (
"65 50 OFFCURVE",
"152 -43 OFFCURVE",
"287 -43 CURVE SMOOTH",
"375 -43 OFFCURVE",
"450 5 OFFCURVE",
"489 108 CURVE",
"481 128 LINE",
"473 78 OFFCURVE",
"470 48 OFFCURVE",
"470 34 CURVE SMOOTH",
"470 -24 OFFCURVE",
"508 -42 OFFCURVE",
"549 -42 CURVE SMOOTH",
"594 -42 OFFCURVE",
"631 -13 OFFCURVE",
"662 24 CURVE SMOOTH",
"677 41 OFFCURVE",
"651 68 OFFCURVE",
"636 51 CURVE SMOOTH",
"613 25 OFFCURVE",
"592 3 OFFCURVE",
"562 3 CURVE SMOOTH",
"534 3 OFFCURVE",
"525 16 OFFCURVE",
"525 41 CURVE SMOOTH",
"525 68 OFFCURVE",
"536 110 OFFCURVE",
"549 168 CURVE SMOOTH",
"618 483 LINE SMOOTH",
"622 502 OFFCURVE",
"612 512 OFFCURVE",
"594 512 CURVE SMOOTH",
"579 512 OFFCURVE",
"567 507 OFFCURVE",
"563 489 CURVE SMOOTH",
"501 217 LINE SMOOTH",
"476 107 OFFCURVE",
"401 6 OFFCURVE",
"290 6 CURVE SMOOTH",
"193 6 OFFCURVE",
"135 72 OFFCURVE",
"135 201 CURVE SMOOTH",
"135 431 OFFCURVE",
"299 615 OFFCURVE",
"502 615 CURVE SMOOTH",
"585 615 OFFCURVE",
"657 592 OFFCURVE",
"708 551 CURVE SMOOTH",
"715 545 OFFCURVE",
"723 543 OFFCURVE",
"729 543 CURVE SMOOTH",
"740 543 OFFCURVE",
"749 551 OFFCURVE",
"749 562 CURVE SMOOTH",
"749 568 OFFCURVE",
"746 576 OFFCURVE",
"739 582 CURVE SMOOTH",
"673 639 OFFCURVE",
"601 666 OFFCURVE",
"499 666 CURVE SMOOTH",
"254 666 OFFCURVE",
"65 451 OFFCURVE",
"65 200 CURVE SMOOTH"
);
}
);
width = 647;
}
);
unicode = 0041;
userData = {
com.typemytype.robofont.layerData = {
background = {
anchors = (
);
components = (
);
contours = (
{
points = (
{
segmentType = move;
smooth = 0;
x = 734;
y = 552;
},
{
smooth = 0;
x = 682;
y = 614;
},
{
smooth = 0;
x = 594;
y = 644;
},
{
segmentType = curve;
smooth = 1;
x = 508;
y = 644;
},
{
smooth = 0;
x = 288;
y = 644;
},
{
smooth = 0;
x = 93;
y = 448;
},
{
segmentType = curve;
smooth = 1;
x = 93;
y = 203;
},
{
smooth = 0;
x = 93;
y = 52;
},
{
smooth = 0;
x = 182;
y = -15;
},
{
segmentType = curve;
smooth = 1;
x = 279;
y = -15;
},
{
smooth = 0;
x = 388;
y = -15;
},
{
smooth = 0;
x = 500;
y = 23;
},
{
segmentType = curve;
smooth = 0;
x = 585;
y = 473;
},
{
smooth = 0;
x = 514;
y = 108;
},
{
smooth = 0;
x = 470;
y = -19;
},
{
segmentType = curve;
smooth = 1;
x = 549;
y = -19;
},
{
smooth = 0;
x = 601;
y = -19;
},
{
smooth = 0;
x = 612;
y = 4;
},
{
segmentType = curve;
smooth = 1;
x = 651;
y = 41;
}
);
}
);
lib = {
};
name = A;
unicodes = (
);
width = 647;
};
};
};
},
{
glyphname = AE;
lastChange = "2016-06-28 15:02:07 +0000";
layers = (
{
anchors = (
{
name = bot;
position = "{905, -83}";
},
{
name = ogonek;
position = "{925, -87}";
},
{
name = top;
position = "{658, 658}";
}
);
layerId = "DE4BB00D-BABA-4D36-9D9A-44FD0E91C3DF";
paths = (
{
closed = 1;
nodes = (
"131 198 CURVE SMOOTH",
"131 432 OFFCURVE",
"309 617 OFFCURVE",
"515 617 CURVE SMOOTH",
"548 617 OFFCURVE",
"582 612 OFFCURVE",
"616 602 CURVE",
"501 214 LINE SMOOTH",
"471 111 OFFCURVE",
"415 3 OFFCURVE",
"290 3 CURVE SMOOTH",
"173 3 OFFCURVE",
"131 98 OFFCURVE"
);
},
{
closed = 1;
nodes = (
"1007 525 CURVE SMOOTH",
"1007 616 OFFCURVE",
"901 662 OFFCURVE",
"790 662 CURVE SMOOTH",
"754 662 OFFCURVE",
"687 647 OFFCURVE",
"653 636 CURVE",
"607 655 OFFCURVE",
"558 665 OFFCURVE",
"507 665 CURVE SMOOTH",
"294 665 OFFCURVE",
"65 498 OFFCURVE",
"65 197 CURVE SMOOTH",
"65 86 OFFCURVE",
"114 -46 OFFCURVE",
"277 -46 CURVE SMOOTH",
"369 -46 OFFCURVE",
"428 -10 OFFCURVE",
"469 45 CURVE",
"469 40 OFFCURVE",
"468 35 OFFCURVE",
"468 30 CURVE SMOOTH",
"468 -67 OFFCURVE",
"555 -116 OFFCURVE",
"660 -116 CURVE SMOOTH",
"789 -116 OFFCURVE",
"941 -52 OFFCURVE",
"1012 57 CURVE SMOOTH",
"1016 63 OFFCURVE",
"1019 70 OFFCURVE",
"1019 76 CURVE SMOOTH",
"1019 90 OFFCURVE",
"1009 98 OFFCURVE",
"999 98 CURVE SMOOTH",
"993 98 OFFCURVE",
"984 95 OFFCURVE",
"978 84 CURVE SMOOTH",
"919 -3 OFFCURVE",
"776 -71 OFFCURVE",
"668 -71 CURVE SMOOTH",
"595 -71 OFFCURVE",
"514 -38 OFFCURVE",
"514 43 CURVE SMOOTH",
"514 57 OFFCURVE",
"517 73 OFFCURVE",
"522 90 CURVE SMOOTH",
"572 250 LINE",
"612 249 OFFCURVE",
"689 245 OFFCURVE",
"750 245 CURVE SMOOTH",
"777 245 OFFCURVE",
"790 254 OFFCURVE",
"790 271 CURVE SMOOTH",
"790 283 OFFCURVE",
"783 296 OFFCURVE",
"771 296 CURVE SMOOTH",
"744 297 OFFCURVE",
"616 296 OFFCURVE",
"585 300 CURVE",
"641 506 LINE SMOOTH",
"660 578 OFFCURVE",
"695 616 OFFCURVE",
"797 616 CURVE SMOOTH",
"854 616 OFFCURVE",
"911 598 OFFCURVE",
"947 562 CURVE",
"928 546 OFFCURVE",
"915 528 OFFCURVE",
"915 505 CURVE SMOOTH",
"915 478 OFFCURVE",
"931 462 OFFCURVE",
"958 462 CURVE SMOOTH",
"978 462 OFFCURVE",
"1007 481 OFFCURVE"
);
}
);
width = 1162;
}
);
unicode = 00C6;
userData = {
com.typemytype.robofont.layerData = {
};
};
},
{
glyphname = B;
lastChange = "2016-06-28 15:02:07 +0000";
layers = (
{
anchors = (
{
name = top;
position = "{342, 658}";
}
);
layerId = "DE4BB00D-BABA-4D36-9D9A-44FD0E91C3DF";
paths = (
{
closed = 1;
nodes = (
"178 -60 CURVE SMOOTH",
"339 -60 OFFCURVE",
"528 55 OFFCURVE",
"528 174 CURVE SMOOTH",
"528 237 OFFCURVE",
"482 285 OFFCURVE",
"387 310 CURVE",
"549 342 OFFCURVE",
"595 414 OFFCURVE",
"595 485 CURVE SMOOTH",
"595 583 OFFCURVE",
"491 676 OFFCURVE",
"311 676 CURVE SMOOTH",
"165 676 OFFCURVE",
"82 623 OFFCURVE",
"23 565 CURVE SMOOTH",
"19 561 OFFCURVE",
"17 556 OFFCURVE",
"17 551 CURVE SMOOTH",
"17 539 OFFCURVE",
"27 526 OFFCURVE",
"42 526 CURVE SMOOTH",
"50 526 OFFCURVE",
"59 529 OFFCURVE",
"69 538 CURVE SMOOTH",
"128 589 OFFCURVE",
"195 627 OFFCURVE",
"314 627 CURVE SMOOTH",
"454 627 OFFCURVE",
"529 561 OFFCURVE",
"536 492 CURVE SMOOTH",
"536 483 LINE SMOOTH",
"536 412 OFFCURVE",
"467 341 OFFCURVE",
"314 341 CURVE SMOOTH",
"308 341 LINE SMOOTH",
"278 341 LINE SMOOTH",
"275 341 LINE SMOOTH",
"257 341 OFFCURVE",
"250 331 OFFCURVE",
"250 321 CURVE SMOOTH",
"250 266 OFFCURVE",
"463 304 OFFCURVE",
"463 169 CURVE SMOOTH",
"463 79 OFFCURVE",
"322 -19 OFFCURVE",
"176 -19 CURVE SMOOTH",
"137 -19 OFFCURVE",
"137 0 OFFCURVE",
"137 21 CURVE SMOOTH",
"137 157 OFFCURVE",
"162 413 OFFCURVE",
"221 504 CURVE",
"213 514 OFFCURVE",
"205 518 OFFCURVE",
"195 518 CURVE SMOOTH",
"104 518 OFFCURVE",
"81 120 OFFCURVE",
"81 -12 CURVE SMOOTH",
"81 -41 OFFCURVE",
"121 -60 OFFCURVE"
);
}
);
width = 556;
}
);
unicode = 0042;
userData = {
com.typemytype.robofont.layerData = {
};
};
},
{
glyphname = C;
lastChange = "2016-06-28 15:02:07 +0000";
layers = (
{
anchors = (
{
name = bot;
position = "{278, -70}";
},
{
name = top;
position = "{452, 658}";
}
);
layerId = "DE4BB00D-BABA-4D36-9D9A-44FD0E91C3DF";
paths = (
{
closed = 1;
nodes = (
"380 329 CURVE SMOOTH",
"503 329 OFFCURVE",
"587 439 OFFCURVE",
"587 543 CURVE SMOOTH",
"587 623 OFFCURVE",
"536 669 OFFCURVE",
"455 669 CURVE SMOOTH",
"206 669 OFFCURVE",
"51 403 OFFCURVE",
"49 182 CURVE SMOOTH",
"49 32 OFFCURVE",
"118 -93 OFFCURVE",
"278 -93 CURVE SMOOTH",
"419 -93 OFFCURVE",
"539 -12 OFFCURVE",
"591 92 CURVE SMOOTH",
"591 93 OFFCURVE",
"592 94 OFFCURVE",
"592 95 CURVE SMOOTH",
"592 103 OFFCURVE",
"581 113 OFFCURVE",
"574 113 CURVE SMOOTH",
"572 113 OFFCURVE",
"571 112 OFFCURVE",
"570 111 CURVE SMOOTH",
"501 27 OFFCURVE",
"426 -44 OFFCURVE",
"299 -44 CURVE SMOOTH",
"171 -44 OFFCURVE",
"115 65 OFFCURVE",
"115 196 CURVE SMOOTH",
"116 390 OFFCURVE",
"245 618 OFFCURVE",
"449 618 CURVE SMOOTH",
"506 618 OFFCURVE",
"532 593 OFFCURVE",
"532 537 CURVE SMOOTH",
"532 458 OFFCURVE",
"477 378 OFFCURVE",
"394 374 CURVE SMOOTH",
"368 372 OFFCURVE",
"346 373 OFFCURVE",
"346 352 CURVE SMOOTH",
"346 335 OFFCURVE",
"357 329 OFFCURVE"
);
}
);
width = 576;
}
);
unicode = 0043;
userData = {
com.typemytype.robofont.layerData = {
};
};
},
{
glyphname = D;
lastChange = "2016-06-28 15:02:07 +0000";
layers = (
{
anchors = (
{
name = bot;
position = "{177, -36}";
},
{
name = top;
position = "{322, 658}";
}
);
layerId = "DE4BB00D-BABA-4D36-9D9A-44FD0E91C3DF";
paths = (
{
closed = 1;
nodes = (
"162 -41 CURVE SMOOTH",
"417 -41 OFFCURVE",
"556 164 OFFCURVE",
"556 353 CURVE SMOOTH",
"556 514 OFFCURVE",
"454 663 OFFCURVE",
"238 663 CURVE SMOOTH",
"148 663 OFFCURVE",
"75 634 OFFCURVE",
"23 577 CURVE SMOOTH",
"6 559 OFFCURVE",
"-13 529 OFFCURVE",
"-13 500 CURVE SMOOTH",
"-13 491 OFFCURVE",
"-7 481 OFFCURVE",
"0 481 CURVE SMOOTH",
"21 481 OFFCURVE",
"19 505 OFFCURVE",
"62 547 CURVE SMOOTH",
"112 598 OFFCURVE",
"178 612 OFFCURVE",
"225 612 CURVE SMOOTH",
"410 612 OFFCURVE",
"497 484 OFFCURVE",
"497 346 CURVE SMOOTH",
"497 180 OFFCURVE",
"377 3 OFFCURVE",
"156 3 CURVE SMOOTH",
"144 3 LINE SMOOTH",
"115 3 OFFCURVE",
"110 3 OFFCURVE",
"110 16 CURVE SMOOTH",
"110 137 OFFCURVE",
"169 458 OFFCURVE",
"226 537 CURVE",
"219 547 OFFCURVE",
"211 551 OFFCURVE",
"202 551 CURVE SMOOTH",
"192 551 OFFCURVE",
"180 547 OFFCURVE",
"167 538 CURVE",
"96 439 OFFCURVE",
"60 154 OFFCURVE",
"51 -14 CURVE SMOOTH",
"50 -23 OFFCURVE",
"50 -23 OFFCURVE",
"55 -25 CURVE SMOOTH",
"76 -33 OFFCURVE",
"118 -41 OFFCURVE"
);
}
);
width = 558;
}
);
unicode = 0044;
userData = {
com.typemytype.robofont.layerData = {
};
};
},
{
glyphname = E;
lastChange = "2016-06-28 15:02:07 +0000";
layers = (
{
anchors = (
{
name = bot;
position = "{258, -83}";
},
{
name = ogonek;
position = "{278, -87}";
},
{
name = top;
position = "{422, 658}";
}
);
layerId = "DE4BB00D-BABA-4D36-9D9A-44FD0E91C3DF";
paths = (
{
closed = 1;
nodes = (
"279 299 CURVE",
"175 286 OFFCURVE",
"32 196 OFFCURVE",
"32 61 CURVE SMOOTH",
"32 -55 OFFCURVE",
"189 -56 OFFCURVE",
"243 -96 CURVE",
"372 -96 OFFCURVE",
"524 -32 OFFCURVE",
"595 77 CURVE SMOOTH",
"599 83 OFFCURVE",
"602 90 OFFCURVE",
"602 96 CURVE SMOOTH",
"602 110 OFFCURVE",
"592 118 OFFCURVE",
"582 118 CURVE SMOOTH",
"576 118 OFFCURVE",
"567 115 OFFCURVE",
"561 104 CURVE SMOOTH",
"502 17 OFFCURVE",
"359 -51 OFFCURVE",
"251 -51 CURVE SMOOTH",
"168 -51 OFFCURVE",
"91 -25 OFFCURVE",
"91 58 CURVE SMOOTH",
"91 170 OFFCURVE",
"208 265 OFFCURVE",
"333 265 CURVE SMOOTH",
"360 265 OFFCURVE",
"373 274 OFFCURVE",
"373 291 CURVE SMOOTH",
"373 303 OFFCURVE",
"366 313 OFFCURVE",
"354 316 CURVE SMOOTH",
"242 341 OFFCURVE",
"178 408 OFFCURVE",
"178 492 CURVE SMOOTH",
"178 586 OFFCURVE",
"263 636 OFFCURVE",
"380 636 CURVE SMOOTH",
"437 636 OFFCURVE",
"494 618 OFFCURVE",
"530 582 CURVE",
"511 566 OFFCURVE",
"498 548 OFFCURVE",
"498 525 CURVE SMOOTH",
"498 498 OFFCURVE",
"514 482 OFFCURVE",
"541 482 CURVE SMOOTH",
"561 482 OFFCURVE",
"590 501 OFFCURVE",
"590 545 CURVE SMOOTH",
"590 636 OFFCURVE",
"484 682 OFFCURVE",
"373 682 CURVE SMOOTH",
"250 682 OFFCURVE",
"121 623 OFFCURVE",
"121 489 CURVE SMOOTH",
"121 417 OFFCURVE",
"169 336 OFFCURVE"
);
}
);
width = 515;
}
);
unicode = 0045;
userData = {
com.typemytype.robofont.layerData = {
};
};
},
{
glyphname = F;
lastChange = "2016-06-28 15:02:07 +0000";
layers = (
{
anchors = (
{
name = top;
position = "{412, 658}";
}
);
layerId = "DE4BB00D-BABA-4D36-9D9A-44FD0E91C3DF";
paths = (
{
closed = 1;
nodes = (
"128 -68 CURVE SMOOTH",
"251 -68 OFFCURVE",
"306 27 OFFCURVE",
"345 270 CURVE",
"394 270 OFFCURVE",
"427 271 OFFCURVE",
"450 277 CURVE SMOOTH",
"457 279 OFFCURVE",
"465 287 OFFCURVE",
"465 295 CURVE SMOOTH",
"465 302 OFFCURVE",
"464 310 OFFCURVE",
"447 313 CURVE SMOOTH",
"440 314 OFFCURVE",
"430 315 OFFCURVE",
"417 315 CURVE SMOOTH",
"400 315 OFFCURVE",
"378 314 OFFCURVE",
"353 314 CURVE",
"358 335 OFFCURVE",
"405 546 OFFCURVE",
"422 615 CURVE",
"440 618 OFFCURVE",
"466 619 OFFCURVE",
"496 619 CURVE SMOOTH",
"548 619 OFFCURVE",
"611 615 OFFCURVE",
"664 608 CURVE SMOOTH",
"671 608 LINE SMOOTH",
"692 608 OFFCURVE",
"703 617 OFFCURVE",
"703 635 CURVE SMOOTH",
"703 667 OFFCURVE",
"516 669 OFFCURVE",
"461 669 CURVE SMOOTH",
"270 669 OFFCURVE",
"30 610 OFFCURVE",
"30 432 CURVE SMOOTH",
"30 388 OFFCURVE",
"44 337 OFFCURVE",
"78 278 CURVE SMOOTH",
"86 268 OFFCURVE",
"104 261 OFFCURVE",
"116 261 CURVE SMOOTH",
"124 261 OFFCURVE",
"129 264 OFFCURVE",
"129 271 CURVE SMOOTH",
"129 275 OFFCURVE",
"127 281 OFFCURVE",
"123 288 CURVE SMOOTH",
"90 343 OFFCURVE",
"76 388 OFFCURVE",
"76 426 CURVE SMOOTH",
"76 551 OFFCURVE",
"230 594 OFFCURVE",
"370 615 CURVE",
"350 529 OFFCURVE",
"329 426 OFFCURVE",
"303 313 CURVE",
"237 311 OFFCURVE",
"216 304 OFFCURVE",
"216 287 CURVE SMOOTH",
"216 276 OFFCURVE",
"224 272 OFFCURVE",
"250 270 CURVE SMOOTH",
"259 270 OFFCURVE",
"282 269 OFFCURVE",
"295 269 CURVE",
"281 209 OFFCURVE",
"253 -25 OFFCURVE",
"137 -25 CURVE SMOOTH",
"76 -25 OFFCURVE",
"95 6 OFFCURVE",
"62 6 CURVE SMOOTH",
"48 6 OFFCURVE",
"37 -8 OFFCURVE",
"37 -25 CURVE SMOOTH",
"37 -58 OFFCURVE",
"91 -68 OFFCURVE"
);
}
);
width = 440;
}
);
unicode = 0046;
userData = {
com.typemytype.robofont.layerData = {
};
};
},
{
glyphname = G;
lastChange = "2016-06-28 15:02:07 +0000";
layers = (
{
anchors = (
{
name = bot;
position = "{383, -321}";
},
{
name = top;
position = "{552, 658}";
}
);
layerId = "DE4BB00D-BABA-4D36-9D9A-44FD0E91C3DF";
paths = (
{
closed = 1;
nodes = (
"274 -282 CURVE SMOOTH",
"274 -318 OFFCURVE",
"369 -330 OFFCURVE",
"398 -330 CURVE SMOOTH",
"540 -330 OFFCURVE",
"626 -180 OFFCURVE",
"688 122 CURVE SMOOTH",
"691 140 OFFCURVE",
"694 154 OFFCURVE",
"694 165 CURVE SMOOTH",
"694 202 OFFCURVE",
"668 206 OFFCURVE",
"574 206 CURVE SMOOTH",
"547 206 OFFCURVE",
"527 197 OFFCURVE",
"527 178 CURVE SMOOTH",
"527 161 OFFCURVE",
"538 156 OFFCURVE",
"571 156 CURVE SMOOTH",
"628 156 OFFCURVE",
"641 151 OFFCURVE",
"641 139 CURVE SMOOTH",
"641 136 OFFCURVE",
"641 133 OFFCURVE",
"640 130 CURVE SMOOTH",
"634 103 LINE",
"568 41 OFFCURVE",
"449 -10 OFFCURVE",
"345 -10 CURVE SMOOTH",
"238 -10 OFFCURVE",
"148 43 OFFCURVE",
"148 193 CURVE SMOOTH",
"148 472 OFFCURVE",
"369 619 OFFCURVE",
"508 619 CURVE SMOOTH",
"575 619 OFFCURVE",
"625 586 OFFCURVE",
"625 517 CURVE SMOOTH",
"625 480 OFFCURVE",
"638 474 OFFCURVE",
"657 474 CURVE SMOOTH",
"679 474 OFFCURVE",
"691 482 OFFCURVE",
"691 513 CURVE SMOOTH",
"691 623 OFFCURVE",
"614 676 OFFCURVE",
"514 676 CURVE SMOOTH",
"335 676 OFFCURVE",
"83 505 OFFCURVE",
"83 191 CURVE SMOOTH",
"83 0 OFFCURVE",
"200 -59 OFFCURVE",
"326 -59 CURVE SMOOTH",
"448 -59 OFFCURVE",
"579 -4 OFFCURVE",
"620 39 CURVE",
"561 -213 OFFCURVE",
"489 -282 OFFCURVE",
"410 -282 CURVE SMOOTH",
"379 -282 OFFCURVE",
"346 -272 OFFCURVE",
"313 -257 CURVE SMOOTH",
"310 -256 OFFCURVE",
"307 -255 OFFCURVE",
"304 -255 CURVE SMOOTH",
"289 -255 OFFCURVE",
"274 -268 OFFCURVE"
);
}
);
width = 727;
}
);
unicode = 0047;
userData = {
com.typemytype.robofont.layerData = {
};
};
},
{
glyphname = H;
lastChange = "2016-06-28 15:02:07 +0000";
layers = (
{
anchors = (
{
name = top;
position = "{422, 658}";
}
);
layerId = "DE4BB00D-BABA-4D36-9D9A-44FD0E91C3DF";
paths = (
{
closed = 1;
nodes = (
"13 -84 CURVE SMOOTH",
"13 -101 OFFCURVE",
"23 -105 OFFCURVE",
"37 -105 CURVE SMOOTH",
"61 -105 OFFCURVE",
"68 -87 OFFCURVE",
"80 -51 CURVE SMOOTH",
"177 227 LINE SMOOTH",
"177 227 OFFCURVE",
"178 227 OFFCURVE",
"178 227 CURVE SMOOTH",
"266 227 OFFCURVE",
"353 238 OFFCURVE",
"434 257 CURVE",
"400 113 LINE SMOOTH",
"393 84 OFFCURVE",
"390 57 OFFCURVE",
"390 34 CURVE SMOOTH",
"390 -76 OFFCURVE",
"460 -121 OFFCURVE",
"540 -121 CURVE SMOOTH",
"596 -121 OFFCURVE",
"657 -99 OFFCURVE",
"701 -60 CURVE SMOOTH",
"703 -58 OFFCURVE",
"704 -57 OFFCURVE",
"704 -55 CURVE SMOOTH",
"704 -46 OFFCURVE",
"685 -33 OFFCURVE",
"675 -33 CURVE SMOOTH",
"673 -33 OFFCURVE",
"671 -34 OFFCURVE",
"670 -35 CURVE SMOOTH",
"650 -55 OFFCURVE",
"593 -81 OFFCURVE",
"541 -81 CURVE SMOOTH",
"489 -81 OFFCURVE",
"441 -55 OFFCURVE",
"441 31 CURVE SMOOTH",
"441 56 OFFCURVE",
"445 86 OFFCURVE",
"454 121 CURVE SMOOTH",
"491 272 LINE",
"676 327 OFFCURVE",
"812 426 OFFCURVE",
"812 538 CURVE SMOOTH",
"812 611 OFFCURVE",
"756 653 OFFCURVE",
"690 653 CURVE SMOOTH",
"610 653 OFFCURVE",
"513 592 OFFCURVE",
"479 449 CURVE SMOOTH",
"445 306 LINE",
"367 285 OFFCURVE",
"282 272 OFFCURVE",
"196 272 CURVE SMOOTH",
"195 272 OFFCURVE",
"194 272 OFFCURVE",
"193 272 CURVE SMOOTH",
"233 388 LINE SMOOTH",
"248 435 OFFCURVE",
"255 475 OFFCURVE",
"255 509 CURVE SMOOTH",
"255 598 OFFCURVE",
"196 652 OFFCURVE",
"97 652 CURVE SMOOTH",
"-11 652 OFFCURVE",
"-125 574 OFFCURVE",
"-125 437 CURVE SMOOTH",
"-125 422 OFFCURVE",
"-114 416 OFFCURVE",
"-103 416 CURVE SMOOTH",
"-95 416 OFFCURVE",
"-87 419 OFFCURVE",
"-87 424 CURVE SMOOTH",
"-83 507 OFFCURVE",
"-12 606 OFFCURVE",
"92 606 CURVE SMOOTH",
"159 606 OFFCURVE",
"204 578 OFFCURVE",
"204 514 CURVE SMOOTH",
"204 478 OFFCURVE",
"192 427 OFFCURVE",
"166 357 CURVE SMOOTH",
"136 274 LINE",
"114 276 OFFCURVE",
"92 278 OFFCURVE",
"70 282 CURVE SMOOTH",
"67 282 LINE SMOOTH",
"53 282 OFFCURVE",
"42 266 OFFCURVE",
"42 252 CURVE SMOOTH",
"42 243 OFFCURVE",
"47 235 OFFCURVE",
"58 234 CURVE SMOOTH",
"79 231 OFFCURVE",
"99 230 OFFCURVE",
"120 229 CURVE",
"25 -33 LINE SMOOTH",
"16 -58 OFFCURVE",
"13 -74 OFFCURVE"
);
},
{
closed = 1;
nodes = (
"504 324 CURVE",
"535 449 LINE SMOOTH",
"563 559 OFFCURVE",
"634 604 OFFCURVE",
"689 604 CURVE SMOOTH",
"729 604 OFFCURVE",
"761 581 OFFCURVE",
"761 539 CURVE SMOOTH",
"761 458 OFFCURVE",
"653 375 OFFCURVE"
);
}
);
width = 678;
}
);
unicode = 0048;
userData = {
com.typemytype.robofont.layerData = {
};
};
},
{
glyphname = Hbar;
lastChange = "2016-06-28 15:02:07 +0000";
layers = (
{
components = (
{
name = H;
}
);
layerId = "DE4BB00D-BABA-4D36-9D9A-44FD0E91C3DF";
paths = (
{
closed = 1;
nodes = (
"90 402 LINE",
"604 426 LINE SMOOTH",
"616 426 OFFCURVE",
"622 435 OFFCURVE",
"622 444 CURVE SMOOTH",
"622 453 OFFCURVE",
"616 461 OFFCURVE",
"606 461 CURVE SMOOTH",
"605 461 LINE",
"89 434 LINE SMOOTH",
"78 433 OFFCURVE",
"74 427 OFFCURVE",
"74 420 CURVE SMOOTH",
"74 411 OFFCURVE",
"80 402 OFFCURVE",
"89 402 CURVE SMOOTH"
);
}
);
width = 678;
}
);
unicode = 0126;
},
{
glyphname = I;
lastChange = "2016-06-28 15:02:07 +0000";
layers = (
{
anchors = (
{
name = ogonek;
position = "{166, 0}";
},
{
name = top;
position = "{342, 658}";
}
);
layerId = "DE4BB00D-BABA-4D36-9D9A-44FD0E91C3DF";
paths = (
{
closed = 1;
nodes = (
"11 2 CURVE SMOOTH",
"11 -15 OFFCURVE",
"19 -24 OFFCURVE",
"33 -24 CURVE SMOOTH",
"71 -24 OFFCURVE",
"227 -8 OFFCURVE",
"318 -4 CURVE SMOOTH",
"341 -3 OFFCURVE",
"349 13 OFFCURVE",
"349 25 CURVE SMOOTH",
"349 39 OFFCURVE",
"338 40 OFFCURVE",
"323 40 CURVE SMOOTH",
"314 40 LINE SMOOTH",
"288 40 OFFCURVE",
"250 37 OFFCURVE",
"206 37 CURVE SMOOTH",
"195 37 LINE",
"222 168 OFFCURVE",
"320 500 OFFCURVE",
"352 613 CURVE",
"386 617 OFFCURVE",
"487 622 OFFCURVE",
"519 627 CURVE SMOOTH",
"527 628 OFFCURVE",
"530 636 OFFCURVE",
"530 645 CURVE SMOOTH",
"530 656 OFFCURVE",
"525 667 OFFCURVE",
"517 667 CURVE SMOOTH",
"481 668 OFFCURVE",
"448 668 OFFCURVE",
"418 668 CURVE SMOOTH",
"248 668 OFFCURVE",
"175 655 OFFCURVE",
"154 645 CURVE SMOOTH",
"149 642 OFFCURVE",
"146 634 OFFCURVE",
"146 625 CURVE SMOOTH",
"146 612 OFFCURVE",
"151 598 OFFCURVE",
"158 598 CURVE SMOOTH",
"159 598 LINE",
"209 607 OFFCURVE",
"282 607 OFFCURVE",
"299 610 CURVE",
"236 444 OFFCURVE",
"177 213 OFFCURVE",
"138 35 CURVE",
"120 34 OFFCURVE",
"18 32 OFFCURVE",
"13 13 CURVE SMOOTH",
"12 9 OFFCURVE",
"11 6 OFFCURVE"
);
}
);
width = 335;
}
);
unicode = 0049;
userData = {
com.typemytype.robofont.layerData = {
};
};
},
{
glyphname = IJ;
lastChange = "2016-06-28 15:02:07 +0000";
layers = (
{
layerId = "DE4BB00D-BABA-4D36-9D9A-44FD0E91C3DF";
paths = (
{
closed = 1;
nodes = (
"11 2 CURVE SMOOTH",
"11 -14 OFFCURVE",
"18 -24 OFFCURVE",
"32 -24 CURVE SMOOTH",
"67 -24 OFFCURVE",
"210 -8 OFFCURVE",
"301 -4 CURVE SMOOTH",
"317 -3 OFFCURVE",
"324 7 OFFCURVE",
"324 18 CURVE SMOOTH",
"324 30 OFFCURVE",
"316 43 OFFCURVE",
"304 43 CURVE SMOOTH",
"196 39 LINE",
"223 170 OFFCURVE",
"320 500 OFFCURVE",
"352 613 CURVE",
"362 614 OFFCURVE",
"378 615 OFFCURVE",
"396 617 CURVE SMOOTH",
"577 617 OFFCURVE",
"655 609 OFFCURVE",
"786 604 CURVE",
"751 427 OFFCURVE",
"629 -100 OFFCURVE",
"497 -100 CURVE SMOOTH",
"453 -100 OFFCURVE",
"438 -38 OFFCURVE",
"432 13 CURVE SMOOTH",
"430 26 OFFCURVE",
"419 33 OFFCURVE",
"408 33 CURVE SMOOTH",
"398 33 OFFCURVE",
"388 26 OFFCURVE",
"388 12 CURVE SMOOTH",
"388 -82 OFFCURVE",
"429 -148 OFFCURVE",
"504 -148 CURVE SMOOTH",
"509 -148 OFFCURVE",
"513 -147 OFFCURVE",
"518 -147 CURVE SMOOTH",
"664 -135 OFFCURVE",
"790 299 OFFCURVE",
"831 602 CURVE",
"865 600 OFFCURVE",
"898 600 OFFCURVE",
"936 600 CURVE SMOOTH",
"1005 600 OFFCURVE",
"1009 609 OFFCURVE",
"1009 626 CURVE SMOOTH",
"1009 640 OFFCURVE",
"999 651 OFFCURVE",
"988 651 CURVE SMOOTH",
"985 651 LINE SMOOTH",
"942 651 OFFCURVE",
"891 652 OFFCURVE",
"836 654 CURVE",
"835 664 OFFCURVE",
"831 667 OFFCURVE",
"821 667 CURVE SMOOTH",
"808 667 OFFCURVE",
"802 667 OFFCURVE",
"798 656 CURVE",
"691 661 OFFCURVE",
"581 667 OFFCURVE",
"506 667 CURVE SMOOTH",
"474 668 OFFCURVE",
"445 668 OFFCURVE",
"418 668 CURVE SMOOTH",
"247 668 OFFCURVE",
"176 655 OFFCURVE",
"154 645 CURVE SMOOTH",
"149 642 OFFCURVE",
"146 634 OFFCURVE",
"146 625 CURVE SMOOTH",
"146 612 OFFCURVE",
"151 598 OFFCURVE",
"158 598 CURVE SMOOTH",
"159 598 LINE",
"209 607 OFFCURVE",
"282 607 OFFCURVE",
"299 610 CURVE",
"236 444 OFFCURVE",
"177 213 OFFCURVE",
"138 35 CURVE",
"120 34 OFFCURVE",
"18 32 OFFCURVE",
"13 13 CURVE SMOOTH",
"12 9 OFFCURVE",
"11 6 OFFCURVE"
);
}
);
width = 816;
}
);
unicode = 0132;
},
{
glyphname = J;
lastChange = "2016-06-28 15:02:07 +0000";
layers = (
{
anchors = (
{
name = top;
position = "{432, 658}";
}
);
layerId = "DE4BB00D-BABA-4D36-9D9A-44FD0E91C3DF";
paths = (
{
closed = 1;
nodes = (
"601 576 CURVE SMOOTH",
"669 576 OFFCURVE",
"674 585 OFFCURVE",
"674 600 CURVE SMOOTH",
"674 615 OFFCURVE",
"663 627 OFFCURVE",
"652 627 CURVE SMOOTH",
"650 627 LINE SMOOTH",
"601 627 OFFCURVE",
"551 629 OFFCURVE",
"500 632 CURVE",
"499 638 OFFCURVE",
"494 644 OFFCURVE",
"485 644 CURVE SMOOTH",
"472 644 OFFCURVE",
"466 643 OFFCURVE",
"462 634 CURVE",
"383 638 OFFCURVE",
"306 643 OFFCURVE",
"239 643 CURVE SMOOTH",
"30 643 OFFCURVE",
"-57 545 OFFCURVE",
"-57 436 CURVE SMOOTH",
"-57 424 OFFCURVE",
"-45 416 OFFCURVE",
"-34 416 CURVE SMOOTH",
"-27 416 OFFCURVE",
"-21 419 OFFCURVE",
"-19 426 CURVE SMOOTH",
"7 523 OFFCURVE",
"39 593 OFFCURVE",
"236 593 CURVE SMOOTH",
"284 593 OFFCURVE",
"356 585 OFFCURVE",
"451 580 CURVE",
"416 406 OFFCURVE",
"293 -100 OFFCURVE",
"162 -100 CURVE SMOOTH",
"110 -100 OFFCURVE",
"110 -21 OFFCURVE",
"103 30 CURVE SMOOTH",
"102 43 OFFCURVE",
"92 50 OFFCURVE",
"82 50 CURVE SMOOTH",
"72 50 OFFCURVE",
"63 43 OFFCURVE",
"63 28 CURVE SMOOTH",
"63 -65 OFFCURVE",
"94 -148 OFFCURVE",
"168 -148 CURVE SMOOTH",
"173 -148 OFFCURVE",
"178 -148 OFFCURVE",
"183 -147 CURVE SMOOTH",
"298 -134 OFFCURVE",
"481 278 OFFCURVE",
"499 578 CURVE",
"531 577 OFFCURVE",
"565 576 OFFCURVE"
);
}
);
width = 480;
}
);
unicode = 004A;
userData = {
com.typemytype.robofont.layerData = {
};
};
},
{
glyphname = K;
lastChange = "2016-06-28 15:02:07 +0000";
layers = (
{
anchors = (
{
name = bot;
position = "{334, -114}";
},
{
name = top;
position = "{502, 658}";
}
);
layerId = "DE4BB00D-BABA-4D36-9D9A-44FD0E91C3DF";
paths = (
{
closed = 1;
nodes = (
"-11 322 CURVE SMOOTH",
"11 322 OFFCURVE",
"21 333 OFFCURVE",
"21 344 CURVE SMOOTH",
"21 359 LINE SMOOTH",
"21 571 OFFCURVE",
"171 604 OFFCURVE",
"285 607 CURVE",
"247 117 OFFCURVE",
"174 -58 OFFCURVE",
"63 -58 CURVE SMOOTH",
"39 -58 OFFCURVE",
"12 -47 OFFCURVE",
"-1 -47 CURVE SMOOTH",
"-13 -47 OFFCURVE",
"-27 -63 OFFCURVE",
"-27 -77 CURVE SMOOTH",
"-27 -97 OFFCURVE",
"36 -104 OFFCURVE",
"65 -104 CURVE SMOOTH",
"215 -104 OFFCURVE",
"262 24 OFFCURVE",
"301 292 CURVE",
"431 -30 OFFCURVE",
"464 -137 OFFCURVE",
"612 -137 CURVE SMOOTH",
"644 -137 OFFCURVE",
"717 -126 OFFCURVE",
"717 -94 CURVE SMOOTH",
"717 -84 OFFCURVE",
"710 -78 OFFCURVE",
"705 -78 CURVE SMOOTH",
"688 -78 OFFCURVE",
"664 -91 OFFCURVE",
"640 -91 CURVE SMOOTH",
"626 -91 LINE SMOOTH",
"506 -91 OFFCURVE",
"486 -13 OFFCURVE",
"347 309 CURVE",
"526 400 OFFCURVE",
"646 531 OFFCURVE",
"673 591 CURVE SMOOTH",
"678 603 OFFCURVE",
"681 613 OFFCURVE",
"681 621 CURVE SMOOTH",
"681 632 OFFCURVE",
"676 639 OFFCURVE",
"664 639 CURVE SMOOTH",
"647 639 OFFCURVE",
"639 618 OFFCURVE",
"613 583 CURVE SMOOTH",
"554 503 OFFCURVE",
"455 419 OFFCURVE",
"315 341 CURVE",
"332 445 OFFCURVE",
"332 540 OFFCURVE",
"332 629 CURVE SMOOTH",
"332 643 OFFCURVE",
"323 648 OFFCURVE",
"303 648 CURVE SMOOTH",
"158 648 OFFCURVE",
"-36 593 OFFCURVE",
"-36 360 CURVE SMOOTH",
"-36 348 LINE SMOOTH",
"-36 332 OFFCURVE",
"-25 322 OFFCURVE"
);
}
);
width = 561;
}
);
unicode = 004B;
userData = {
com.typemytype.robofont.layerData = {
};
};
},
{
glyphname = L;
lastChange = "2016-06-28 15:02:07 +0000";
layers = (
{
anchors = (
{
name = bot;
position = "{422, -144}";
},
{
name = caron.alt;
position = "{906, 583}";
},
{
name = top;
position = "{652, 658}";
}
);
layerId = "DE4BB00D-BABA-4D36-9D9A-44FD0E91C3DF";
paths = (
{
closed = 1;
nodes = (
"417 435 CURVE",
"376 443 OFFCURVE",
"331 454 OFFCURVE",
"283 470 CURVE SMOOTH",
"281 471 OFFCURVE",
"280 471 OFFCURVE",
"278 471 CURVE SMOOTH",
"265 471 OFFCURVE",
"257 455 OFFCURVE",
"257 443 CURVE SMOOTH",
"257 437 OFFCURVE",
"259 432 OFFCURVE",
"264 430 CURVE SMOOTH",
"319 412 OFFCURVE",
"370 399 OFFCURVE",
"417 391 CURVE",
"418 372 OFFCURVE",
"418 352 OFFCURVE",
"418 332 CURVE SMOOTH",
"418 233 OFFCURVE",
"411 135 OFFCURVE",
"376 66 CURVE",
"303 103 OFFCURVE",
"231 132 OFFCURVE",
"165 132 CURVE SMOOTH",
"97 132 OFFCURVE",
"62 86 OFFCURVE",
"62 38 CURVE SMOOTH",
"62 -17 OFFCURVE",
"107 -75 OFFCURVE",
"201 -75 CURVE SMOOTH",
"288 -75 OFFCURVE",
"348 -45 OFFCURVE",
"388 3 CURVE",
"518 -72 OFFCURVE",
"651 -174 OFFCURVE",
"758 -174 CURVE SMOOTH",
"813 -174 OFFCURVE",
"861 -147 OFFCURVE",
"899 -76 CURVE SMOOTH",
"902 -70 OFFCURVE",
"903 -65 OFFCURVE",
"903 -60 CURVE SMOOTH",
"903 -50 OFFCURVE",
"897 -42 OFFCURVE",
"889 -42 CURVE SMOOTH",
"883 -42 OFFCURVE",
"875 -47 OFFCURVE",
"868 -58 CURVE SMOOTH",
"841 -99 OFFCURVE",
"806 -115 OFFCURVE",
"765 -115 CURVE SMOOTH",
"670 -115 OFFCURVE",
"543 -27 OFFCURVE",
"416 44 CURVE",
"463 132 OFFCURVE",
"471 257 OFFCURVE",
"471 383 CURVE",
"498 380 OFFCURVE",
"524 379 OFFCURVE",
"548 379 CURVE SMOOTH",
"753 379 OFFCURVE",
"847 482 OFFCURVE",
"847 576 CURVE SMOOTH",
"847 654 OFFCURVE",
"781 725 OFFCURVE",
"660 725 CURVE SMOOTH",
"495 725 OFFCURVE",
"420 588 OFFCURVE"
);
},
{
closed = 1;
nodes = (
"472 427 CURVE",
"480 599 OFFCURVE",
"552 678 OFFCURVE",
"656 678 CURVE SMOOTH",
"742 678 OFFCURVE",
"789 628 OFFCURVE",
"789 572 CURVE SMOOTH",
"789 501 OFFCURVE",
"714 422 OFFCURVE",
"545 422 CURVE SMOOTH",
"522 422 OFFCURVE",
"498 423 OFFCURVE"
);
},
{
closed = 1;
nodes = (
"349 25 CURVE",
"317 -12 OFFCURVE",
"271 -34 OFFCURVE",
"205 -34 CURVE SMOOTH",
"144 -34 OFFCURVE",
"113 4 OFFCURVE",
"113 36 CURVE SMOOTH",
"113 60 OFFCURVE",
"130 82 OFFCURVE",
"166 82 CURVE SMOOTH",
"224 82 OFFCURVE",
"286 58 OFFCURVE"
);
}
);
width = 644;
}
);
unicode = 004C;
userData = {
com.typemytype.robofont.layerData = {
};
};
},
{
glyphname = Lslash;
lastChange = "2016-06-28 15:02:07 +0000";
layers = (
{
components = (
{
name = L;
}
);
layerId = "DE4BB00D-BABA-4D36-9D9A-44FD0E91C3DF";
paths = (
{
closed = 1;
nodes = (
"558 236 LINE SMOOTH",
"568 239 OFFCURVE",
"571 246 OFFCURVE",
"571 254 CURVE SMOOTH",
"571 264 OFFCURVE",
"564 272 OFFCURVE",
"553 272 CURVE SMOOTH",
"550 272 OFFCURVE",
"547 271 OFFCURVE",
"543 270 CURVE SMOOTH",
"315 191 LINE SMOOTH",
"307 188 OFFCURVE",
"304 180 OFFCURVE",
"304 174 CURVE SMOOTH",
"304 165 OFFCURVE",
"311 156 OFFCURVE",
"321 156 CURVE SMOOTH",
"322 156 OFFCURVE",
"326 157 OFFCURVE",
"331 159 CURVE SMOOTH"
);
}
);
width = 622;
}
);
unicode = 0141;
},
{
glyphname = M;
lastChange = "2016-06-28 15:02:07 +0000";
layers = (
{
anchors = (
{
name = top;
position = "{552, 658}";
}
);
layerId = "DE4BB00D-BABA-4D36-9D9A-44FD0E91C3DF";
paths = (
{
closed = 1;
nodes = (
"138 575 CURVE SMOOTH",
"178 575 OFFCURVE",
"193 536 OFFCURVE",
"193 477 CURVE SMOOTH",
"193 420 OFFCURVE",
"178 343 OFFCURVE",
"151 265 CURVE SMOOTH",
"55 -18 LINE SMOOTH",
"55 -19 OFFCURVE",
"54 -21 OFFCURVE",
"54 -22 CURVE SMOOTH",
"54 -32 OFFCURVE",
"67 -41 OFFCURVE",
"79 -41 CURVE SMOOTH",
"103 -41 OFFCURVE",
"107 -24 OFFCURVE",
"119 9 CURVE SMOOTH",
"242 348 OFFCURVE",
"323 578 OFFCURVE",
"415 578 CURVE SMOOTH",
"447 578 OFFCURVE",
"461 543 OFFCURVE",
"461 490 CURVE SMOOTH",
"461 434 OFFCURVE",
"445 357 OFFCURVE",
"422 282 CURVE SMOOTH",
"332 -7 LINE SMOOTH",
"329 -18 OFFCURVE",
"345 -31 OFFCURVE",
"362 -31 CURVE SMOOTH",
"373 -31 OFFCURVE",
"385 -24 OFFCURVE",
"388 -6 CURVE SMOOTH",
"477 292 OFFCURVE",
"560 533 OFFCURVE",
"652 546 CURVE SMOOTH",
"655 546 OFFCURVE",
"659 547 OFFCURVE",
"662 547 CURVE SMOOTH",
"690 547 OFFCURVE",
"700 526 OFFCURVE",
"700 503 CURVE SMOOTH",
"700 498 OFFCURVE",
"700 494 OFFCURVE",
"699 489 CURVE SMOOTH",
"679 363 OFFCURVE",
"604 224 OFFCURVE",
"595 85 CURVE SMOOTH",
"595 77 LINE SMOOTH",
"595 19 OFFCURVE",
"629 -34 OFFCURVE",
"707 -34 CURVE SMOOTH",
"777 -34 OFFCURVE",
"830 8 OFFCURVE",
"852 45 CURVE SMOOTH",
"853 48 OFFCURVE",
"854 51 OFFCURVE",
"854 54 CURVE SMOOTH",
"854 67 OFFCURVE",
"844 82 OFFCURVE",
"833 82 CURVE SMOOTH",
"829 82 OFFCURVE",
"824 80 OFFCURVE",
"820 75 CURVE SMOOTH",
"797 48 OFFCURVE",
"757 15 OFFCURVE",
"709 15 CURVE SMOOTH",
"666 15 OFFCURVE",
"649 41 OFFCURVE",
"649 77 CURVE SMOOTH",
"649 88 LINE SMOOTH",
"662 250 OFFCURVE",
"747 368 OFFCURVE",
"757 500 CURVE SMOOTH",
"757 512 LINE SMOOTH",
"757 576 OFFCURVE",
"711 606 OFFCURVE",
"674 606 CURVE SMOOTH",
"671 606 LINE SMOOTH",
"604 606 OFFCURVE",
"548 541 OFFCURVE",
"495 406 CURVE",
"503 443 OFFCURVE",
"508 476 OFFCURVE",
"508 506 CURVE SMOOTH",
"508 580 OFFCURVE",
"481 629 OFFCURVE",
"424 629 CURVE SMOOTH",
"309 626 OFFCURVE",
"261 486 OFFCURVE",
"217 366 CURVE",
"228 409 OFFCURVE",
"237 456 OFFCURVE",
"237 498 CURVE SMOOTH",
"237 565 OFFCURVE",
"214 621 OFFCURVE",
"140 621 CURVE SMOOTH",
"63 621 OFFCURVE",
"7 551 OFFCURVE",
"7 454 CURVE SMOOTH",
"7 433 OFFCURVE",
"20 422 OFFCURVE",
"33 422 CURVE SMOOTH",
"44 422 OFFCURVE",
"55 431 OFFCURVE",
"55 447 CURVE SMOOTH",
"55 520 OFFCURVE",
"90 575 OFFCURVE"
);
}
);
width = 770;
}
);
unicode = 004D;
userData = {
com.typemytype.robofont.layerData = {
};
};
},
{
glyphname = N;
lastChange = "2016-06-28 15:02:07 +0000";
layers = (
{
anchors = (
{
name = top;
position = "{402, 658}";
}
);
layerId = "DE4BB00D-BABA-4D36-9D9A-44FD0E91C3DF";
paths = (
{
closed = 1;
nodes = (
"126 541 CURVE SMOOTH",
"157 541 OFFCURVE",
"159 497 OFFCURVE",
"159 461 CURVE SMOOTH",
"159 346 OFFCURVE",
"123 156 OFFCURVE",
"76 23 CURVE SMOOTH",
"75 20 OFFCURVE",
"74 17 OFFCURVE",
"74 13 CURVE SMOOTH",
"74 0 OFFCURVE",
"83 -16 OFFCURVE",
"102 -16 CURVE SMOOTH",
"116 -16 OFFCURVE",
"128 -7 OFFCURVE",
"133 9 CURVE SMOOTH",
"199 247 OFFCURVE",
"372 540 OFFCURVE",
"453 540 CURVE SMOOTH",
"491 540 OFFCURVE",
"492 509 OFFCURVE",
"492 482 CURVE SMOOTH",
"492 409 OFFCURVE",
"385 190 OFFCURVE",
"385 71 CURVE SMOOTH",
"385 9 OFFCURVE",
"417 -31 OFFCURVE",
"499 -31 CURVE SMOOTH",
"537 -31 OFFCURVE",
"592 -6 OFFCURVE",
"624 25 CURVE SMOOTH",
"638 38 OFFCURVE",
"643 50 OFFCURVE",
"643 58 CURVE SMOOTH",
"643 66 OFFCURVE",
"637 71 OFFCURVE",
"630 71 CURVE SMOOTH",
"624 71 OFFCURVE",
"616 68 OFFCURVE",
"609 60 CURVE SMOOTH",
"580 28 OFFCURVE",
"540 10 OFFCURVE",
"507 10 CURVE SMOOTH",
"472 10 OFFCURVE",
"443 31 OFFCURVE",
"443 78 CURVE SMOOTH",
"443 82 OFFCURVE",
"444 85 OFFCURVE",
"444 89 CURVE SMOOTH",
"455 209 OFFCURVE",
"554 404 OFFCURVE",
"554 502 CURVE SMOOTH",
"554 550 OFFCURVE",
"517 592 OFFCURVE",
"455 592 CURVE SMOOTH",
"343 592 OFFCURVE",
"252 432 OFFCURVE",
"183 265 CURVE",
"194 331 OFFCURVE",
"207 409 OFFCURVE",
"207 466 CURVE SMOOTH",
"207 534 OFFCURVE",
"188 583 OFFCURVE",
"130 583 CURVE SMOOTH",
"85 583 OFFCURVE",
"49 547 OFFCURVE",
"25 507 CURVE SMOOTH",
"21 500 OFFCURVE",
"19 493 OFFCURVE",
"19 487 CURVE SMOOTH",
"19 476 OFFCURVE",
"26 470 OFFCURVE",
"35 470 CURVE SMOOTH",
"41 470 OFFCURVE",
"48 473 OFFCURVE",
"54 481 CURVE SMOOTH",
"86 522 OFFCURVE",
"105 540 OFFCURVE"
);
}
);
width = 572;
}
);
unicode = 004E;
userData = {
com.typemytype.robofont.layerData = {
};
};
},
{
glyphname = Eng;
lastChange = "2016-06-28 15:02:07 +0000";
layers = (
{
layerId = "DE4BB00D-BABA-4D36-9D9A-44FD0E91C3DF";
paths = (
{
closed = 1;
nodes = (
"147 -266 CURVE SMOOTH",
"127 -266 OFFCURVE",
"120 -253 OFFCURVE",
"120 -238 CURVE SMOOTH",
"120 -181 OFFCURVE",
"235 -103 OFFCURVE",
"310 -51 CURVE",
"280 -133 OFFCURVE",
"232 -266 OFFCURVE"
);
},
{
closed = 1;
nodes = (
"76 -250 CURVE SMOOTH",
"76 -288 OFFCURVE",
"96 -310 OFFCURVE",
"143 -310 CURVE SMOOTH",
"256 -310 OFFCURVE",
"321 -193 OFFCURVE",
"374 -27 CURVE",
"451 18 OFFCURVE",
"486 46 OFFCURVE",
"537 66 CURVE SMOOTH",
"550 74 OFFCURVE",
"555 83 OFFCURVE",
"555 91 CURVE SMOOTH",
"555 101 OFFCURVE",
"546 109 OFFCURVE",
"534 109 CURVE SMOOTH",
"530 109 LINE SMOOTH",
"478 88 OFFCURVE",
"445 55 OFFCURVE",
"386 19 CURVE",
"453 196 OFFCURVE",
"520 399 OFFCURVE",
"520 502 CURVE SMOOTH",
"520 550 OFFCURVE",
"484 592 OFFCURVE",
"422 592 CURVE SMOOTH",
"309 592 OFFCURVE",
"219 432 OFFCURVE",
"149 265 CURVE",
"161 329 OFFCURVE",
"174 404 OFFCURVE",
"174 461 CURVE SMOOTH",
"174 531 OFFCURVE",
"156 583 OFFCURVE",
"96 583 CURVE SMOOTH",
"51 583 OFFCURVE",
"15 547 OFFCURVE",
"-9 507 CURVE SMOOTH",
"-13 500 OFFCURVE",
"-15 493 OFFCURVE",
"-15 487 CURVE SMOOTH",
"-15 476 OFFCURVE",
"-9 470 OFFCURVE",
"0 470 CURVE SMOOTH",
"6 470 OFFCURVE",
"14 473 OFFCURVE",
"20 481 CURVE SMOOTH",
"52 522 OFFCURVE",
"71 540 OFFCURVE",
"92 541 CURVE SMOOTH",
"122 541 OFFCURVE",
"125 499 OFFCURVE",
"125 464 CURVE SMOOTH",
"125 349 OFFCURVE",
"90 157 OFFCURVE",
"42 23 CURVE SMOOTH",
"41 20 OFFCURVE",
"40 17 OFFCURVE",
"40 13 CURVE SMOOTH",
"40 0 OFFCURVE",
"48 -16 OFFCURVE",
"68 -16 CURVE SMOOTH",
"82 -16 OFFCURVE",
"95 -7 OFFCURVE",
"99 9 CURVE SMOOTH",
"166 247 OFFCURVE",
"338 540 OFFCURVE",
"419 540 CURVE SMOOTH",
"457 540 OFFCURVE",
"458 509 OFFCURVE",
"458 482 CURVE SMOOTH",
"458 401 OFFCURVE",
"391 179 OFFCURVE",
"325 -2 CURVE",
"238 -58 OFFCURVE",
"86 -152 OFFCURVE",
"77 -235 CURVE SMOOTH",
"76 -240 OFFCURVE",
"76 -245 OFFCURVE"
);
}
);
width = 538;
}
);
unicode = 014A;
},
{
glyphname = O;
lastChange = "2016-06-28 15:02:07 +0000";
layers = (
{
anchors = (
{
name = ogonek;
position = "{337, -92}";
},
{
name = top;
position = "{482, 658}";
}
);
layerId = "DE4BB00D-BABA-4D36-9D9A-44FD0E91C3DF";
paths = (
{
closed = 1;
nodes = (
"332 -106 CURVE SMOOTH",
"527 -106 OFFCURVE",
"671 153 OFFCURVE",
"671 376 CURVE SMOOTH",
"671 601 OFFCURVE",
"586 687 OFFCURVE",
"435 687 CURVE SMOOTH",
"233 687 OFFCURVE",
"86 424 OFFCURVE",
"86 201 CURVE SMOOTH",
"86 -21 OFFCURVE",
"174 -106 OFFCURVE"
);
},
{
closed = 1;
nodes = (
"614 389 CURVE SMOOTH",
"614 134 OFFCURVE",
"461 -57 OFFCURVE",
"329 -57 CURVE SMOOTH",
"196 -57 OFFCURVE",
"143 33 OFFCURVE",
"143 188 CURVE SMOOTH",
"143 447 OFFCURVE",
"303 639 OFFCURVE",
"442 639 CURVE SMOOTH",
"565 639 OFFCURVE",
"614 547 OFFCURVE"
);
}
);
width = 659;
}
);
unicode = 004F;
userData = {
com.typemytype.robofont.layerData = {
};
};
},
{
glyphname = Oslash;
lastChange = "2016-06-28 15:02:07 +0000";
layers = (
{
components = (
{
name = O;
}
);
layerId = "DE4BB00D-BABA-4D36-9D9A-44FD0E91C3DF";
paths = (
{
closed = 1;
nodes = (
"75 -163 CURVE SMOOTH",
"677 718 LINE SMOOTH",
"681 724 OFFCURVE",
"683 729 OFFCURVE",
"683 734 CURVE SMOOTH",
"683 746 OFFCURVE",
"672 753 OFFCURVE",
"661 753 CURVE SMOOTH",
"653 753 OFFCURVE",
"646 750 OFFCURVE",
"642 741 CURVE SMOOTH",
"42 -142 LINE SMOOTH",
"35 -154 OFFCURVE",
"33 -163 OFFCURVE",
"33 -170 CURVE SMOOTH",
"33 -179 OFFCURVE",
"38 -184 OFFCURVE",
"45 -184 CURVE SMOOTH",
"54 -184 OFFCURVE",
"66 -177 OFFCURVE"
);
}
);
width = 633;
}
);
unicode = 00D8;
userData = {
com.typemytype.robofont.layerData = {
};
};
},
{
glyphname = OE;
lastChange = "2016-06-28 15:02:07 +0000";
layers = (
{
layerId = "DE4BB00D-BABA-4D36-9D9A-44FD0E91C3DF";
paths = (
{
closed = 1;
nodes = (
"116 188 CURVE SMOOTH",
"116 447 OFFCURVE",
"276 639 OFFCURVE",
"415 639 CURVE SMOOTH",
"537 639 OFFCURVE",
"587 549 OFFCURVE",
"587 393 CURVE SMOOTH",
"587 375 LINE SMOOTH",
"583 150 OFFCURVE",
"430 -57 OFFCURVE",
"302 -57 CURVE SMOOTH",
"169 -57 OFFCURVE",
"116 33 OFFCURVE"
);
},
{
closed = 1;
nodes = (
"1077 549 CURVE SMOOTH",
"1077 636 OFFCURVE",
"968 682 OFFCURVE",
"861 682 CURVE SMOOTH",
"759 682 OFFCURVE",
"652 642 OFFCURVE",
"619 551 CURVE",
"583 647 OFFCURVE",
"511 687 OFFCURVE",
"408 687 CURVE SMOOTH",
"207 687 OFFCURVE",
"59 424 OFFCURVE",
"59 201 CURVE SMOOTH",
"59 -21 OFFCURVE",
"148 -106 OFFCURVE",
"306 -106 CURVE SMOOTH",
"392 -106 OFFCURVE",
"467 -57 OFFCURVE",
"525 19 CURVE",
"546 -65 OFFCURVE",
"635 -104 OFFCURVE",
"732 -104 CURVE SMOOTH",
"871 -104 OFFCURVE",
"1015 -33 OFFCURVE",
"1083 77 CURVE SMOOTH",
"1087 83 OFFCURVE",
"1089 90 OFFCURVE",
"1089 96 CURVE SMOOTH",
"1089 110 OFFCURVE",
"1080 118 OFFCURVE",
"1070 118 CURVE SMOOTH",
"1064 118 OFFCURVE",
"1055 115 OFFCURVE",
"1048 104 CURVE SMOOTH",
"990 18 OFFCURVE",
"855 -54 OFFCURVE",
"738 -54 CURVE SMOOTH",
"736 -54 LINE SMOOTH",
"653 -54 OFFCURVE",
"566 -15 OFFCURVE",
"566 71 CURVE SMOOTH",
"566 80 LINE SMOOTH",
"584 121 OFFCURVE",
"617 191 OFFCURVE",
"636 265 CURVE",
"791 265 LINE SMOOTH",
"817 265 OFFCURVE",
"830 274 OFFCURVE",
"830 291 CURVE SMOOTH",
"830 303 OFFCURVE",
"823 313 OFFCURVE",
"811 316 CURVE SMOOTH",
"641 316 LINE",
"643 328 OFFCURVE",
"644 351 OFFCURVE",
"644 375 CURVE SMOOTH",
"644 417 OFFCURVE",
"642 465 OFFCURVE",
"639 479 CURVE",
"663 566 OFFCURVE",
"746 634 OFFCURVE",
"863 634 CURVE SMOOTH",
"920 634 OFFCURVE",
"982 618 OFFCURVE",
"1018 582 CURVE",
"1004 555 OFFCURVE",
"987 530 OFFCURVE",
"987 502 CURVE SMOOTH",
"987 486 OFFCURVE",
"997 478 OFFCURVE",
"1025 478 CURVE SMOOTH",
"1045 478 OFFCURVE",
"1077 499 OFFCURVE"
);
}
);
width = 1002;
}
);
unicode = 0152;
},
{
glyphname = P;
lastChange = "2016-06-28 15:02:07 +0000";
layers = (
{
anchors = (
{
name = top;
position = "{472, 658}";
}
);
layerId = "DE4BB00D-BABA-4D36-9D9A-44FD0E91C3DF";
paths = (
{
closed = 1;
nodes = (
"229 -119 CURVE SMOOTH",
"323 -119 OFFCURVE",
"349 -35 OFFCURVE",
"363 99 CURVE SMOOTH",
"375 202 OFFCURVE",
"383 266 OFFCURVE",
"385 266 CURVE SMOOTH",
"579 272 OFFCURVE",
"699 359 OFFCURVE",
"699 491 CURVE SMOOTH",
"699 608 OFFCURVE",
"613 697 OFFCURVE",
"444 697 CURVE SMOOTH",
"433 697 OFFCURVE",
"421 697 OFFCURVE",
"409 696 CURVE SMOOTH",
"208 682 OFFCURVE",
"87 485 OFFCURVE",
"87 232 CURVE SMOOTH",
"87 45 OFFCURVE",
"131 -119 OFFCURVE"
);
},
{
closed = 1;
nodes = (
"240 -67 CURVE SMOOTH",
"165 -67 OFFCURVE",
"143 100 OFFCURVE",
"143 221 CURVE SMOOTH",
"143 393 OFFCURVE",
"223 629 OFFCURVE",
"408 643 CURVE SMOOTH",
"418 644 OFFCURVE",
"427 644 OFFCURVE",
"436 644 CURVE SMOOTH",
"568 644 OFFCURVE",
"643 577 OFFCURVE",
"643 485 CURVE SMOOTH",
"643 384 OFFCURVE",
"539 317 OFFCURVE",
"388 312 CURVE",
"393 346 OFFCURVE",
"410 419 OFFCURVE",
"444 478 CURVE SMOOTH",
"445 479 OFFCURVE",
"445 480 OFFCURVE",
"445 481 CURVE SMOOTH",
"445 488 OFFCURVE",
"434 496 OFFCURVE",
"415 496 CURVE SMOOTH",
"358 496 OFFCURVE",
"349 418 OFFCURVE",
"330 314 CURVE",
"302 314 OFFCURVE",
"257 339 OFFCURVE",
"247 344 CURVE SMOOTH",
"240 347 OFFCURVE",
"241 333 OFFCURVE",
"241 326 CURVE SMOOTH",
"241 286 OFFCURVE",
"300 272 OFFCURVE",
"325 270 CURVE",
"307 131 OFFCURVE",
"312 -67 OFFCURVE"
);
}
);
width = 589;
}
);
unicode = 0050;
userData = {
com.typemytype.robofont.layerData = {
};
};
},
{
glyphname = Thorn;
lastChange = "2016-06-28 15:02:07 +0000";
layers = (
{
layerId = "DE4BB00D-BABA-4D36-9D9A-44FD0E91C3DF";
paths = (
{
closed = 1;
nodes = (
"269 312 CURVE",
"276 372 OFFCURVE",
"295 516 OFFCURVE",
"311 636 CURVE SMOOTH",
"314 636 LINE SMOOTH",
"445 636 OFFCURVE",
"523 577 OFFCURVE",
"523 485 CURVE SMOOTH",
"523 384 OFFCURVE",
"419 317 OFFCURVE"
);
},
{
closed = 1;
nodes = (
"120 -67 CURVE SMOOTH",
"45 -67 OFFCURVE",
"23 100 OFFCURVE",
"23 221 CURVE SMOOTH",
"23 382 OFFCURVE",
"97 597 OFFCURVE",
"254 631 CURVE",
"243 554 OFFCURVE",
"230 452 OFFCURVE",
"210 314 CURVE",
"183 314 OFFCURVE",
"137 339 OFFCURVE",
"127 344 CURVE SMOOTH",
"121 347 OFFCURVE",
"121 333 OFFCURVE",
"121 326 CURVE SMOOTH",
"121 286 OFFCURVE",
"180 272 OFFCURVE",
"206 270 CURVE",
"188 131 OFFCURVE",
"192 -67 OFFCURVE"
);
},
{
closed = 1;
nodes = (
"109 -119 CURVE SMOOTH",
"203 -119 OFFCURVE",
"229 -35 OFFCURVE",
"243 99 CURVE SMOOTH",
"255 202 OFFCURVE",
"263 266 OFFCURVE",
"265 266 CURVE SMOOTH",
"458 272 OFFCURVE",
"579 359 OFFCURVE",
"579 491 CURVE SMOOTH",
"579 609 OFFCURVE",
"484 693 OFFCURVE",
"318 696 CURVE",
"328 772 OFFCURVE",
"334 823 OFFCURVE",
"334 835 CURVE SMOOTH",
"334 847 OFFCURVE",
"329 851 OFFCURVE",
"315 851 CURVE SMOOTH",
"291 851 OFFCURVE",
"281 823 OFFCURVE",
"263 694 CURVE",
"78 670 OFFCURVE",
"-32 474 OFFCURVE",
"-32 232 CURVE SMOOTH",
"-32 45 OFFCURVE",
"12 -119 OFFCURVE"
);
}
);
width = 469;
}
);
unicode = 00DE;
},
{
glyphname = Q;
lastChange = "2016-06-28 15:02:07 +0000";
layers = (
{
components = (
{
name = O;
}
);
layerId = "DE4BB00D-BABA-4D36-9D9A-44FD0E91C3DF";
paths = (
{
closed = 1;
nodes = (
"942 -188 CURVE SMOOTH",
"984 -155 OFFCURVE",
"997 -126 OFFCURVE",
"1002 -114 CURVE SMOOTH",
"1004 -109 OFFCURVE",
"1005 -105 OFFCURVE",
"1005 -102 CURVE SMOOTH",
"1005 -93 OFFCURVE",
"990 -85 OFFCURVE",
"983 -89 CURVE SMOOTH",
"980 -91 OFFCURVE",
"979 -94 OFFCURVE",
"976 -98 CURVE SMOOTH",
"947 -131 OFFCURVE",
"908 -168 OFFCURVE",
"850 -168 CURVE SMOOTH",
"783 -168 OFFCURVE",
"680 -124 OFFCURVE",
"479 8 CURVE SMOOTH",
"478 9 OFFCURVE",
"478 9 OFFCURVE",
"477 9 CURVE SMOOTH",
"470 9 OFFCURVE",
"454 -9 OFFCURVE",
"454 -19 CURVE SMOOTH",
"454 -21 OFFCURVE",
"455 -22 OFFCURVE",
"456 -23 CURVE SMOOTH",
"655 -150 OFFCURVE",
"760 -225 OFFCURVE",
"845 -225 CURVE SMOOTH",
"879 -225 OFFCURVE",
"910 -213 OFFCURVE"
);
}
);
width = 643;
}
);
unicode = 0051;
},
{
glyphname = R;
lastChange = "2016-06-28 15:02:07 +0000";
layers = (
{
anchors = (
{
name = top;
position = "{462, 658}";
}
);
layerId = "DE4BB00D-BABA-4D36-9D9A-44FD0E91C3DF";
paths = (
{
closed = 1;
nodes = (
"483 338 LINE SMOOTH",
"557 338 OFFCURVE",
"674 393 OFFCURVE",
"674 510 CURVE SMOOTH",
"674 621 OFFCURVE",
"569 696 OFFCURVE",
"415 697 CURVE SMOOTH",
"236 697 OFFCURVE",
"70 534 OFFCURVE",
"70 225 CURVE SMOOTH",
"70 -1 OFFCURVE",
"123 -119 OFFCURVE",
"218 -119 CURVE SMOOTH",
"219 -119 LINE SMOOTH",
"321 -119 OFFCURVE",
"341 -21 OFFCURVE",
"377 330 CURVE SMOOTH",
"381 330 OFFCURVE",
"385 330 OFFCURVE",
"389 330 CURVE SMOOTH",
"402 330 OFFCURVE",
"417 330 OFFCURVE",
"433 331 CURVE",
"495 -9 OFFCURVE",
"612 -137 OFFCURVE",
"712 -148 CURVE SMOOTH",
"719 -149 OFFCURVE",
"726 -150 OFFCURVE",
"734 -150 CURVE SMOOTH",
"765 -150 OFFCURVE",
"800 -139 OFFCURVE",
"838 -96 CURVE SMOOTH",
"844 -90 OFFCURVE",
"846 -85 OFFCURVE",
"846 -80 CURVE SMOOTH",
"846 -72 OFFCURVE",
"837 -59 OFFCURVE",
"827 -59 CURVE SMOOTH",
"820 -59 OFFCURVE",
"814 -64 OFFCURVE",
"809 -69 CURVE SMOOTH",
"792 -86 OFFCURVE",
"768 -97 OFFCURVE",
"745 -97 CURVE SMOOTH",
"741 -97 OFFCURVE",
"737 -97 OFFCURVE",
"734 -96 CURVE SMOOTH",
"695 -91 OFFCURVE",
"572 -67 OFFCURVE",
"481 338 CURVE"
);
},
{
closed = 1;
nodes = (
"317 334 CURVE",
"285 138 OFFCURVE",
"295 -66 OFFCURVE",
"222 -66 CURVE SMOOTH",
"166 -66 OFFCURVE",
"127 11 OFFCURVE",
"127 225 CURVE SMOOTH",
"127 446 OFFCURVE",
"231 639 OFFCURVE",
"416 639 CURVE SMOOTH",
"563 639 OFFCURVE",
"616 579 OFFCURVE",
"616 503 CURVE SMOOTH",
"616 497 LINE SMOOTH",
"616 438 OFFCURVE",
"569 383 OFFCURVE",
"393 383 CURVE SMOOTH",
"385 383 LINE",
"400 441 OFFCURVE",
"429 467 OFFCURVE",
"429 481 CURVE SMOOTH",
"429 489 OFFCURVE",
"417 496 OFFCURVE",
"401 496 CURVE SMOOTH",
"359 496 OFFCURVE",
"341 454 OFFCURVE",
"327 385 CURVE",
"306 387 OFFCURVE",
"290 389 OFFCURVE",
"278 389 CURVE SMOOTH",
"271 389 LINE SMOOTH",
"258 389 OFFCURVE",
"250 385 OFFCURVE",
"250 373 CURVE SMOOTH",
"250 357 OFFCURVE",
"268 342 OFFCURVE"
);
}
);
width = 697;
}
);
unicode = 0052;
userData = {
com.typemytype.robofont.layerData = {
};
};
},
{
glyphname = S;
lastChange = "2016-06-28 15:02:07 +0000";
layers = (
{
anchors = (
{
name = bot;
position = "{272, -89}";
},
{
name = top;
position = "{382, 658}";
}
);
layerId = "DE4BB00D-BABA-4D36-9D9A-44FD0E91C3DF";
paths = (
{
closed = 1;
nodes = (
"91 101 CURVE SMOOTH",
"91 120 OFFCURVE",
"80 136 OFFCURVE",
"63 136 CURVE SMOOTH",
"49 136 OFFCURVE",
"33 122 OFFCURVE",
"28 90 CURVE SMOOTH",
"26 80 OFFCURVE",
"26 71 OFFCURVE",
"26 62 CURVE SMOOTH",
"26 -55 OFFCURVE",
"154 -114 OFFCURVE",
"269 -114 CURVE SMOOTH",
"419 -114 OFFCURVE",
"527 -36 OFFCURVE",
"527 80 CURVE SMOOTH",
"527 187 OFFCURVE",
"446 225 OFFCURVE",
"335 290 CURVE",
"205 375 OFFCURVE",
"163 390 OFFCURVE",
"163 468 CURVE SMOOTH",
"163 536 OFFCURVE",
"271 583 OFFCURVE",
"351 583 CURVE SMOOTH",
"426 583 OFFCURVE",
"497 551 OFFCURVE",
"497 487 CURVE SMOOTH",
"497 450 OFFCURVE",
"481 424 OFFCURVE",
"464 403 CURVE SMOOTH",
"459 397 OFFCURVE",
"457 391 OFFCURVE",
"457 386 CURVE SMOOTH",
"457 375 OFFCURVE",
"466 366 OFFCURVE",
"478 366 CURVE SMOOTH",
"488 366 OFFCURVE",
"500 372 OFFCURVE",
"513 387 CURVE SMOOTH",
"531 407 OFFCURVE",
"549 442 OFFCURVE",
"549 484 CURVE SMOOTH",
"549 577 OFFCURVE",
"467 632 OFFCURVE",
"353 632 CURVE SMOOTH",
"231 632 OFFCURVE",
"104 566 OFFCURVE",
"104 459 CURVE SMOOTH",
"104 362 OFFCURVE",
"196 313 OFFCURVE",
"285 257 CURVE SMOOTH",
"371 203 OFFCURVE",
"475 170 OFFCURVE",
"475 73 CURVE SMOOTH",
"475 -3 OFFCURVE",
"406 -66 OFFCURVE",
"275 -66 CURVE SMOOTH",
"173 -66 OFFCURVE",
"87 -22 OFFCURVE",
"87 61 CURVE SMOOTH",
"87 73 OFFCURVE",
"91 89 OFFCURVE"
);
}
);
width = 561;
}
);
unicode = 0053;
userData = {
com.typemytype.robofont.layerData = {
};
};
},
{
glyphname = T;
lastChange = "2016-06-28 15:02:07 +0000";
layers = (
{
anchors = (
{
name = bot;
position = "{289, -113}";
},
{
name = mid;
position = "{336, 304}";
},
{
name = top;
position = "{432, 658}";
}
);
layerId = "DE4BB00D-BABA-4D36-9D9A-44FD0E91C3DF";
paths = (
{
closed = 1;
nodes = (
"273 -90 CURVE SMOOTH",
"293 -90 OFFCURVE",
"302 -78 OFFCURVE",
"306 -51 CURVE SMOOTH",
"315 9 OFFCURVE",
"344 279 OFFCURVE",
"436 585 CURVE",
"509 581 OFFCURVE",
"597 576 OFFCURVE",
"687 576 CURVE SMOOTH",
"755 576 OFFCURVE",
"760 585 OFFCURVE",
"760 600 CURVE SMOOTH",
"760 615 OFFCURVE",
"749 627 OFFCURVE",
"738 627 CURVE SMOOTH",
"736 627 LINE SMOOTH",
"598 627 OFFCURVE",
"408 643 OFFCURVE",
"287 643 CURVE SMOOTH",
"78 643 OFFCURVE",
"-9 545 OFFCURVE",
"-9 436 CURVE SMOOTH",
"-9 424 OFFCURVE",
"3 416 OFFCURVE",
"14 416 CURVE SMOOTH",
"21 416 OFFCURVE",
"27 419 OFFCURVE",
"29 426 CURVE SMOOTH",
"55 523 OFFCURVE",
"87 593 OFFCURVE",
"284 593 CURVE SMOOTH",
"310 593 OFFCURVE",
"348 591 OFFCURVE",
"395 588 CURVE",
"275 296 OFFCURVE",
"247 -12 OFFCURVE",
"247 -56 CURVE SMOOTH",
"247 -76 OFFCURVE",
"253 -90 OFFCURVE"
);
}
);
width = 476;
}
);
unicode = 0054;
userData = {
com.typemytype.robofont.layerData = {
};
};
},
{
glyphname = U;
lastChange = "2016-06-28 15:02:07 +0000";
layers = (
{
anchors = (
{
name = ogonek;
position = "{310, -27}";
},
{
name = top;
position = "{442, 658}";
}
);
layerId = "DE4BB00D-BABA-4D36-9D9A-44FD0E91C3DF";
paths = (
{
closed = 1;
nodes = (
"472 567 CURVE SMOOTH",
"472 603 OFFCURVE",
"494 636 OFFCURVE",
"537 636 CURVE SMOOTH",
"582 636 OFFCURVE",
"601 589 OFFCURVE",
"601 520 CURVE SMOOTH",
"601 501 OFFCURVE",
"599 481 OFFCURVE",
"597 459 CURVE SMOOTH",
"595 459 OFFCURVE",
"594 459 OFFCURVE",
"593 459 CURVE SMOOTH",
"512 459 OFFCURVE",
"472 517 OFFCURVE"
);
},
{
closed = 1;
nodes = (
"647 424 CURVE",
"689 434 OFFCURVE",
"737 456 OFFCURVE",
"790 492 CURVE SMOOTH",
"797 496 OFFCURVE",
"800 502 OFFCURVE",
"800 508 CURVE SMOOTH",
"800 518 OFFCURVE",
"791 528 OFFCURVE",
"779 528 CURVE SMOOTH",
"774 528 OFFCURVE",
"769 527 OFFCURVE",
"764 523 CURVE SMOOTH",
"722 495 OFFCURVE",
"685 478 OFFCURVE",
"652 468 CURVE",
"653 483 OFFCURVE",
"654 498 OFFCURVE",
"654 512 CURVE SMOOTH",
"654 610 OFFCURVE",
"622 681 OFFCURVE",
"551 681 CURVE SMOOTH",
"465 681 OFFCURVE",
"424 624 OFFCURVE",
"424 566 CURVE SMOOTH",
"424 495 OFFCURVE",
"482 417 OFFCURVE",
"588 417 CURVE SMOOTH",
"588 417 OFFCURVE",
"589 417 OFFCURVE",
"589 417 CURVE",
"553 236 OFFCURVE",
"432 10 OFFCURVE",
"283 10 CURVE SMOOTH",
"190 10 OFFCURVE",
"154 87 OFFCURVE",
"154 188 CURVE SMOOTH",
"154 303 OFFCURVE",
"200 448 OFFCURVE",
"261 548 CURVE SMOOTH",
"264 552 OFFCURVE",
"265 556 OFFCURVE",
"265 559 CURVE SMOOTH",
"265 569 OFFCURVE",
"255 575 OFFCURVE",
"243 575 CURVE SMOOTH",
"239 575 OFFCURVE",
"235 574 OFFCURVE",
"230 573 CURVE SMOOTH",
"230 573 OFFCURVE",
"230 573 OFFCURVE",
"230 573 CURVE SMOOTH",
"229 573 OFFCURVE",
"227 573 OFFCURVE",
"226 572 CURVE SMOOTH",
"78 483 LINE SMOOTH",
"70 478 OFFCURVE",
"67 470 OFFCURVE",
"67 462 CURVE SMOOTH",
"67 452 OFFCURVE",
"72 441 OFFCURVE",
"81 441 CURVE SMOOTH",
"83 441 OFFCURVE",
"86 442 OFFCURVE",
"89 444 CURVE SMOOTH",
"173 496 LINE",
"126 400 OFFCURVE",
"95 285 OFFCURVE",
"95 186 CURVE SMOOTH",
"95 58 OFFCURVE",
"147 -43 OFFCURVE",
"280 -43 CURVE SMOOTH",
"474 -43 OFFCURVE",
"614 216 OFFCURVE"
);
}
);
width = 632;
}
);
unicode = 0055;
userData = {
com.typemytype.robofont.layerData = {
};
};
},
{
glyphname = V;
lastChange = "2016-06-28 15:02:07 +0000";
layers = (
{
layerId = "DE4BB00D-BABA-4D36-9D9A-44FD0E91C3DF";
paths = (
{
closed = 1;
nodes = (
"507 284 CURVE SMOOTH",
"458 188 OFFCURVE",
"374 46 OFFCURVE",
"282 35 CURVE SMOOTH",
"274 35 LINE SMOOTH",
"232 35 OFFCURVE",
"204 71 OFFCURVE",
"204 164 CURVE SMOOTH",
"204 347 OFFCURVE",
"305 480 OFFCURVE",
"315 494 CURVE SMOOTH",
"316 495 OFFCURVE",
"316 496 OFFCURVE",
"316 497 CURVE SMOOTH",
"316 503 OFFCURVE",
"306 514 OFFCURVE",
"292 514 CURVE SMOOTH",
"285 514 OFFCURVE",
"277 511 OFFCURVE",
"267 504 CURVE SMOOTH",
"267 504 OFFCURVE",
"266 504 OFFCURVE",
"265 503 CURVE SMOOTH",
"38 366 LINE SMOOTH",
"30 361 OFFCURVE",
"27 353 OFFCURVE",
"27 345 CURVE SMOOTH",
"27 334 OFFCURVE",
"33 324 OFFCURVE",
"41 324 CURVE SMOOTH",
"44 324 OFFCURVE",
"46 325 OFFCURVE",
"49 327 CURVE SMOOTH",
"218 432 LINE",
"188 375 OFFCURVE",
"149 283 OFFCURVE",
"149 170 CURVE SMOOTH",
"149 44 OFFCURVE",
"188 -20 OFFCURVE",
"268 -20 CURVE",
"377 -14 OFFCURVE",
"461 108 OFFCURVE",
"546 260 CURVE SMOOTH",
"571 304 OFFCURVE",
"589 345 OFFCURVE",
"603 383 CURVE",
"652 388 OFFCURVE",
"711 413 OFFCURVE",
"778 465 CURVE SMOOTH",
"785 470 OFFCURVE",
"787 477 OFFCURVE",
"787 483 CURVE SMOOTH",
"787 492 OFFCURVE",
"781 500 OFFCURVE",
"773 500 CURVE SMOOTH",
"770 500 OFFCURVE",
"767 499 OFFCURVE",
"764 497 CURVE SMOOTH",
"707 456 OFFCURVE",
"657 435 OFFCURVE",
"617 428 CURVE",
"627 466 OFFCURVE",
"631 500 OFFCURVE",
"631 530 CURVE SMOOTH",
"631 613 OFFCURVE",
"596 662 OFFCURVE",
"547 664 CURVE SMOOTH",
"463 664 OFFCURVE",
"424 606 OFFCURVE",
"424 542 CURVE SMOOTH",
"424 474 OFFCURVE",
"469 399 OFFCURVE",
"552 385 CURVE",
"541 355 OFFCURVE",
"526 321 OFFCURVE"
);
},
{
closed = 1;
nodes = (
"565 428 CURVE",
"501 439 OFFCURVE",
"470 493 OFFCURVE",
"470 539 CURVE SMOOTH",
"470 576 OFFCURVE",
"490 608 OFFCURVE",
"531 608 CURVE SMOOTH",
"552 608 OFFCURVE",
"579 580 OFFCURVE",
"579 517 CURVE SMOOTH",
"579 493 OFFCURVE",
"575 463 OFFCURVE"
);
}
);
width = 580;
}
);
unicode = 0056;
},
{
glyphname = W;
lastChange = "2016-06-28 15:02:07 +0000";
layers = (
{
anchors = (
{
name = top;
position = "{642, 658}";
}
);
layerId = "DE4BB00D-BABA-4D36-9D9A-44FD0E91C3DF";
paths = (
{
closed = 1;
nodes = (
"987 520 CURVE SMOOTH",
"987 608 OFFCURVE",
"948 653 OFFCURVE",
"887 653 CURVE SMOOTH",
"811 653 OFFCURVE",
"777 601 OFFCURVE",
"777 543 CURVE SMOOTH",
"777 476 OFFCURVE",
"824 399 OFFCURVE",
"908 385 CURVE",
"897 354 OFFCURVE",
"882 321 OFFCURVE",
"863 284 CURVE SMOOTH",
"813 188 OFFCURVE",
"730 46 OFFCURVE",
"638 35 CURVE SMOOTH",
"631 35 LINE SMOOTH",
"587 35 OFFCURVE",
"553 78 OFFCURVE",
"553 184 CURVE SMOOTH",
"553 207 OFFCURVE",
"555 265 OFFCURVE",
"560 274 CURVE SMOOTH",
"564 283 OFFCURVE",
"636 397 OFFCURVE",
"636 456 CURVE SMOOTH",
"636 474 OFFCURVE",
"628 486 OFFCURVE",
"607 486 CURVE SMOOTH",
"593 486 OFFCURVE",
"576 465 OFFCURVE",
"560 430 CURVE SMOOTH",
"545 396 OFFCURVE",
"531 350 OFFCURVE",
"522 300 CURVE",
"514 284 LINE SMOOTH",
"464 188 OFFCURVE",
"381 46 OFFCURVE",
"289 35 CURVE SMOOTH",
"281 35 LINE SMOOTH",
"239 35 OFFCURVE",
"210 71 OFFCURVE",
"210 164 CURVE SMOOTH",
"210 347 OFFCURVE",
"312 480 OFFCURVE",
"322 494 CURVE SMOOTH",
"323 495 OFFCURVE",
"323 496 OFFCURVE",
"323 497 CURVE SMOOTH",
"323 503 OFFCURVE",
"313 514 OFFCURVE",
"299 514 CURVE SMOOTH",
"291 514 OFFCURVE",
"283 511 OFFCURVE",
"274 504 CURVE SMOOTH",
"273 504 OFFCURVE",
"272 504 OFFCURVE",
"271 503 CURVE SMOOTH",
"44 366 LINE SMOOTH",
"36 361 OFFCURVE",
"33 353 OFFCURVE",
"33 345 CURVE SMOOTH",
"33 334 OFFCURVE",
"39 324 OFFCURVE",
"47 324 CURVE SMOOTH",
"50 324 OFFCURVE",
"52 325 OFFCURVE",
"55 327 CURVE SMOOTH",
"225 432 LINE",
"194 376 OFFCURVE",
"156 283 OFFCURVE",
"156 170 CURVE SMOOTH",
"156 44 OFFCURVE",
"195 -20 OFFCURVE",
"274 -20 CURVE",
"368 -15 OFFCURVE",
"439 80 OFFCURVE",
"511 203 CURVE",
"510 193 OFFCURVE",
"510 183 OFFCURVE",
"510 173 CURVE SMOOTH",
"510 69 OFFCURVE",
"539 -20 OFFCURVE",
"624 -20 CURVE",
"733 -14 OFFCURVE",
"818 106 OFFCURVE",
"903 258 CURVE SMOOTH",
"928 303 OFFCURVE",
"947 345 OFFCURVE",
"961 383 CURVE",
"1010 389 OFFCURVE",
"1067 414 OFFCURVE",
"1134 465 CURVE SMOOTH",
"1141 470 OFFCURVE",
"1143 477 OFFCURVE",
"1143 483 CURVE SMOOTH",
"1143 492 OFFCURVE",
"1137 500 OFFCURVE",
"1129 500 CURVE SMOOTH",
"1126 500 OFFCURVE",
"1123 499 OFFCURVE",
"1120 497 CURVE SMOOTH",
"1063 454 OFFCURVE",
"1014 432 OFFCURVE",
"973 425 CURVE",
"983 460 OFFCURVE",
"987 492 OFFCURVE"
);
},
{
closed = 1;
nodes = (
"922 423 CURVE",
"856 433 OFFCURVE",
"825 489 OFFCURVE",
"825 536 CURVE SMOOTH",
"825 575 OFFCURVE",
"846 608 OFFCURVE",
"887 608 CURVE SMOOTH",
"916 608 OFFCURVE",
"940 583 OFFCURVE",
"940 526 CURVE SMOOTH",
"940 499 OFFCURVE",
"935 465 OFFCURVE"
);
}
);
width = 936;
}
);
unicode = 0057;
userData = {
com.typemytype.robofont.layerData = {
};
};
},
{
glyphname = X;
lastChange = "2016-06-28 15:02:07 +0000";
layers = (
{
layerId = "DE4BB00D-BABA-4D36-9D9A-44FD0E91C3DF";
paths = (
{
closed = 1;
nodes = (
"-6 451 CURVE SMOOTH",
"62 511 OFFCURVE",
"102 535 OFFCURVE",
"129 535 CURVE SMOOTH",
"156 535 OFFCURVE",
"170 511 OFFCURVE",
"184 477 CURVE SMOOTH",
"290 224 LINE",
"250 177 OFFCURVE",
"213 133 OFFCURVE",
"180 93 CURVE SMOOTH",
"97 -7 OFFCURVE",
"42 -35 OFFCURVE",
"-42 -35 CURVE SMOOTH",
"-57 -35 OFFCURVE",
"-65 -49 OFFCURVE",
"-65 -63 CURVE SMOOTH",
"-65 -79 OFFCURVE",
"-56 -95 OFFCURVE",
"-35 -95 CURVE SMOOTH",
"37 -95 OFFCURVE",
"93 -70 OFFCURVE",
"208 61 CURVE SMOOTH",
"237 94 OFFCURVE",
"272 136 OFFCURVE",
"308 181 CURVE",
"383 1 LINE SMOOTH",
"407 -56 OFFCURVE",
"439 -84 OFFCURVE",
"476 -84 CURVE SMOOTH",
"505 -84 OFFCURVE",
"537 -67 OFFCURVE",
"570 -35 CURVE SMOOTH",
"680 72 LINE",
"681 73 LINE",
"681 79 OFFCURVE",
"657 97 OFFCURVE",
"652 97 CURVE SMOOTH",
"651 97 LINE",
"541 -7 LINE SMOOTH",
"522 -25 OFFCURVE",
"505 -34 OFFCURVE",
"490 -34 CURVE SMOOTH",
"464 -34 OFFCURVE",
"444 -8 OFFCURVE",
"426 37 CURVE SMOOTH",
"349 232 LINE",
"440 347 OFFCURVE",
"540 473 OFFCURVE",
"612 546 CURVE SMOOTH",
"623 558 OFFCURVE",
"628 568 OFFCURVE",
"628 577 CURVE SMOOTH",
"628 592 OFFCURVE",
"614 602 OFFCURVE",
"599 602 CURVE SMOOTH",
"589 602 OFFCURVE",
"579 597 OFFCURVE",
"573 587 CURVE SMOOTH",
"504 488 OFFCURVE",
"416 377 OFFCURVE",
"332 275 CURVE",
"244 498 LINE SMOOTH",
"225 548 OFFCURVE",
"190 581 OFFCURVE",
"141 581 CURVE SMOOTH",
"95 581 OFFCURVE",
"36 551 OFFCURVE",
"-34 479 CURVE SMOOTH",
"-36 477 OFFCURVE",
"-37 474 OFFCURVE",
"-37 471 CURVE SMOOTH",
"-37 460 OFFCURVE",
"-23 449 OFFCURVE",
"-13 449 CURVE SMOOTH",
"-10 449 OFFCURVE",
"-8 449 OFFCURVE"
);
}
);
width = 610;
}
);
unicode = 0058;
},
{
glyphname = Y;
lastChange = "2016-06-28 15:02:07 +0000";
layers = (
{
anchors = (
{
name = top;
position = "{392, 658}";
}
);
layerId = "DE4BB00D-BABA-4D36-9D9A-44FD0E91C3DF";
paths = (
{
closed = 1;
nodes = (
"461 141 CURVE",
"548 513 LINE SMOOTH",
"551 526 OFFCURVE",
"553 536 OFFCURVE",
"553 545 CURVE SMOOTH",
"553 562 OFFCURVE",
"545 571 OFFCURVE",
"521 571 CURVE SMOOTH",
"510 571 OFFCURVE",
"497 560 OFFCURVE",
"491 530 CURVE SMOOTH",
"418 207 LINE",
"358 129 OFFCURVE",
"274 74 OFFCURVE",
"209 74 CURVE SMOOTH",
"154 74 OFFCURVE",
"114 113 OFFCURVE",
"114 212 CURVE SMOOTH",
"114 290 OFFCURVE",
"140 404 OFFCURVE",
"203 565 CURVE SMOOTH",
"204 567 OFFCURVE",
"204 569 OFFCURVE",
"204 571 CURVE SMOOTH",
"204 580 OFFCURVE",
"194 582 OFFCURVE",
"183 582 CURVE SMOOTH",
"163 582 OFFCURVE",
"154 569 OFFCURVE",
"147 556 CURVE SMOOTH",
"83 430 OFFCURVE",
"55 314 OFFCURVE",
"55 222 CURVE SMOOTH",
"55 96 OFFCURVE",
"107 15 OFFCURVE",
"190 15 CURVE SMOOTH",
"251 15 OFFCURVE",
"327 59 OFFCURVE",
"412 160 CURVE",
"406 132 OFFCURVE",
"399 105 OFFCURVE",
"392 80 CURVE",
"268 -36 OFFCURVE",
"146 -178 OFFCURVE",
"146 -274 CURVE SMOOTH",
"146 -307 OFFCURVE",
"165 -332 OFFCURVE",
"200 -332 CURVE SMOOTH",
"316 -332 OFFCURVE",
"372 -198 OFFCURVE",
"446 81 CURVE",
"498 128 OFFCURVE",
"552 172 OFFCURVE",
"606 210 CURVE SMOOTH",
"609 212 OFFCURVE",
"610 216 OFFCURVE",
"610 220 CURVE SMOOTH",
"610 230 OFFCURVE",
"603 244 OFFCURVE",
"596 244 CURVE SMOOTH",
"595 244 OFFCURVE",
"594 244 OFFCURVE",
"593 243 CURVE SMOOTH",
"559 220 OFFCURVE",
"512 184 OFFCURVE"
);
},
{
closed = 1;
nodes = (
"373 11 CURVE",
"317 -174 OFFCURVE",
"255 -276 OFFCURVE",
"224 -276 CURVE SMOOTH",
"208 -276 OFFCURVE",
"194 -267 OFFCURVE",
"194 -241 CURVE SMOOTH",
"194 -193 OFFCURVE",
"270 -92 OFFCURVE"
);
}
);
width = 523;
}
);
unicode = 0059;
userData = {
com.typemytype.robofont.layerData = {
};
};
},
{
glyphname = Z;
lastChange = "2016-06-28 15:02:07 +0000";
layers = (
{
anchors = (
{
name = top;
position = "{482, 658}";
}
);
layerId = "DE4BB00D-BABA-4D36-9D9A-44FD0E91C3DF";
paths = (
{
closed = 1;
nodes = (
"667 576 CURVE SMOOTH",
"735 576 OFFCURVE",
"740 585 OFFCURVE",
"740 600 CURVE SMOOTH",
"740 615 OFFCURVE",
"729 627 OFFCURVE",
"718 627 CURVE SMOOTH",
"716 627 LINE SMOOTH",
"578 627 OFFCURVE",
"426 643 OFFCURVE",
"305 643 CURVE SMOOTH",
"96 643 OFFCURVE",
"9 545 OFFCURVE",
"9 436 CURVE SMOOTH",
"9 424 OFFCURVE",
"21 416 OFFCURVE",
"32 416 CURVE SMOOTH",
"39 416 OFFCURVE",
"45 419 OFFCURVE",
"47 426 CURVE SMOOTH",
"73 523 OFFCURVE",
"105 593 OFFCURVE",
"302 593 CURVE SMOOTH",
"363 593 OFFCURVE",
"463 580 OFFCURVE",
"599 577 CURVE",
"356 359 OFFCURVE",
"161 186 OFFCURVE",
"74 93 CURVE SMOOTH",
"43 59 OFFCURVE",
"26 35 OFFCURVE",
"26 24 CURVE SMOOTH",
"26 14 OFFCURVE",
"35 7 OFFCURVE",
"44 7 CURVE SMOOTH",
"59 7 OFFCURVE",
"75 18 OFFCURVE",
"94 40 CURVE",
"181 -9 OFFCURVE",
"270 -50 OFFCURVE",
"371 -50 CURVE SMOOTH",
"442 -50 OFFCURVE",
"518 -30 OFFCURVE",
"604 22 CURVE SMOOTH",
"608 24 OFFCURVE",
"610 27 OFFCURVE",
"610 32 CURVE SMOOTH",
"610 43 OFFCURVE",
"599 60 OFFCURVE",
"589 60 CURVE SMOOTH",
"588 60 OFFCURVE",
"586 60 OFFCURVE",
"585 59 CURVE SMOOTH",
"520 24 OFFCURVE",
"461 -3 OFFCURVE",
"385 -3 CURVE SMOOTH",
"318 -3 OFFCURVE",
"238 18 OFFCURVE",
"130 76 CURVE SMOOTH",
"128 77 OFFCURVE",
"126 78 OFFCURVE",
"124 80 CURVE SMOOTH",
"247 208 OFFCURVE",
"484 411 OFFCURVE",
"659 576 CURVE SMOOTH",
"662 576 OFFCURVE",
"664 576 OFFCURVE"
);
}
);
width = 508;
}
);
unicode = 005A;
userData = {
com.typemytype.robofont.layerData = {
};
};
},
{
glyphname = a;
lastChange = "2016-06-28 15:02:07 +0000";
layers = (
{
anchors = (
{
name = ogonek;
position = "{282, -1}";
},
{
name = top;
position = "{242, 333}";
}
);
layerId = "DE4BB00D-BABA-4D36-9D9A-44FD0E91C3DF";
paths = (
{
closed = 1;
nodes = (
"212 150 LINE SMOOTH",
"203 117 OFFCURVE",
"170 36 OFFCURVE",
"112 36 CURVE SMOOTH",
"79 36 OFFCURVE",
"66 58 OFFCURVE",
"66 90 CURVE SMOOTH",
"66 165 OFFCURVE",
"143 288 OFFCURVE",
"239 288 CURVE SMOOTH",
"243 288 OFFCURVE",
"246 287 OFFCURVE",
"250 287 CURVE SMOOTH"
);
},
{
closed = 1;
nodes = (
"18 88 CURVE SMOOTH",
"18 35 OFFCURVE",
"41 -6 OFFCURVE",
"102 -6 CURVE SMOOTH",
"151 -6 OFFCURVE",
"205 25 OFFCURVE",
"221 75 CURVE",
"221 74 OFFCURVE",
"221 72 OFFCURVE",
"221 70 CURVE SMOOTH",
"221 27 OFFCURVE",
"246 -1 OFFCURVE",
"282 -1 CURVE SMOOTH",
"333 -1 OFFCURVE",
"385 46 OFFCURVE",
"409 80 CURVE",
"409 80 OFFCURVE",
"410 82 OFFCURVE",
"410 87 CURVE SMOOTH",
"410 97 OFFCURVE",
"403 123 OFFCURVE",
"396 123 CURVE",
"396 123 OFFCURVE",
"393 123 OFFCURVE",
"389 117 CURVE SMOOTH",
"372 95 OFFCURVE",
"342 50 OFFCURVE",
"291 43 CURVE SMOOTH",
"287 43 LINE SMOOTH",
"267 43 OFFCURVE",
"260 61 OFFCURVE",
"260 82 CURVE SMOOTH",
"260 88 OFFCURVE",
"261 93 OFFCURVE",
"262 99 CURVE SMOOTH",
"298 282 LINE SMOOTH",
"299 284 OFFCURVE",
"299 287 OFFCURVE",
"299 289 CURVE SMOOTH",
"299 299 OFFCURVE",
"293 305 OFFCURVE",
"281 305 CURVE SMOOTH",
"260 305 LINE SMOOTH",
"260 307 OFFCURVE",
"261 309 OFFCURVE",
"261 311 CURVE SMOOTH",
"261 321 OFFCURVE",
"255 332 OFFCURVE",
"222 332 CURVE SMOOTH",
"110 332 OFFCURVE",
"18 188 OFFCURVE"
);
}
);
width = 333;
}
);
unicode = 0061;
userData = {
com.typemytype.robofont.layerData = {
};
};
},
{
glyphname = ae;
lastChange = "2016-06-28 15:02:07 +0000";
layers = (
{
anchors = (
{
name = ogonek;
position = "{417, 0}";
},
{
name = top;
position = "{327, 333}";
}
);
layerId = "DE4BB00D-BABA-4D36-9D9A-44FD0E91C3DF";
paths = (
{
closed = 1;
nodes = (
"287 109 CURVE",
"283 123 OFFCURVE",
"281 137 OFFCURVE",
"281 151 CURVE SMOOTH",
"281 227 OFFCURVE",
"333 289 OFFCURVE",
"384 289 CURVE SMOOTH",
"402 289 OFFCURVE",
"423 276 OFFCURVE",
"423 249 CURVE SMOOTH",
"423 206 OFFCURVE",
"373 165 OFFCURVE"
);
},
{
closed = 1;
nodes = (
"139 36 CURVE SMOOTH",
"100 36 OFFCURVE",
"83 55 OFFCURVE",
"83 89 CURVE SMOOTH",
"83 159 OFFCURVE",
"143 292 OFFCURVE",
"229 292 CURVE SMOOTH",
"246 292 OFFCURVE",
"266 287 OFFCURVE",
"271 275 CURVE",
"254 254 OFFCURVE",
"230 209 OFFCURVE",
"230 151 CURVE SMOOTH",
"230 129 OFFCURVE",
"234 105 OFFCURVE",
"243 81 CURVE",
"243 81 OFFCURVE",
"188 36 OFFCURVE"
);
},
{
closed = 1;
nodes = (
"367 -6 CURVE SMOOTH",
"453 -6 OFFCURVE",
"522 51 OFFCURVE",
"552 91 CURVE SMOOTH",
"555 96 OFFCURVE",
"556 100 OFFCURVE",
"556 104 CURVE SMOOTH",
"556 115 OFFCURVE",
"547 123 OFFCURVE",
"541 123 CURVE SMOOTH",
"539 123 OFFCURVE",
"538 122 OFFCURVE",
"537 121 CURVE SMOOTH",
"480 66 OFFCURVE",
"426 36 OFFCURVE",
"375 36 CURVE SMOOTH",
"336 36 OFFCURVE",
"314 51 OFFCURVE",
"299 74 CURVE",
"393 131 OFFCURVE",
"468 184 OFFCURVE",
"468 255 CURVE SMOOTH",
"468 302 OFFCURVE",
"427 331 OFFCURVE",
"380 331 CURVE SMOOTH",
"349 331 OFFCURVE",
"320 319 OFFCURVE",
"296 300 CURVE",
"283 315 OFFCURVE",
"256 332 OFFCURVE",
"229 332 CURVE SMOOTH",
"116 332 OFFCURVE",
"35 187 OFFCURVE",
"35 87 CURVE SMOOTH",
"35 0 OFFCURVE",
"102 -7 OFFCURVE",
"131 -7 CURVE SMOOTH",
"194 -7 OFFCURVE",
"258 46 OFFCURVE",
"258 46 CURVE",
"284 13 OFFCURVE",
"315 -6 OFFCURVE"
);
}
);
width = 480;
}
);
unicode = 00E6;
},
{
glyphname = b;
lastChange = "2016-06-28 15:02:07 +0000";
layers = (
{
layerId = "DE4BB00D-BABA-4D36-9D9A-44FD0E91C3DF";
paths = (
{
closed = 1;
nodes = (
"107 271 CURVE",
"146 453 OFFCURVE",
"214 600 OFFCURVE",
"275 600 CURVE SMOOTH",
"292 600 OFFCURVE",
"299 588 OFFCURVE",
"299 574 CURVE SMOOTH",
"299 458 OFFCURVE",
"119 285 OFFCURVE"
);
},
{
closed = 1;
nodes = (
"171 39 CURVE SMOOTH",
"117 39 OFFCURVE",
"93 76 OFFCURVE",
"93 135 CURVE SMOOTH",
"93 203 OFFCURVE",
"145 286 OFFCURVE",
"215 286 CURVE SMOOTH",
"262 286 OFFCURVE",
"275 249 OFFCURVE",
"278 212 CURVE",
"277 212 OFFCURVE",
"275 212 OFFCURVE",
"274 212 CURVE SMOOTH",
"245 212 OFFCURVE",
"236 191 OFFCURVE",
"236 173 CURVE SMOOTH",
"236 154 OFFCURVE",
"248 139 OFFCURVE",
"271 132 CURVE",
"255 83 OFFCURVE",
"217 39 OFFCURVE"
);
},
{
closed = 1;
nodes = (
"319 128 CURVE",
"365 133 OFFCURVE",
"413 160 OFFCURVE",
"442 188 CURVE SMOOTH",
"450 194 OFFCURVE",
"451 197 OFFCURVE",
"451 207 CURVE SMOOTH",
"451 219 OFFCURVE",
"445 224 OFFCURVE",
"439 224 CURVE SMOOTH",
"433 224 OFFCURVE",
"382 172 OFFCURVE",
"327 172 CURVE SMOOTH",
"327 172 OFFCURVE",
"327 172 OFFCURVE",
"326 172 CURVE",
"327 177 OFFCURVE",
"327 183 OFFCURVE",
"327 188 CURVE SMOOTH",
"327 263 OFFCURVE",
"297 330 OFFCURVE",
"240 330 CURVE SMOOTH",
"237 330 LINE SMOOTH",
"222 330 OFFCURVE",
"205 325 OFFCURVE",
"186 314 CURVE",
"245 357 OFFCURVE",
"349 476 OFFCURVE",
"349 583 CURVE SMOOTH",
"349 630 OFFCURVE",
"325 656 OFFCURVE",
"290 656 CURVE SMOOTH",
"153 656 OFFCURVE",
"54 365 OFFCURVE",
"44 128 CURVE SMOOTH",
"44 122 LINE SMOOTH",
"44 53 OFFCURVE",
"80 -5 OFFCURVE",
"171 -5 CURVE SMOOTH",
"254 -5 OFFCURVE",
"302 57 OFFCURVE"
);
}
);
width = 371;
}
);
unicode = 0062;
userData = {
com.typemytype.robofont.layerData = {
};
};
},
{
glyphname = c;
lastChange = "2016-06-28 15:02:07 +0000";
layers = (
{
anchors = (
{
name = bot;
position = "{146, 0}";
},
{
name = top;
position = "{222, 333}";
}
);
layerId = "DE4BB00D-BABA-4D36-9D9A-44FD0E91C3DF";
paths = (
{
closed = 1;
nodes = (
"25 125 CURVE SMOOTH",
"25 44 OFFCURVE",
"82 -7 OFFCURVE",
"171 -7 CURVE SMOOTH",
"263 -7 OFFCURVE",
"327 49 OFFCURVE",
"359 105 CURVE SMOOTH",
"362 109 OFFCURVE",
"363 114 OFFCURVE",
"363 118 CURVE SMOOTH",
"363 130 OFFCURVE",
"355 141 OFFCURVE",
"346 141 CURVE SMOOTH",
"342 141 OFFCURVE",
"338 139 OFFCURVE",
"335 135 CURVE SMOOTH",
"296 76 OFFCURVE",
"244 36 OFFCURVE",
"176 36 CURVE SMOOTH",
"114 36 OFFCURVE",
"83 71 OFFCURVE",
"83 135 CURVE SMOOTH",
"85 237 OFFCURVE",
"157 284 OFFCURVE",
"193 284 CURVE SMOOTH",
"194 284 LINE SMOOTH",
"218 284 OFFCURVE",
"230 268 OFFCURVE",
"230 248 CURVE SMOOTH",
"230 233 OFFCURVE",
"224 216 OFFCURVE",
"211 200 CURVE SMOOTH",
"209 198 OFFCURVE",
"209 196 OFFCURVE",
"209 193 CURVE SMOOTH",
"209 185 OFFCURVE",
"217 175 OFFCURVE",
"227 175 CURVE SMOOTH",
"232 175 OFFCURVE",
"237 177 OFFCURVE",
"242 182 CURVE SMOOTH",
"256 194 OFFCURVE",
"274 216 OFFCURVE",
"274 257 CURVE SMOOTH",
"274 301 OFFCURVE",
"241 330 OFFCURVE",
"193 330 CURVE SMOOTH",
"108 330 OFFCURVE",
"25 229 OFFCURVE"
);
}
);
width = 281;
}
);
unicode = 0063;
userData = {
com.typemytype.robofont.layerData = {
};
};
},
{
glyphname = d;
lastChange = "2016-06-28 15:02:07 +0000";
layers = (
{
anchors = (
{
name = caron.alt;
position = "{521, 555}";
},
{
name = mid;
position = "{298, 456}";
}
);
layerId = "DE4BB00D-BABA-4D36-9D9A-44FD0E91C3DF";
paths = (
{
closed = 1;
nodes = (
"408 595 CURVE SMOOTH",
"425 595 OFFCURVE",
"436 581 OFFCURVE",
"436 552 CURVE SMOOTH",
"436 457 OFFCURVE",
"365 341 OFFCURVE",
"277 211 CURVE",
"297 351 OFFCURVE",
"334 595 OFFCURVE"
);
},
{
closed = 1;
nodes = (
"124 40 CURVE SMOOTH",
"98 40 OFFCURVE",
"78 63 OFFCURVE",
"78 111 CURVE SMOOTH",
"78 186 OFFCURVE",
"139 284 OFFCURVE",
"214 284 CURVE SMOOTH",
"222 284 OFFCURVE",
"230 282 OFFCURVE",
"239 280 CURVE",
"226 182 LINE SMOOTH",
"215 111 OFFCURVE",
"176 40 OFFCURVE"
);
},
{
closed = 1;
nodes = (
"27 103 CURVE SMOOTH",
"27 39 OFFCURVE",
"63 -5 OFFCURVE",
"118 -5 CURVE SMOOTH",
"172 -5 OFFCURVE",
"215 43 OFFCURVE",
"231 93 CURVE",
"238 29 OFFCURVE",
"280 -3 OFFCURVE",
"324 -3 CURVE SMOOTH",
"395 -3 OFFCURVE",
"437 42 OFFCURVE",
"469 82 CURVE SMOOTH",
"472 85 OFFCURVE",
"476 93 OFFCURVE",
"475 99 CURVE SMOOTH",
"475 111 OFFCURVE",
"465 119 OFFCURVE",
"455 118 CURVE SMOOTH",
"449 118 OFFCURVE",
"447 115 OFFCURVE",
"442 110 CURVE SMOOTH",
"417 74 OFFCURVE",
"376 42 OFFCURVE",
"328 42 CURVE SMOOTH",
"295 42 OFFCURVE",
"273 68 OFFCURVE",
"273 130 CURVE SMOOTH",
"273 146 LINE SMOOTH",
"348 256 OFFCURVE",
"486 434 OFFCURVE",
"486 584 CURVE SMOOTH",
"486 590 OFFCURVE",
"485 595 OFFCURVE",
"485 601 CURVE SMOOTH",
"483 630 OFFCURVE",
"459 657 OFFCURVE",
"425 657 CURVE SMOOTH",
"333 657 OFFCURVE",
"270 516 OFFCURVE",
"241 318 CURVE",
"228 324 OFFCURVE",
"215 326 OFFCURVE",
"202 326 CURVE SMOOTH",
"115 326 OFFCURVE",
"27 209 OFFCURVE"
);
}
);
width = 395;
}
);
unicode = 0064;
userData = {
com.typemytype.robofont.layerData = {
};
};
},
{
glyphname = eth;
lastChange = "2016-06-28 15:02:07 +0000";
layers = (
{
layerId = "DE4BB00D-BABA-4D36-9D9A-44FD0E91C3DF";
paths = (
{
closed = 1;
nodes = (
"182 43 CURVE SMOOTH",
"176 42 OFFCURVE",
"170 42 OFFCURVE",
"165 42 CURVE SMOOTH",
"107 42 OFFCURVE",
"74 80 OFFCURVE",
"74 141 CURVE SMOOTH",
"74 243 OFFCURVE",
"149 296 OFFCURVE",
"223 297 CURVE SMOOTH",
"250 297 OFFCURVE",
"278 290 OFFCURVE",
"301 276 CURVE",
"302 269 OFFCURVE",
"302 262 OFFCURVE",
"302 255 CURVE SMOOTH",
"302 172 OFFCURVE",
"260 52 OFFCURVE"
);
},
{
closed = 1;
nodes = (
"306 312 CURVE",
"283 331 OFFCURVE",
"252 340 OFFCURVE",
"217 340 CURVE SMOOTH",
"127 340 OFFCURVE",
"22 272 OFFCURVE",
"22 142 CURVE SMOOTH",
"22 57 OFFCURVE",
"79 -1 OFFCURVE",
"160 -1 CURVE SMOOTH",
"165 -1 OFFCURVE",
"169 0 OFFCURVE",
"174 0 CURVE SMOOTH",
"296 10 OFFCURVE",
"357 131 OFFCURVE",
"357 311 CURVE SMOOTH",
"357 373 OFFCURVE",
"348 424 OFFCURVE",
"329 460 CURVE",
"397 492 LINE SMOOTH",
"407 496 OFFCURVE",
"414 501 OFFCURVE",
"414 512 CURVE SMOOTH",
"414 523 OFFCURVE",
"409 533 OFFCURVE",
"398 533 CURVE SMOOTH",
"395 533 OFFCURVE",
"391 532 OFFCURVE",
"388 530 CURVE SMOOTH",
"308 494 LINE",
"263 551 OFFCURVE",
"196 567 OFFCURVE",
"147 567 CURVE SMOOTH",
"120 567 OFFCURVE",
"118 556 OFFCURVE",
"118 546 CURVE SMOOTH",
"118 536 OFFCURVE",
"128 525 OFFCURVE",
"142 525 CURVE SMOOTH",
"171 525 OFFCURVE",
"223 514 OFFCURVE",
"260 472 CURVE",
"181 436 LINE SMOOTH",
"173 433 OFFCURVE",
"167 429 OFFCURVE",
"167 421 CURVE SMOOTH",
"167 410 OFFCURVE",
"176 398 OFFCURVE",
"188 398 CURVE SMOOTH",
"190 398 OFFCURVE",
"193 399 OFFCURVE",
"196 400 CURVE SMOOTH",
"283 439 LINE",
"297 413 OFFCURVE",
"306 377 OFFCURVE"
);
}
);
width = 354;
}
);
unicode = 00F0;
},
{
glyphname = e;
lastChange = "2016-06-28 15:02:07 +0000";
layers = (
{
anchors = (
{
name = ogonek;
position = "{208, 0}";
},
{
name = top;
position = "{202, 333}";
}
);
layerId = "DE4BB00D-BABA-4D36-9D9A-44FD0E91C3DF";
paths = (
{
closed = 1;
nodes = (
"77 148 CURVE",
"77 208 OFFCURVE",
"125 289 OFFCURVE",
"186 289 CURVE SMOOTH",
"205 289 OFFCURVE",
"225 276 OFFCURVE",
"225 248 CURVE SMOOTH",
"225 193 OFFCURVE",
"131 152 OFFCURVE"
);
},
{
closed = 1;
nodes = (
"25 132 CURVE SMOOTH",
"25 49 OFFCURVE",
"82 -6 OFFCURVE",
"158 -6 CURVE SMOOTH",
"244 -6 OFFCURVE",
"324 51 OFFCURVE",
"354 91 CURVE SMOOTH",
"357 95 OFFCURVE",
"358 99 OFFCURVE",
"358 103 CURVE SMOOTH",
"358 114 OFFCURVE",
"349 122 OFFCURVE",
"342 122 CURVE SMOOTH",
"340 122 OFFCURVE",
"339 122 OFFCURVE",
"338 121 CURVE SMOOTH",
"282 66 OFFCURVE",
"218 36 OFFCURVE",
"167 36 CURVE SMOOTH",
"121 36 OFFCURVE",
"86 60 OFFCURVE",
"78 109 CURVE",
"196 125 OFFCURVE",
"270 184 OFFCURVE",
"270 255 CURVE SMOOTH",
"270 302 OFFCURVE",
"229 331 OFFCURVE",
"182 331 CURVE SMOOTH",
"92 331 OFFCURVE",
"25 239 OFFCURVE"
);
}
);
width = 263;
}
);
unicode = 0065;
userData = {
com.typemytype.robofont.layerData = {
};
};
},
{
glyphname = f;
lastChange = "2016-06-28 15:02:07 +0000";
layers = (
{
anchors = (
{
name = top;
position = "{302, 658}";
}
);
layerId = "DE4BB00D-BABA-4D36-9D9A-44FD0E91C3DF";
paths = (
{
closed = 1;
nodes = (
"93 222 CURVE",
"109 302 OFFCURVE",
"187 613 OFFCURVE",
"275 613 CURVE SMOOTH",
"298 613 OFFCURVE",
"303 588 OFFCURVE",
"303 568 CURVE SMOOTH",
"303 473 OFFCURVE",
"174 321 OFFCURVE"
);
},
{
closed = 1;
nodes = (
"109 -164 CURVE SMOOTH",
"79 -164 OFFCURVE",
"78 -91 OFFCURVE",
"78 -37 CURVE SMOOTH",
"78 -26 LINE SMOOTH",
"78 54 OFFCURVE",
"82 105 OFFCURVE",
"91 186 CURVE",
"123 138 OFFCURVE",
"167 69 OFFCURVE",
"167 -17 CURVE SMOOTH",
"167 -85 OFFCURVE",
"149 -164 OFFCURVE"
);
},
{
closed = 1;
nodes = (
"28 -13 CURVE SMOOTH",
"28 -97 OFFCURVE",
"37 -209 OFFCURVE",
"110 -209 CURVE SMOOTH",
"182 -209 OFFCURVE",
"212 -111 OFFCURVE",
"212 -10 CURVE SMOOTH",
"212 58 OFFCURVE",
"177 131 OFFCURVE",
"149 166 CURVE",
"164 162 OFFCURVE",
"181 160 OFFCURVE",
"198 160 CURVE SMOOTH",
"263 160 OFFCURVE",
"329 191 OFFCURVE",
"334 236 CURVE SMOOTH",
"335 244 OFFCURVE",
"335 250 OFFCURVE",
"330 250 CURVE SMOOTH",
"326 250 OFFCURVE",
"314 250 OFFCURVE",
"300 235 CURVE SMOOTH",
"277 213 OFFCURVE",
"248 190 OFFCURVE",
"198 190 CURVE SMOOTH",
"181 190 OFFCURVE",
"141 199 OFFCURVE",
"129 210 CURVE",
"246 335 OFFCURVE",
"352 462 OFFCURVE",
"352 576 CURVE SMOOTH",
"352 623 OFFCURVE",
"329 658 OFFCURVE",
"291 658 CURVE SMOOTH",
"111 658 OFFCURVE",
"28 176 OFFCURVE"
);
}
);
width = 241;
}
);
unicode = 0066;
userData = {
com.typemytype.robofont.layerData = {
};
};
},
{
glyphname = g;
lastChange = "2016-06-28 15:02:07 +0000";
layers = (
{
anchors = (
{
name = top;
position = "{242, 333}";
}
);
layerId = "DE4BB00D-BABA-4D36-9D9A-44FD0E91C3DF";
paths = (
{
closed = 1;
nodes = (
"46 -277 CURVE SMOOTH",
"28 -277 OFFCURVE",
"22 -260 OFFCURVE",
"22 -249 CURVE SMOOTH",
"22 -192 OFFCURVE",
"118 -110 OFFCURVE",
"188 -52 CURVE",
"168 -138 OFFCURVE",
"136 -277 OFFCURVE"
);
},
{
closed = 1;
nodes = (
"128 54 CURVE SMOOTH",
"92 54 OFFCURVE",
"83 86 OFFCURVE",
"83 109 CURVE SMOOTH",
"83 193 OFFCURVE",
"145 283 OFFCURVE",
"236 283 CURVE SMOOTH",
"241 283 OFFCURVE",
"245 282 OFFCURVE",
"250 282 CURVE",
"216 158 LINE SMOOTH",
"207 125 OFFCURVE",
"185 54 OFFCURVE"
);
},
{
closed = 1;
nodes = (
"30 95 CURVE SMOOTH",
"30 44 OFFCURVE",
"70 9 OFFCURVE",
"117 9 CURVE SMOOTH",
"155 9 OFFCURVE",
"193 31 OFFCURVE",
"215 72 CURVE",
"196 -2 LINE",
"156 -33 OFFCURVE",
"102 -74 OFFCURVE",
"57 -118 CURVE SMOOTH",
"13 -162 OFFCURVE",
"-21 -209 OFFCURVE",
"-21 -251 CURVE SMOOTH",
"-21 -292 OFFCURVE",
"-3 -321 OFFCURVE",
"43 -321 CURVE SMOOTH",
"103 -321 OFFCURVE",
"146 -290 OFFCURVE",
"178 -236 CURVE SMOOTH",
"210 -183 OFFCURVE",
"231 -107 OFFCURVE",
"248 -20 CURVE",
"320 30 OFFCURVE",
"353 57 OFFCURVE",
"400 81 CURVE SMOOTH",
"412 89 OFFCURVE",
"416 98 OFFCURVE",
"416 105 CURVE SMOOTH",
"416 116 OFFCURVE",
"407 124 OFFCURVE",
"395 124 CURVE SMOOTH",
"393 124 OFFCURVE",
"391 123 OFFCURVE",
"389 123 CURVE SMOOTH",
"339 99 OFFCURVE",
"304 66 OFFCURVE",
"250 25 CURVE",
"309 282 LINE SMOOTH",
"311 295 OFFCURVE",
"298 304 OFFCURVE",
"283 304 CURVE SMOOTH",
"278 304 OFFCURVE",
"273 303 OFFCURVE",
"269 301 CURVE SMOOTH",
"269 301 OFFCURVE",
"270 303 OFFCURVE",
"270 306 CURVE SMOOTH",
"270 314 OFFCURVE",
"261 325 OFFCURVE",
"223 325 CURVE SMOOTH",
"122 325 OFFCURVE",
"30 213 OFFCURVE"
);
}
);
width = 342;
}
);
unicode = 0067;
userData = {
com.typemytype.robofont.layerData = {
};
};
},
{
glyphname = h;
lastChange = "2016-06-28 15:02:07 +0000";
layers = (
{
anchors = (
{
name = mid;
position = "{123, 456}";
},
{
name = top;
position = "{270, 602}";
}
);
layerId = "DE4BB00D-BABA-4D36-9D9A-44FD0E91C3DF";
paths = (
{
closed = 1;
nodes = (
"263 602 CURVE SMOOTH",
"286 602 OFFCURVE",
"294 587 OFFCURVE",
"294 567 CURVE SMOOTH",
"294 506 OFFCURVE",
"190 349 OFFCURVE",
"101 265 CURVE",
"115 424 OFFCURVE",
"202 602 OFFCURVE"
);
},
{
closed = 1;
nodes = (
"42 71 LINE SMOOTH",
"42 32 OFFCURVE",
"43 -3 OFFCURVE",
"76 -3 CURVE SMOOTH",
"96 -3 OFFCURVE",
"108 14 OFFCURVE",
"117 32 CURVE SMOOTH",
"154 112 OFFCURVE",
"202 176 OFFCURVE",
"238 209 CURVE SMOOTH",
"274 243 OFFCURVE",
"290 257 OFFCURVE",
"296 257 CURVE SMOOTH",
"298 257 OFFCURVE",
"299 256 OFFCURVE",
"299 254 CURVE SMOOTH",
"299 237 OFFCURVE",
"244 146 OFFCURVE",
"244 63 CURVE SMOOTH",
"244 27 OFFCURVE",
"262 0 OFFCURVE",
"301 0 CURVE SMOOTH",
"303 0 LINE SMOOTH",
"365 0 OFFCURVE",
"418 42 OFFCURVE",
"455 70 CURVE SMOOTH",
"467 79 OFFCURVE",
"471 88 OFFCURVE",
"471 98 CURVE SMOOTH",
"471 113 OFFCURVE",
"459 126 OFFCURVE",
"454 126 CURVE SMOOTH",
"448 126 OFFCURVE",
"444 122 OFFCURVE",
"437 115 CURVE SMOOTH",
"422 100 OFFCURVE",
"369 46 OFFCURVE",
"323 46 CURVE SMOOTH",
"308 46 OFFCURVE",
"300 54 OFFCURVE",
"300 71 CURVE SMOOTH",
"300 123 OFFCURVE",
"342 228 OFFCURVE",
"359 267 CURVE SMOOTH",
"361 273 OFFCURVE",
"362 279 OFFCURVE",
"362 285 CURVE SMOOTH",
"362 307 OFFCURVE",
"347 326 OFFCURVE",
"323 326 CURVE SMOOTH",
"293 326 OFFCURVE",
"180 251 OFFCURVE",
"91 72 CURVE",
"98 212 LINE",
"286 376 OFFCURVE",
"345 503 OFFCURVE",
"349 580 CURVE SMOOTH",
"349 625 OFFCURVE",
"322 656 OFFCURVE",
"275 656 CURVE SMOOTH",
"111 656 OFFCURVE",
"42 308 OFFCURVE",
"42 114 CURVE SMOOTH",
"42 106 LINE SMOOTH"
);
}
);
width = 381;
}
);
unicode = 0068;
},
{
glyphname = i;
lastChange = "2016-06-28 15:02:07 +0000";
layers = (
{
anchors = (
{
name = ogonek;
position = "{0, 0}";
}
);
layerId = "DE4BB00D-BABA-4D36-9D9A-44FD0E91C3DF";
paths = (
{
closed = 1;
nodes = (
"191 412 CURVE SMOOTH",
"218 412 OFFCURVE",
"235 430 OFFCURVE",
"235 454 CURVE SMOOTH",
"235 472 OFFCURVE",
"221 485 OFFCURVE",
"198 485 CURVE SMOOTH",
"171 485 OFFCURVE",
"151 470 OFFCURVE",
"151 446 CURVE SMOOTH",
"151 423 OFFCURVE",
"166 412 OFFCURVE"
);
},
{
closed = 1;
nodes = (
"38 88 CURVE SMOOTH",
"38 37 OFFCURVE",
"72 -1 OFFCURVE",
"125 -1 CURVE SMOOTH",
"171 -1 OFFCURVE",
"222 27 OFFCURVE",
"269 83 CURVE SMOOTH",
"275 92 OFFCURVE",
"276 96 OFFCURVE",
"277 101 CURVE SMOOTH",
"277 111 OFFCURVE",
"267 120 OFFCURVE",
"255 120 CURVE SMOOTH",
"251 119 OFFCURVE",
"248 116 OFFCURVE",
"245 113 CURVE SMOOTH",
"202 65 OFFCURVE",
"162 42 OFFCURVE",
"133 42 CURVE SMOOTH",
"107 42 OFFCURVE",
"91 60 OFFCURVE",
"91 94 CURVE SMOOTH",
"91 147 OFFCURVE",
"131 248 OFFCURVE",
"157 297 CURVE SMOOTH",
"159 301 OFFCURVE",
"161 305 OFFCURVE",
"161 309 CURVE SMOOTH",
"161 319 OFFCURVE",
"148 327 OFFCURVE",
"132 327 CURVE SMOOTH",
"119 327 OFFCURVE",
"113 319 OFFCURVE",
"103 301 CURVE SMOOTH",
"76 250 OFFCURVE",
"38 147 OFFCURVE"
);
}
);
width = 205;
}
);
unicode = 0069;
userData = {
com.typemytype.robofont.layerData = {
};
};
},
{
glyphname = dotlessi;
lastChange = "2016-06-28 15:02:07 +0000";
layers = (
{
anchors = (
{
name = top;
position = "{172, 333}";
}
);
layerId = "DE4BB00D-BABA-4D36-9D9A-44FD0E91C3DF";
paths = (
{
closed = 1;
nodes = (
"48 88 CURVE SMOOTH",
"48 37 OFFCURVE",
"83 -1 OFFCURVE",
"136 -1 CURVE SMOOTH",
"182 -1 OFFCURVE",
"236 27 OFFCURVE",
"283 83 CURVE SMOOTH",
"290 92 OFFCURVE",
"291 96 OFFCURVE",
"292 101 CURVE SMOOTH",
"292 111 OFFCURVE",
"282 120 OFFCURVE",
"270 120 CURVE SMOOTH",
"266 119 OFFCURVE",
"262 116 OFFCURVE",
"260 113 CURVE SMOOTH",
"218 65 OFFCURVE",
"178 42 OFFCURVE",
"149 42 CURVE SMOOTH",
"122 42 OFFCURVE",
"105 62 OFFCURVE",
"105 100 CURVE SMOOTH",
"105 150 OFFCURVE",
"147 259 OFFCURVE",
"172 308 CURVE SMOOTH",
"173 310 OFFCURVE",
"174 311 OFFCURVE",
"174 313 CURVE SMOOTH",
"174 321 OFFCURVE",
"163 326 OFFCURVE",
"152 326 CURVE SMOOTH",
"132 326 OFFCURVE",
"122 323 OFFCURVE",
"110 301 CURVE SMOOTH",
"83 250 OFFCURVE",
"48 147 OFFCURVE"
);
}
);
width = 183;
}
);
unicode = 0131;
userData = {
com.typemytype.robofont.layerData = {
};
};
},
{
glyphname = j;
lastChange = "2016-06-28 15:02:07 +0000";
layers = (
{
layerId = "DE4BB00D-BABA-4D36-9D9A-44FD0E91C3DF";
paths = (
{
closed = 1;
nodes = (
"192 404 CURVE SMOOTH",
"224 404 OFFCURVE",
"245 422 OFFCURVE",
"245 455 CURVE SMOOTH",
"245 481 OFFCURVE",
"228 493 OFFCURVE",
"200 493 CURVE SMOOTH",
"167 493 OFFCURVE",
"144 475 OFFCURVE",
"144 446 CURVE SMOOTH",
"144 417 OFFCURVE",
"160 404 OFFCURVE"
);
},
{
closed = 1;
nodes = (
"95 -166 CURVE SMOOTH",
"74 -166 OFFCURVE",
"65 -135 OFFCURVE",
"65 -76 CURVE SMOOTH",
"65 12 OFFCURVE",
"96 119 OFFCURVE",
"109 155 CURVE",
"150 113 OFFCURVE",
"154 60 OFFCURVE",
"154 -7 CURVE SMOOTH",
"154 -92 OFFCURVE",
"130 -166 OFFCURVE"
);
},
{
closed = 1;
nodes = (
"19 -56 CURVE SMOOTH",
"19 -135 OFFCURVE",
"32 -209 OFFCURVE",
"91 -209 CURVE SMOOTH",
"161 -209 OFFCURVE",
"198 -111 OFFCURVE",
"199 -19 CURVE SMOOTH",
"199 41 OFFCURVE",
"189 105 OFFCURVE",
"165 135 CURVE",
"241 141 OFFCURVE",
"314 149 OFFCURVE",
"314 205 CURVE SMOOTH",
"314 213 OFFCURVE",
"313 216 OFFCURVE",
"306 212 CURVE SMOOTH",
"268 195 OFFCURVE",
"219 173 OFFCURVE",
"115 173 CURVE",
"151 254 LINE SMOOTH",
"154 261 OFFCURVE",
"172 296 OFFCURVE",
"172 315 CURVE SMOOTH",
"172 322 OFFCURVE",
"169 327 OFFCURVE",
"162 327 CURVE SMOOTH",
"139 327 OFFCURVE",
"127 316 OFFCURVE",
"114 285 CURVE SMOOTH",
"81 208 OFFCURVE",
"29 93 OFFCURVE",
"21 -1 CURVE SMOOTH",
"20 -19 OFFCURVE",
"19 -38 OFFCURVE"
);
}
);
width = 228;
}
);
unicode = 006A;
},
{
glyphname = dotlessj;
lastChange = "2016-06-28 15:02:07 +0000";
layers = (
{
anchors = (
{
name = top;
position = "{166, 333}";
}
);
layerId = "DE4BB00D-BABA-4D36-9D9A-44FD0E91C3DF";
paths = (
{
closed = 1;
nodes = (
"95 -166 CURVE SMOOTH",
"74 -166 OFFCURVE",
"65 -135 OFFCURVE",
"65 -76 CURVE SMOOTH",
"65 12 OFFCURVE",
"96 119 OFFCURVE",
"109 155 CURVE",
"150 113 OFFCURVE",
"154 60 OFFCURVE",
"154 -7 CURVE SMOOTH",
"154 -92 OFFCURVE",
"130 -166 OFFCURVE"
);
},
{
closed = 1;
nodes = (
"19 -56 CURVE SMOOTH",
"19 -135 OFFCURVE",
"32 -209 OFFCURVE",
"91 -209 CURVE SMOOTH",
"161 -209 OFFCURVE",
"198 -111 OFFCURVE",
"199 -19 CURVE SMOOTH",
"199 41 OFFCURVE",
"189 105 OFFCURVE",
"165 135 CURVE",
"241 141 OFFCURVE",
"314 149 OFFCURVE",
"314 205 CURVE SMOOTH",
"314 213 OFFCURVE",
"313 216 OFFCURVE",
"306 212 CURVE SMOOTH",
"268 195 OFFCURVE",
"219 173 OFFCURVE",
"115 173 CURVE",
"151 254 LINE SMOOTH",
"154 261 OFFCURVE",
"172 296 OFFCURVE",
"172 315 CURVE SMOOTH",
"172 322 OFFCURVE",
"169 327 OFFCURVE",
"162 327 CURVE SMOOTH",
"139 327 OFFCURVE",
"127 316 OFFCURVE",
"114 285 CURVE SMOOTH",
"81 208 OFFCURVE",
"29 93 OFFCURVE",
"21 -1 CURVE SMOOTH",
"20 -19 OFFCURVE",
"19 -38 OFFCURVE"
);
}
);
width = 228;
}
);
unicode = 0237;
},
{
glyphname = k;
lastChange = "2016-06-28 15:02:07 +0000";
layers = (
{
anchors = (
{
name = bot;
position = "{204, 0}";
}
);
layerId = "DE4BB00D-BABA-4D36-9D9A-44FD0E91C3DF";
paths = (
{
closed = 1;
nodes = (
"110 259 CURVE",
"137 404 OFFCURVE",
"205 589 OFFCURVE",
"270 591 CURVE SMOOTH",
"289 591 OFFCURVE",
"297 579 OFFCURVE",
"297 560 CURVE SMOOTH",
"297 484 OFFCURVE",
"163 293 OFFCURVE"
);
},
{
closed = 1;
nodes = (
"408 254 CURVE SMOOTH",
"408 301 OFFCURVE",
"380 329 OFFCURVE",
"337 329 CURVE SMOOTH",
"285 329 OFFCURVE",
"244 310 OFFCURVE",
"96 74 CURVE",
"96 107 OFFCURVE",
"100 162 OFFCURVE",
"106 209 CURVE",
"192 275 OFFCURVE",
"347 433 OFFCURVE",
"347 570 CURVE SMOOTH",
"347 607 OFFCURVE",
"324 645 OFFCURVE",
"288 645 CURVE SMOOTH",
"174 645 OFFCURVE",
"66 420 OFFCURVE",
"50 112 CURVE",
"50 8 OFFCURVE",
"63 -3 OFFCURVE",
"77 -3 CURVE SMOOTH",
"125 -3 OFFCURVE",
"242 273 OFFCURVE",
"321 280 CURVE SMOOTH",
"324 280 LINE SMOOTH",
"351 280 OFFCURVE",
"356 257 OFFCURVE",
"356 243 CURVE SMOOTH",
"356 199 OFFCURVE",
"224 138 OFFCURVE",
"224 61 CURVE SMOOTH",
"224 6 OFFCURVE",
"265 -3 OFFCURVE",
"298 -3 CURVE SMOOTH",
"354 -3 OFFCURVE",
"431 36 OFFCURVE",
"487 120 CURVE SMOOTH",
"491 125 OFFCURVE",
"492 131 OFFCURVE",
"492 137 CURVE SMOOTH",
"492 149 OFFCURVE",
"485 161 OFFCURVE",
"474 161 CURVE",
"474 161 OFFCURVE",
"395 42 OFFCURVE",
"309 42 CURVE SMOOTH",
"292 42 OFFCURVE",
"279 53 OFFCURVE",
"280 71 CURVE SMOOTH",
"287 130 OFFCURVE",
"408 164 OFFCURVE"
);
}
);
width = 419;
}
);
unicode = 006B;
},
{
glyphname = kgreenlandic;
lastChange = "2016-06-28 15:02:07 +0000";
layers = (
{
layerId = "DE4BB00D-BABA-4D36-9D9A-44FD0E91C3DF";
paths = (
{
closed = 1;
nodes = (
"186 374 CURVE SMOOTH",
"193 374 OFFCURVE",
"197 372 OFFCURVE",
"197 366 CURVE SMOOTH",
"197 343 OFFCURVE",
"136 279 OFFCURVE",
"110 259 CURVE",
"120 315 OFFCURVE",
"149 374 OFFCURVE"
);
},
{
closed = 1;
nodes = (
"408 254 CURVE SMOOTH",
"408 301 OFFCURVE",
"380 329 OFFCURVE",
"337 329 CURVE SMOOTH",
"285 329 OFFCURVE",
"244 310 OFFCURVE",
"96 74 CURVE",
"96 107 OFFCURVE",
"100 162 OFFCURVE",
"106 209 CURVE",
"196 278 OFFCURVE",
"248 343 OFFCURVE",
"248 381 CURVE SMOOTH",
"248 404 OFFCURVE",
"230 417 OFFCURVE",
"191 417 CURVE SMOOTH",
"77 417 OFFCURVE",
"66 249 OFFCURVE",
"50 112 CURVE",
"50 8 OFFCURVE",
"63 -3 OFFCURVE",
"77 -3 CURVE SMOOTH",
"125 -3 OFFCURVE",
"242 273 OFFCURVE",
"321 280 CURVE SMOOTH",
"324 280 LINE SMOOTH",
"351 280 OFFCURVE",
"356 257 OFFCURVE",
"356 243 CURVE SMOOTH",
"356 199 OFFCURVE",
"224 138 OFFCURVE",
"224 61 CURVE SMOOTH",
"224 6 OFFCURVE",
"265 -3 OFFCURVE",
"298 -3 CURVE SMOOTH",
"354 -3 OFFCURVE",
"431 36 OFFCURVE",
"487 120 CURVE SMOOTH",
"491 125 OFFCURVE",
"492 131 OFFCURVE",
"492 137 CURVE SMOOTH",
"492 149 OFFCURVE",
"485 161 OFFCURVE",
"474 161 CURVE",
"474 161 OFFCURVE",
"395 42 OFFCURVE",
"309 42 CURVE SMOOTH",
"292 42 OFFCURVE",
"279 53 OFFCURVE",
"280 71 CURVE SMOOTH",
"287 130 OFFCURVE",
"408 164 OFFCURVE"
);
}
);
width = 419;
}
);
unicode = 0138;
},
{
glyphname = l;
lastChange = "2016-06-28 15:02:07 +0000";
layers = (
{
anchors = (
{
name = caron.alt;
position = "{402, 391}";
},
{
name = mid;
position = "{362, 335}";
}
);
layerId = "DE4BB00D-BABA-4D36-9D9A-44FD0E91C3DF";
paths = (
{
closed = 1;
nodes = (
"110 270 CURVE",
"124 358 OFFCURVE",
"199 600 OFFCURVE",
"272 600 CURVE SMOOTH",
"291 600 OFFCURVE",
"299 588 OFFCURVE",
"299 569 CURVE SMOOTH",
"299 475 OFFCURVE",
"178 339 OFFCURVE"
);
},
{
closed = 1;
nodes = (
"140 0 CURVE SMOOTH",
"193 0 OFFCURVE",
"245 26 OFFCURVE",
"298 85 CURVE SMOOTH",
"304 92 OFFCURVE",
"307 99 OFFCURVE",
"307 105 CURVE SMOOTH",
"307 117 OFFCURVE",
"297 124 OFFCURVE",
"288 124 CURVE SMOOTH",
"284 124 OFFCURVE",
"281 123 OFFCURVE",
"278 120 CURVE SMOOTH",
"244 80 OFFCURVE",
"196 42 OFFCURVE",
"157 42 CURVE SMOOTH",
"113 42 OFFCURVE",
"99 77 OFFCURVE",
"99 133 CURVE SMOOTH",
"99 159 OFFCURVE",
"102 190 OFFCURVE",
"107 223 CURVE",
"210 302 OFFCURVE",
"349 460 OFFCURVE",
"349 585 CURVE SMOOTH",
"349 623 OFFCURVE",
"328 657 OFFCURVE",
"289 657 CURVE SMOOTH",
"154 657 OFFCURVE",
"62 350 OFFCURVE",
"48 179 CURVE SMOOTH",
"47 165 OFFCURVE",
"46 152 OFFCURVE",
"46 139 CURVE SMOOTH",
"46 50 OFFCURVE",
"73 0 OFFCURVE"
);
}
);
width = 226;
}
);
unicode = 006C;
},
{
glyphname = lslash;
lastChange = "2016-06-28 15:02:07 +0000";
layers = (
{
components = (
{
name = l;
}
);
layerId = "DE4BB00D-BABA-4D36-9D9A-44FD0E91C3DF";
paths = (
{
closed = 1;
nodes = (
"172 161 LINE SMOOTH",
"181 165 OFFCURVE",
"185 170 OFFCURVE",
"185 179 CURVE SMOOTH",
"185 189 OFFCURVE",
"178 197 OFFCURVE",
"167 197 CURVE SMOOTH",
"164 197 OFFCURVE",
"160 197 OFFCURVE",
"157 195 CURVE SMOOTH",
"-2 116 LINE SMOOTH",
"-10 112 OFFCURVE",
"-14 105 OFFCURVE",
"-14 99 CURVE SMOOTH",
"-14 89 OFFCURVE",
"-6 81 OFFCURVE",
"4 81 CURVE SMOOTH",
"5 81 OFFCURVE",
"9 81 OFFCURVE",
"14 83 CURVE SMOOTH"
);
}
);
width = 226;
}
);
unicode = 0142;
},
{
glyphname = m;
lastChange = "2016-06-28 15:02:07 +0000";
layers = (
{
anchors = (
{
name = top;
position = "{332, 333}";
}
);
layerId = "DE4BB00D-BABA-4D36-9D9A-44FD0E91C3DF";
paths = (
{
closed = 1;
nodes = (
"371 59 CURVE SMOOTH",
"371 15 OFFCURVE",
"401 -3 OFFCURVE",
"435 -3 CURVE SMOOTH",
"477 -3 OFFCURVE",
"530 26 OFFCURVE",
"578 90 CURVE SMOOTH",
"580 92 OFFCURVE",
"581 95 OFFCURVE",
"581 97 CURVE SMOOTH",
"581 106 OFFCURVE",
"568 116 OFFCURVE",
"559 116 CURVE SMOOTH",
"556 116 OFFCURVE",
"555 115 OFFCURVE",
"553 113 CURVE SMOOTH",
"529 86 OFFCURVE",
"482 41 OFFCURVE",
"444 41 CURVE SMOOTH",
"442 41 LINE SMOOTH",
"426 41 OFFCURVE",
"420 53 OFFCURVE",
"420 70 CURVE SMOOTH",
"420 122 OFFCURVE",
"474 228 OFFCURVE",
"474 283 CURVE SMOOTH",
"474 307 OFFCURVE",
"461 322 OFFCURVE",
"440 322 CURVE SMOOTH",
"396 322 OFFCURVE",
"320 257 OFFCURVE",
"260 82 CURVE",
"279 168 OFFCURVE",
"301 239 OFFCURVE",
"301 280 CURVE SMOOTH",
"301 302 OFFCURVE",
"294 317 OFFCURVE",
"273 317 CURVE SMOOTH",
"235 317 OFFCURVE",
"162 253 OFFCURVE",
"87 65 CURVE",
"112 199 OFFCURVE",
"128 272 OFFCURVE",
"137 303 CURVE SMOOTH",
"138 307 OFFCURVE",
"139 310 OFFCURVE",
"139 313 CURVE SMOOTH",
"139 325 OFFCURVE",
"130 329 OFFCURVE",
"124 330 CURVE SMOOTH",
"112 330 OFFCURVE",
"97 323 OFFCURVE",
"86 284 CURVE SMOOTH",
"76 249 OFFCURVE",
"59 183 OFFCURVE",
"42 55 CURVE SMOOTH",
"41 48 OFFCURVE",
"41 42 OFFCURVE",
"41 36 CURVE SMOOTH",
"41 14 OFFCURVE",
"47 -3 OFFCURVE",
"67 -3 CURVE SMOOTH",
"94 -3 OFFCURVE",
"98 2 OFFCURVE",
"124 63 CURVE SMOOTH",
"158 148 OFFCURVE",
"231 263 OFFCURVE",
"249 263 CURVE SMOOTH",
"252 263 OFFCURVE",
"252 261 OFFCURVE",
"252 257 CURVE SMOOTH",
"252 230 OFFCURVE",
"218 95 OFFCURVE",
"214 32 CURVE SMOOTH",
"214 27 LINE SMOOTH",
"214 2 OFFCURVE",
"232 3 OFFCURVE",
"237 -3 CURVE",
"246 -3 OFFCURVE",
"261 -2 OFFCURVE",
"277 40 CURVE SMOOTH",
"311 124 OFFCURVE",
"389 262 OFFCURVE",
"412 262 CURVE SMOOTH",
"417 262 OFFCURVE",
"419 256 OFFCURVE",
"419 251 CURVE SMOOTH",
"419 219 OFFCURVE",
"371 127 OFFCURVE"
);
}
);
width = 487;
}
);
unicode = 006D;
userData = {
com.typemytype.robofont.layerData = {
};
};
},
{
glyphname = n;
lastChange = "2016-06-28 15:02:07 +0000";
layers = (
{
anchors = (
{
name = bot;
position = "{184, 0}";
},
{
name = top;
position = "{252, 333}";
}
);
layerId = "DE4BB00D-BABA-4D36-9D9A-44FD0E91C3DF";
paths = (
{
closed = 1;
nodes = (
"232 59 CURVE SMOOTH",
"232 18 OFFCURVE",
"261 -4 OFFCURVE",
"302 -4 CURVE SMOOTH",
"340 -4 OFFCURVE",
"403 19 OFFCURVE",
"451 102 CURVE SMOOTH",
"452 104 OFFCURVE",
"452 105 OFFCURVE",
"452 107 CURVE SMOOTH",
"452 117 OFFCURVE",
"440 130 OFFCURVE",
"428 130 CURVE SMOOTH",
"423 130 OFFCURVE",
"418 127 OFFCURVE",
"414 121 CURVE SMOOTH",
"378 61 OFFCURVE",
"345 42 OFFCURVE",
"320 40 CURVE SMOOTH",
"312 40 LINE SMOOTH",
"293 40 OFFCURVE",
"284 49 OFFCURVE",
"284 64 CURVE SMOOTH",
"284 66 OFFCURVE",
"285 68 OFFCURVE",
"285 71 CURVE SMOOTH",
"292 130 OFFCURVE",
"323 222 OFFCURVE",
"346 289 CURVE SMOOTH",
"347 291 OFFCURVE",
"347 294 OFFCURVE",
"347 296 CURVE SMOOTH",
"347 311 OFFCURVE",
"333 328 OFFCURVE",
"304 328 CURVE SMOOTH",
"267 328 OFFCURVE",
"166 262 OFFCURVE",
"91 74 CURVE",
"94 147 OFFCURVE",
"125 266 OFFCURVE",
"141 305 CURVE SMOOTH",
"141 306 OFFCURVE",
"142 307 OFFCURVE",
"142 308 CURVE SMOOTH",
"142 316 OFFCURVE",
"129 326 OFFCURVE",
"116 326 CURVE SMOOTH",
"99 326 OFFCURVE",
"95 315 OFFCURVE",
"87 298 CURVE SMOOTH",
"60 235 OFFCURVE",
"43 131 OFFCURVE",
"43 63 CURVE SMOOTH",
"43 46 LINE SMOOTH",
"43 19 OFFCURVE",
"46 0 OFFCURVE",
"68 0 CURVE SMOOTH",
"94 0 OFFCURVE",
"103 2 OFFCURVE",
"116 32 CURVE SMOOTH",
"170 190 OFFCURVE",
"265 269 OFFCURVE",
"281 269 CURVE SMOOTH",
"283 269 OFFCURVE",
"284 267 OFFCURVE",
"284 264 CURVE SMOOTH",
"284 239 OFFCURVE",
"232 134 OFFCURVE"
);
}
);
width = 363;
}
);
unicode = 006E;
userData = {
com.typemytype.robofont.layerData = {
};
};
},
{
glyphname = eng;
lastChange = "2016-06-28 15:02:07 +0000";
layers = (
{
layerId = "DE4BB00D-BABA-4D36-9D9A-44FD0E91C3DF";
paths = (
{
closed = 1;
nodes = (
"204 -44 CURVE",
"178 -130 OFFCURVE",
"136 -271 OFFCURVE",
"46 -271 CURVE SMOOTH",
"28 -271 OFFCURVE",
"23 -253 OFFCURVE",
"23 -241 CURVE SMOOTH",
"27 -185 OFFCURVE",
"130 -103 OFFCURVE"
);
},
{
closed = 1;
nodes = (
"281 269 CURVE SMOOTH",
"284 269 OFFCURVE",
"284 266 OFFCURVE",
"284 261 CURVE SMOOTH",
"284 231 OFFCURVE",
"252 129 OFFCURVE",
"239 80 CURVE SMOOTH",
"215 5 LINE",
"172 -26 OFFCURVE",
"115 -67 OFFCURVE",
"68 -111 CURVE SMOOTH",
"18 -158 OFFCURVE",
"-20 -202 OFFCURVE",
"-20 -253 CURVE SMOOTH",
"-20 -289 OFFCURVE",
"-3 -314 OFFCURVE",
"39 -314 CURVE SMOOTH",
"99 -314 OFFCURVE",
"153 -277 OFFCURVE",
"180 -229 CURVE SMOOTH",
"210 -175 OFFCURVE",
"233 -100 OFFCURVE",
"261 -12 CURVE",
"337 38 OFFCURVE",
"376 64 OFFCURVE",
"425 88 CURVE SMOOTH",
"438 96 OFFCURVE",
"443 105 OFFCURVE",
"443 113 CURVE SMOOTH",
"443 123 OFFCURVE",
"434 131 OFFCURVE",
"423 131 CURVE SMOOTH",
"421 131 OFFCURVE",
"419 130 OFFCURVE",
"417 130 CURVE SMOOTH",
"365 106 OFFCURVE",
"328 73 OFFCURVE",
"271 32 CURVE",
"283 71 LINE SMOOTH",
"292 108 OFFCURVE",
"323 222 OFFCURVE",
"346 289 CURVE SMOOTH",
"347 291 OFFCURVE",
"347 294 OFFCURVE",
"347 296 CURVE SMOOTH",
"347 311 OFFCURVE",
"333 328 OFFCURVE",
"304 328 CURVE SMOOTH",
"267 328 OFFCURVE",
"166 265 OFFCURVE",
"91 77 CURVE",
"94 137 OFFCURVE",
"128 271 OFFCURVE",
"141 305 CURVE SMOOTH",
"141 306 OFFCURVE",
"142 307 OFFCURVE",
"142 308 CURVE SMOOTH",
"142 316 OFFCURVE",
"129 326 OFFCURVE",
"116 326 CURVE SMOOTH",
"99 326 OFFCURVE",
"95 315 OFFCURVE",
"87 298 CURVE SMOOTH",
"60 235 OFFCURVE",
"43 131 OFFCURVE",
"43 63 CURVE SMOOTH",
"43 46 LINE SMOOTH",
"43 19 OFFCURVE",
"46 0 OFFCURVE",
"68 0 CURVE SMOOTH",
"94 0 OFFCURVE",
"103 4 OFFCURVE",
"116 35 CURVE SMOOTH",
"171 189 OFFCURVE",
"265 269 OFFCURVE"
);
}
);
width = 363;
}
);
unicode = 014B;
},
{
glyphname = o;
lastChange = "2016-06-28 15:02:07 +0000";
layers = (
{
anchors = (
{
name = ogonek;
position = "{134, 12}";
},
{
name = top;
position = "{222, 333}";
}
);
layerId = "DE4BB00D-BABA-4D36-9D9A-44FD0E91C3DF";
paths = (
{
closed = 1;
nodes = (
"224 158 CURVE",
"221 108 OFFCURVE",
"187 41 OFFCURVE",
"135 41 CURVE SMOOTH",
"89 41 OFFCURVE",
"77 78 OFFCURVE",
"77 117 CURVE SMOOTH",
"77 198 OFFCURVE",
"133 286 OFFCURVE",
"195 286 CURVE SMOOTH",
"222 286 OFFCURVE",
"226 260 OFFCURVE",
"226 241 CURVE SMOOTH",
"226 231 OFFCURVE",
"225 223 OFFCURVE",
"225 223 CURVE",
"207 218 OFFCURVE",
"196 202 OFFCURVE",
"196 187 CURVE SMOOTH",
"196 173 OFFCURVE",
"205 160 OFFCURVE"
);
},
{
closed = 1;
nodes = (
"119 -3 CURVE SMOOTH",
"218 -3 OFFCURVE",
"262 97 OFFCURVE",
"271 158 CURVE",
"314 158 OFFCURVE",
"385 193 OFFCURVE",
"417 252 CURVE SMOOTH",
"419 255 OFFCURVE",
"419 257 OFFCURVE",
"419 260 CURVE SMOOTH",
"419 271 OFFCURVE",
"408 282 OFFCURVE",
"399 282 CURVE SMOOTH",
"396 282 OFFCURVE",
"392 280 OFFCURVE",
"390 277 CURVE SMOOTH",
"351 225 OFFCURVE",
"325 209 OFFCURVE",
"277 197 CURVE",
"279 209 OFFCURVE",
"279 220 OFFCURVE",
"279 230 CURVE SMOOTH",
"279 295 OFFCURVE",
"248 330 OFFCURVE",
"194 330 CURVE SMOOTH",
"104 330 OFFCURVE",
"23 217 OFFCURVE",
"23 113 CURVE SMOOTH",
"23 48 OFFCURVE",
"58 -3 OFFCURVE"
);
}
);
width = 302;
}
);
unicode = 006F;
userData = {
com.typemytype.robofont.layerData = {
};
};
},
{
glyphname = oslash;
lastChange = "2016-06-28 15:02:07 +0000";
layers = (
{
components = (
{
name = o;
}
);
layerId = "DE4BB00D-BABA-4D36-9D9A-44FD0E91C3DF";
paths = (
{
closed = 1;
nodes = (
"23 -31 CURVE SMOOTH",
"122 106 OFFCURVE",
"229 243 OFFCURVE",
"401 361 CURVE SMOOTH",
"408 366 OFFCURVE",
"411 372 OFFCURVE",
"411 378 CURVE SMOOTH",
"411 385 OFFCURVE",
"406 392 OFFCURVE",
"397 392 CURVE SMOOTH",
"392 392 OFFCURVE",
"385 389 OFFCURVE",
"377 384 CURVE SMOOTH",
"210 267 OFFCURVE",
"108 119 OFFCURVE",
"12 -14 CURVE SMOOTH",
"6 -22 OFFCURVE",
"3 -29 OFFCURVE",
"3 -33 CURVE SMOOTH",
"3 -38 OFFCURVE",
"6 -40 OFFCURVE",
"10 -40 CURVE SMOOTH",
"14 -40 OFFCURVE",
"19 -37 OFFCURVE"
);
}
);
width = 306;
}
);
unicode = 00F8;
},
{
glyphname = oe;
lastChange = "2016-06-28 15:02:07 +0000";
layers = (
{
anchors = (
{
name = ogonek;
position = "{401, 0}";
}
);
layerId = "DE4BB00D-BABA-4D36-9D9A-44FD0E91C3DF";
paths = (
{
closed = 1;
nodes = (
"270 148 CURVE",
"270 208 OFFCURVE",
"318 289 OFFCURVE",
"379 289 CURVE SMOOTH",
"397 289 OFFCURVE",
"417 276 OFFCURVE",
"417 249 CURVE SMOOTH",
"417 192 OFFCURVE",
"326 152 OFFCURVE"
);
},
{
closed = 1;
nodes = (
"161 294 CURVE SMOOTH",
"201 294 OFFCURVE",
"223 261 OFFCURVE",
"223 188 CURVE SMOOTH",
"223 131 OFFCURVE",
"215 33 OFFCURVE",
"143 33 CURVE SMOOTH",
"86 33 OFFCURVE",
"69 98 OFFCURVE",
"69 142 CURVE SMOOTH",
"69 235 OFFCURVE",
"113 294 OFFCURVE"
);
},
{
closed = 1;
nodes = (
"241 70 CURVE",
"262 22 OFFCURVE",
"297 -6 OFFCURVE",
"351 -6 CURVE SMOOTH",
"437 -6 OFFCURVE",
"517 51 OFFCURVE",
"546 91 CURVE SMOOTH",
"550 95 OFFCURVE",
"551 100 OFFCURVE",
"551 104 CURVE SMOOTH",
"551 114 OFFCURVE",
"541 122 OFFCURVE",
"535 122 CURVE SMOOTH",
"533 122 OFFCURVE",
"532 122 OFFCURVE",
"531 121 CURVE SMOOTH",
"475 66 OFFCURVE",
"411 36 OFFCURVE",
"360 36 CURVE SMOOTH",
"314 36 OFFCURVE",
"279 60 OFFCURVE",
"271 109 CURVE",
"389 125 OFFCURVE",
"462 184 OFFCURVE",
"462 255 CURVE SMOOTH",
"462 302 OFFCURVE",
"422 331 OFFCURVE",
"375 331 CURVE SMOOTH",
"324 331 OFFCURVE",
"280 300 OFFCURVE",
"252 255 CURVE",
"242 301 OFFCURVE",
"210 331 OFFCURVE",
"165 331 CURVE SMOOTH",
"85 331 OFFCURVE",
"23 247 OFFCURVE",
"23 146 CURVE SMOOTH",
"23 67 OFFCURVE",
"61 -4 OFFCURVE",
"140 -4 CURVE SMOOTH",
"190 -4 OFFCURVE",
"229 28 OFFCURVE"
);
}
);
width = 457;
}
);
unicode = 0153;
},
{
glyphname = p;
lastChange = "2016-06-28 15:02:07 +0000";
layers = (
{
anchors = (
{
name = top;
position = "{222, 333}";
}
);
layerId = "DE4BB00D-BABA-4D36-9D9A-44FD0E91C3DF";
paths = (
{
closed = 1;
nodes = (
"148 52 CURVE SMOOTH",
"129 52 OFFCURVE",
"105 55 OFFCURVE",
"78 78 CURVE",
"83 111 OFFCURVE",
"101 284 OFFCURVE",
"195 284 CURVE SMOOTH",
"219 284 OFFCURVE",
"234 261 OFFCURVE",
"241 233 CURVE",
"237 232 OFFCURVE",
"232 230 OFFCURVE",
"225 221 CURVE SMOOTH",
"217 210 OFFCURVE",
"214 198 OFFCURVE",
"214 187 CURVE SMOOTH",
"214 180 OFFCURVE",
"215 173 OFFCURVE",
"217 167 CURVE SMOOTH",
"221 153 OFFCURVE",
"227 142 OFFCURVE",
"237 134 CURVE",
"223 89 OFFCURVE",
"192 52 OFFCURVE"
);
},
{
closed = 1;
nodes = (
"294 210 CURVE SMOOTH",
"294 273 OFFCURVE",
"271 328 OFFCURVE",
"190 328 CURVE SMOOTH",
"76 328 OFFCURVE",
"40 173 OFFCURVE",
"22 86 CURVE SMOOTH",
"18 62 OFFCURVE",
"0 -63 OFFCURVE",
"-7 -152 CURVE",
"-7 -158 LINE SMOOTH",
"-7 -175 OFFCURVE",
"-6 -223 OFFCURVE",
"3 -223 CURVE SMOOTH",
"19 -223 OFFCURVE",
"51 -213 OFFCURVE",
"51 -200 CURVE SMOOTH",
"51 -186 OFFCURVE",
"50 -172 OFFCURVE",
"50 -159 CURVE SMOOTH",
"50 -78 OFFCURVE",
"58 -6 OFFCURVE",
"69 32 CURVE",
"88 13 OFFCURVE",
"125 0 OFFCURVE",
"143 0 CURVE SMOOTH",
"208 0 OFFCURVE",
"256 57 OFFCURVE",
"279 123 CURVE SMOOTH",
"280 123 OFFCURVE",
"282 123 OFFCURVE",
"283 123 CURVE SMOOTH",
"318 123 OFFCURVE",
"383 150 OFFCURVE",
"413 190 CURVE SMOOTH",
"418 198 OFFCURVE",
"423 207 OFFCURVE",
"423 218 CURVE SMOOTH",
"423 229 OFFCURVE",
"420 232 OFFCURVE",
"416 232 CURVE SMOOTH",
"410 232 OFFCURVE",
"401 224 OFFCURVE",
"394 218 CURVE SMOOTH",
"355 186 OFFCURVE",
"310 177 OFFCURVE",
"292 176 CURVE",
"293 188 OFFCURVE",
"294 199 OFFCURVE"
);
}
);
width = 319;
}
);
unicode = 0070;
userData = {
com.typemytype.robofont.layerData = {
};
};
},
{
glyphname = thorn;
lastChange = "2016-06-28 15:02:07 +0000";
layers = (
{
layerId = "DE4BB00D-BABA-4D36-9D9A-44FD0E91C3DF";
paths = (
{
closed = 1;
nodes = (
"156 44 CURVE SMOOTH",
"136 44 OFFCURVE",
"113 51 OFFCURVE",
"87 66 CURVE",
"108 189 OFFCURVE",
"139 278 OFFCURVE",
"208 278 CURVE SMOOTH",
"241 278 OFFCURVE",
"251 246 OFFCURVE",
"251 213 CURVE SMOOTH",
"251 113 OFFCURVE",
"218 44 OFFCURVE"
);
},
{
closed = 1;
nodes = (
"-10 -197 LINE SMOOTH",
"-11 -200 OFFCURVE",
"-11 -202 OFFCURVE",
"-11 -204 CURVE SMOOTH",
"-11 -220 OFFCURVE",
"1 -229 OFFCURVE",
"12 -229 CURVE SMOOTH",
"22 -229 OFFCURVE",
"33 -222 OFFCURVE",
"36 -208 CURVE SMOOTH",
"80 29 LINE",
"103 9 OFFCURVE",
"131 0 OFFCURVE",
"158 0 CURVE SMOOTH",
"193 0 OFFCURVE",
"226 15 OFFCURVE",
"245 41 CURVE",
"324 62 OFFCURVE",
"366 82 OFFCURVE",
"399 104 CURVE SMOOTH",
"403 107 OFFCURVE",
"405 111 OFFCURVE",
"405 116 CURVE SMOOTH",
"405 128 OFFCURVE",
"395 141 OFFCURVE",
"384 141 CURVE SMOOTH",
"382 141 OFFCURVE",
"380 141 OFFCURVE",
"378 140 CURVE SMOOTH",
"358 128 OFFCURVE",
"321 105 OFFCURVE",
"273 92 CURVE",
"292 120 OFFCURVE",
"304 165 OFFCURVE",
"304 224 CURVE SMOOTH",
"304 276 OFFCURVE",
"276 326 OFFCURVE",
"216 326 CURVE SMOOTH",
"195 326 OFFCURVE",
"143 311 OFFCURVE",
"112 250 CURVE",
"158 483 LINE SMOOTH",
"159 486 OFFCURVE",
"159 490 OFFCURVE",
"159 493 CURVE SMOOTH",
"159 510 OFFCURVE",
"148 519 OFFCURVE",
"138 519 CURVE SMOOTH",
"130 519 OFFCURVE",
"123 513 OFFCURVE",
"120 500 CURVE SMOOTH",
"103 429 OFFCURVE",
"82 319 OFFCURVE",
"74 274 CURVE SMOOTH"
);
}
);
width = 313;
}
);
unicode = 00FE;
},
{
glyphname = q;
lastChange = "2016-06-28 15:02:07 +0000";
layers = (
{
layerId = "DE4BB00D-BABA-4D36-9D9A-44FD0E91C3DF";
paths = (
{
closed = 1;
nodes = (
"198 45 CURVE",
"185 42 OFFCURVE",
"173 40 OFFCURVE",
"162 40 CURVE SMOOTH",
"104 40 OFFCURVE",
"78 85 OFFCURVE",
"78 136 CURVE SMOOTH",
"78 205 OFFCURVE",
"125 286 OFFCURVE",
"200 286 CURVE SMOOTH",
"224 286 OFFCURVE",
"255 277 OFFCURVE",
"255 265 CURVE SMOOTH",
"255 248 OFFCURVE",
"244 196 OFFCURVE",
"229 143 CURVE",
"211 137 OFFCURVE",
"201 120 OFFCURVE",
"201 103 CURVE SMOOTH",
"201 94 OFFCURVE",
"204 85 OFFCURVE",
"210 79 CURVE",
"206 67 OFFCURVE",
"202 55 OFFCURVE"
);
},
{
closed = 1;
nodes = (
"266 86 CURVE",
"310 91 OFFCURVE",
"390 171 OFFCURVE",
"418 228 CURVE SMOOTH",
"419 230 OFFCURVE",
"420 233 OFFCURVE",
"420 235 CURVE SMOOTH",
"420 247 OFFCURVE",
"408 258 OFFCURVE",
"398 258 CURVE SMOOTH",
"394 258 OFFCURVE",
"391 256 OFFCURVE",
"389 253 CURVE SMOOTH",
"355 203 OFFCURVE",
"325 152 OFFCURVE",
"281 138 CURVE",
"295 185 OFFCURVE",
"309 240 OFFCURVE",
"309 273 CURVE SMOOTH",
"309 295 OFFCURVE",
"255 330 OFFCURVE",
"195 330 CURVE SMOOTH",
"85 326 OFFCURVE",
"31 230 OFFCURVE",
"31 142 CURVE SMOOTH",
"31 67 OFFCURVE",
"70 -2 OFFCURVE",
"147 -2 CURVE SMOOTH",
"161 -2 OFFCURVE",
"176 0 OFFCURVE",
"192 5 CURVE",
"174 -64 OFFCURVE",
"144 -162 OFFCURVE",
"117 -242 CURVE SMOOTH",
"117 -243 OFFCURVE",
"116 -245 OFFCURVE",
"116 -246 CURVE SMOOTH",
"116 -258 OFFCURVE",
"134 -270 OFFCURVE",
"149 -270 CURVE SMOOTH",
"158 -270 OFFCURVE",
"166 -265 OFFCURVE",
"169 -254 CURVE SMOOTH",
"262 73 LINE SMOOTH",
"263 77 OFFCURVE",
"264 81 OFFCURVE"
);
}
);
width = 333;
}
);
unicode = 0071;
},
{
glyphname = r;
lastChange = "2016-06-28 15:02:07 +0000";
layers = (
{
anchors = (
{
name = top;
position = "{222, 333}";
}
);
layerId = "DE4BB00D-BABA-4D36-9D9A-44FD0E91C3DF";
paths = (
{
closed = 1;
nodes = (
"75 0 CURVE SMOOTH",
"96 0 OFFCURVE",
"97 5 OFFCURVE",
"103 19 CURVE SMOOTH",
"154 159 OFFCURVE",
"224 271 OFFCURVE",
"239 271 CURVE SMOOTH",
"241 271 OFFCURVE",
"242 269 OFFCURVE",
"242 265 CURVE SMOOTH",
"242 261 OFFCURVE",
"241 256 OFFCURVE",
"239 248 CURVE SMOOTH",
"232 227 OFFCURVE",
"228 205 OFFCURVE",
"228 185 CURVE SMOOTH",
"228 145 OFFCURVE",
"244 112 OFFCURVE",
"282 112 CURVE SMOOTH",
"320 112 OFFCURVE",
"351 142 OFFCURVE",
"368 164 CURVE SMOOTH",
"373 170 OFFCURVE",
"375 176 OFFCURVE",
"375 182 CURVE SMOOTH",
"375 191 OFFCURVE",
"371 197 OFFCURVE",
"364 197 CURVE SMOOTH",
"360 197 OFFCURVE",
"355 195 OFFCURVE",
"351 191 CURVE SMOOTH",
"326 166 OFFCURVE",
"305 154 OFFCURVE",
"291 154 CURVE SMOOTH",
"277 154 OFFCURVE",
"270 166 OFFCURVE",
"270 187 CURVE SMOOTH",
"270 196 OFFCURVE",
"271 207 OFFCURVE",
"274 219 CURVE SMOOTH",
"282 251 OFFCURVE",
"288 276 OFFCURVE",
"288 294 CURVE SMOOTH",
"288 317 OFFCURVE",
"279 329 OFFCURVE",
"254 329 CURVE SMOOTH",
"197 329 OFFCURVE",
"121 174 OFFCURVE",
"101 111 CURVE",
"107 207 OFFCURVE",
"130 273 OFFCURVE",
"139 307 CURVE SMOOTH",
"139 308 OFFCURVE",
"140 310 OFFCURVE",
"140 311 CURVE SMOOTH",
"140 321 OFFCURVE",
"131 330 OFFCURVE",
"120 330 CURVE SMOOTH",
"102 330 OFFCURVE",
"95 321 OFFCURVE",
"86 292 CURVE SMOOTH",
"68 233 OFFCURVE",
"49 131 OFFCURVE",
"48 63 CURVE SMOOTH",
"48 56 LINE SMOOTH",
"48 24 OFFCURVE",
"49 0 OFFCURVE"
);
}
);
width = 298;
}
);
unicode = 0072;
userData = {
com.typemytype.robofont.layerData = {
};
};
},
{
glyphname = s;
lastChange = "2016-06-28 15:02:07 +0000";
layers = (
{
anchors = (
{
name = bot;
position = "{146, 14}";
},
{
name = top;
position = "{252, 333}";
}
);
layerId = "DE4BB00D-BABA-4D36-9D9A-44FD0E91C3DF";
paths = (
{
closed = 1;
nodes = (
"153 37 CURVE SMOOTH",
"112 37 OFFCURVE",
"82 59 OFFCURVE",
"68 78 CURVE",
"85 110 OFFCURVE",
"141 215 OFFCURVE",
"141 215 CURVE",
"151 236 LINE",
"192 175 OFFCURVE",
"212 126 OFFCURVE",
"212 92 CURVE SMOOTH",
"212 57 OFFCURVE",
"191 37 OFFCURVE"
);
},
{
closed = 1;
nodes = (
"188 274 CURVE SMOOTH",
"188 284 OFFCURVE",
"195 294 OFFCURVE",
"195 304 CURVE SMOOTH",
"195 319 OFFCURVE",
"183 331 OFFCURVE",
"169 331 CURVE SMOOTH",
"159 331 OFFCURVE",
"147 325 OFFCURVE",
"139 309 CURVE SMOOTH",
"51 134 OFFCURVE",
"29 97 OFFCURVE",
"18 70 CURVE",
"26 41 OFFCURVE",
"78 -2 OFFCURVE",
"171 -3 CURVE SMOOTH",
"278 -3 OFFCURVE",
"338 45 OFFCURVE",
"381 95 CURVE SMOOTH",
"382 96 OFFCURVE",
"382 98 OFFCURVE",
"382 100 CURVE SMOOTH",
"382 111 OFFCURVE",
"371 130 OFFCURVE",
"363 130 CURVE SMOOTH",
"362 130 OFFCURVE",
"360 129 OFFCURVE",
"359 128 CURVE SMOOTH",
"345 111 OFFCURVE",
"306 56 OFFCURVE",
"244 43 CURVE",
"255 62 OFFCURVE",
"260 81 OFFCURVE",
"260 99 CURVE SMOOTH",
"260 171 OFFCURVE",
"188 233 OFFCURVE"
);
}
);
width = 294;
}
);
unicode = 0073;
userData = {
com.typemytype.robofont.layerData = {
};
};
},
{
glyphname = germandbls;
lastChange = "2016-06-28 15:02:07 +0000";
layers = (
{
layerId = "DE4BB00D-BABA-4D36-9D9A-44FD0E91C3DF";
paths = (
{
closed = 1;
nodes = (
"166 37 CURVE SMOOTH",
"166 15 OFFCURVE",
"182 11 OFFCURVE",
"236 11 CURVE SMOOTH",
"335 11 OFFCURVE",
"421 80 OFFCURVE",
"421 155 CURVE SMOOTH",
"421 234 OFFCURVE",
"377 277 OFFCURVE",
"281 285 CURVE",
"367 287 OFFCURVE",
"432 343 OFFCURVE",
"432 424 CURVE SMOOTH",
"432 496 OFFCURVE",
"364 536 OFFCURVE",
"285 536 CURVE SMOOTH",
"258 536 OFFCURVE",
"234 532 OFFCURVE",
"213 523 CURVE SMOOTH",
"52 458 OFFCURVE",
"32 207 OFFCURVE",
"32 -23 CURVE SMOOTH",
"32 -37 OFFCURVE",
"47 -44 OFFCURVE",
"65 -44 CURVE SMOOTH",
"87 -44 OFFCURVE",
"103 -33 OFFCURVE",
"103 -13 CURVE SMOOTH",
"103 54 LINE SMOOTH",
"103 223 OFFCURVE",
"104 490 OFFCURVE",
"286 490 CURVE SMOOTH",
"332 490 OFFCURVE",
"375 471 OFFCURVE",
"375 421 CURVE SMOOTH",
"375 349 OFFCURVE",
"284 311 OFFCURVE",
"214 311 CURVE SMOOTH",
"191 311 OFFCURVE",
"188 302 OFFCURVE",
"188 289 CURVE SMOOTH",
"188 275 OFFCURVE",
"195 269 OFFCURVE",
"206 264 CURVE SMOOTH",
"254 243 OFFCURVE",
"365 256 OFFCURVE",
"365 167 CURVE SMOOTH",
"365 103 OFFCURVE",
"296 62 OFFCURVE",
"224 62 CURVE SMOOTH",
"215 62 OFFCURVE",
"202 63 OFFCURVE",
"195 63 CURVE SMOOTH",
"173 63 OFFCURVE",
"166 58 OFFCURVE"
);
}
);
width = 438;
}
);
unicode = 00DF;
},
{
glyphname = t;
lastChange = "2016-06-28 15:02:07 +0000";
layers = (
{
anchors = (
{
name = bot;
position = "{176, 0}";
},
{
name = caron.alt;
position = "{359, 551}";
},
{
name = mid;
position = "{105, 339}";
}
);
layerId = "DE4BB00D-BABA-4D36-9D9A-44FD0E91C3DF";
paths = (
{
closed = 1;
nodes = (
"117 275 CURVE",
"128 343 OFFCURVE",
"181 564 OFFCURVE",
"254 564 CURVE SMOOTH",
"263 564 OFFCURVE",
"265 554 OFFCURVE",
"265 543 CURVE SMOOTH",
"265 536 OFFCURVE",
"264 529 OFFCURVE",
"263 524 CURVE SMOOTH",
"241 420 OFFCURVE",
"159 337 OFFCURVE"
);
},
{
closed = 1;
nodes = (
"55 149 CURVE SMOOTH",
"55 53 OFFCURVE",
"84 -14 OFFCURVE",
"168 -14 CURVE SMOOTH",
"223 -14 OFFCURVE",
"271 19 OFFCURVE",
"317 75 CURVE SMOOTH",
"323 82 OFFCURVE",
"325 88 OFFCURVE",
"325 94 CURVE SMOOTH",
"325 106 OFFCURVE",
"316 114 OFFCURVE",
"307 114 CURVE SMOOTH",
"303 114 OFFCURVE",
"299 112 OFFCURVE",
"296 109 CURVE SMOOTH",
"263 68 OFFCURVE",
"222 30 OFFCURVE",
"178 30 CURVE SMOOTH",
"123 30 OFFCURVE",
"111 84 OFFCURVE",
"111 141 CURVE SMOOTH",
"111 163 OFFCURVE",
"113 186 OFFCURVE",
"115 207 CURVE",
"163 220 OFFCURVE",
"217 233 OFFCURVE",
"251 237 CURVE SMOOTH",
"259 238 OFFCURVE",
"264 246 OFFCURVE",
"264 254 CURVE SMOOTH",
"264 263 OFFCURVE",
"259 271 OFFCURVE",
"249 271 CURVE SMOOTH",
"246 271 LINE SMOOTH",
"217 268 OFFCURVE",
"177 260 OFFCURVE",
"131 246 CURVE",
"198 319 OFFCURVE",
"301 443 OFFCURVE",
"311 553 CURVE SMOOTH",
"311 559 LINE SMOOTH",
"311 588 OFFCURVE",
"296 612 OFFCURVE",
"265 612 CURVE SMOOTH",
"264 612 LINE SMOOTH",
"145 612 OFFCURVE",
"83 372 OFFCURVE",
"60 223 CURVE",
"42 216 OFFCURVE",
"23 209 OFFCURVE",
"4 201 CURVE SMOOTH",
"-1 199 OFFCURVE",
"-3 195 OFFCURVE",
"-3 190 CURVE SMOOTH",
"-3 182 OFFCURVE",
"3 174 OFFCURVE",
"12 174 CURVE SMOOTH",
"14 174 OFFCURVE",
"16 175 OFFCURVE",
"19 176 CURVE SMOOTH",
"26 179 OFFCURVE",
"40 183 OFFCURVE",
"57 189 CURVE",
"56 175 OFFCURVE",
"55 162 OFFCURVE"
);
}
);
width = 247;
}
);
unicode = 0074;
userData = {
com.typemytype.robofont.layerData = {
};
};
},
{
glyphname = u;
lastChange = "2016-06-28 15:02:07 +0000";
layers = (
{
anchors = (
{
name = ogonek;
position = "{270, 0}";
},
{
name = top;
position = "{212, 333}";
}
);
layerId = "DE4BB00D-BABA-4D36-9D9A-44FD0E91C3DF";
paths = (
{
closed = 1;
nodes = (
"31 91 CURVE SMOOTH",
"31 31 OFFCURVE",
"62 -5 OFFCURVE",
"120 -5 CURVE SMOOTH",
"170 -5 OFFCURVE",
"202 23 OFFCURVE",
"226 66 CURVE",
"226 30 OFFCURVE",
"240 -4 OFFCURVE",
"282 -4 CURVE SMOOTH",
"333 -4 OFFCURVE",
"396 49 OFFCURVE",
"420 90 CURVE SMOOTH",
"423 94 OFFCURVE",
"424 98 OFFCURVE",
"424 102 CURVE SMOOTH",
"424 110 OFFCURVE",
"418 117 OFFCURVE",
"406 117 CURVE SMOOTH",
"400 117 OFFCURVE",
"392 115 OFFCURVE",
"383 103 CURVE SMOOTH",
"370 85 OFFCURVE",
"325 35 OFFCURVE",
"290 35 CURVE SMOOTH",
"277 35 OFFCURVE",
"266 49 OFFCURVE",
"266 81 CURVE SMOOTH",
"266 86 OFFCURVE",
"266 91 OFFCURVE",
"267 97 CURVE SMOOTH",
"275 182 OFFCURVE",
"311 272 OFFCURVE",
"319 299 CURVE SMOOTH",
"320 300 OFFCURVE",
"320 302 OFFCURVE",
"320 303 CURVE SMOOTH",
"320 312 OFFCURVE",
"309 320 OFFCURVE",
"296 320 CURVE SMOOTH",
"283 320 OFFCURVE",
"273 315 OFFCURVE",
"267 296 CURVE SMOOTH",
"225 161 LINE SMOOTH",
"196 67 OFFCURVE",
"165 38 OFFCURVE",
"126 37 CURVE SMOOTH",
"97 37 OFFCURVE",
"82 58 OFFCURVE",
"82 93 CURVE SMOOTH",
"82 103 LINE SMOOTH",
"87 189 OFFCURVE",
"106 232 OFFCURVE",
"133 300 CURVE SMOOTH",
"134 302 OFFCURVE",
"134 303 OFFCURVE",
"134 305 CURVE SMOOTH",
"134 315 OFFCURVE",
"124 322 OFFCURVE",
"111 322 CURVE SMOOTH",
"97 322 OFFCURVE",
"88 314 OFFCURVE",
"83 303 CURVE SMOOTH",
"53 237 OFFCURVE",
"39 178 OFFCURVE",
"32 111 CURVE SMOOTH",
"31 104 OFFCURVE",
"31 97 OFFCURVE"
);
}
);
width = 347;
}
);
unicode = 0075;
userData = {
com.typemytype.robofont.layerData = {
};
};
},
{
glyphname = v;
lastChange = "2016-06-28 15:02:07 +0000";
layers = (
{
layerId = "DE4BB00D-BABA-4D36-9D9A-44FD0E91C3DF";
paths = (
{
closed = 1;
nodes = (
"419 252 CURVE SMOOTH",
"421 255 OFFCURVE",
"421 257 OFFCURVE",
"421 260 CURVE SMOOTH",
"421 271 OFFCURVE",
"410 282 OFFCURVE",
"401 282 CURVE SMOOTH",
"398 282 OFFCURVE",
"394 280 OFFCURVE",
"392 277 CURVE SMOOTH",
"359 233 OFFCURVE",
"328 205 OFFCURVE",
"278 201 CURVE",
"289 229 OFFCURVE",
"299 259 OFFCURVE",
"307 292 CURVE SMOOTH",
"308 295 OFFCURVE",
"308 298 OFFCURVE",
"308 301 CURVE SMOOTH",
"308 314 OFFCURVE",
"299 322 OFFCURVE",
"287 322 CURVE SMOOTH",
"261 322 OFFCURVE",
"221 287 OFFCURVE",
"221 199 CURVE SMOOTH",
"221 193 OFFCURVE",
"222 187 OFFCURVE",
"222 181 CURVE SMOOTH",
"184 96 OFFCURVE",
"128 47 OFFCURVE",
"124 47 CURVE SMOOTH",
"112 47 OFFCURVE",
"94 84 OFFCURVE",
"94 158 CURVE SMOOTH",
"94 195 OFFCURVE",
"110 244 OFFCURVE",
"110 298 CURVE SMOOTH",
"110 311 OFFCURVE",
"99 321 OFFCURVE",
"87 321 CURVE SMOOTH",
"77 321 OFFCURVE",
"67 315 OFFCURVE",
"62 300 CURVE SMOOTH",
"46 247 OFFCURVE",
"39 198 OFFCURVE",
"39 156 CURVE SMOOTH",
"39 56 OFFCURVE",
"77 -6 OFFCURVE",
"110 -6 CURVE SMOOTH",
"115 -6 OFFCURVE",
"120 -5 OFFCURVE",
"125 -2 CURVE SMOOTH",
"175 29 OFFCURVE",
"222 85 OFFCURVE",
"259 159 CURVE SMOOTH",
"263 158 OFFCURVE",
"267 158 OFFCURVE",
"271 158 CURVE SMOOTH",
"329 158 OFFCURVE",
"392 201 OFFCURVE"
);
}
);
width = 300;
}
);
unicode = 0076;
},
{
glyphname = w;
lastChange = "2016-06-28 15:02:07 +0000";
layers = (
{
anchors = (
{
name = top;
position = "{362, 333}";
}
);
layerId = "DE4BB00D-BABA-4D36-9D9A-44FD0E91C3DF";
paths = (
{
closed = 1;
nodes = (
"582 296 CURVE SMOOTH",
"582 348 OFFCURVE",
"552 372 OFFCURVE",
"510 372 CURVE SMOOTH",
"460 372 OFFCURVE",
"435 336 OFFCURVE",
"435 297 CURVE SMOOTH",
"435 258 OFFCURVE",
"460 216 OFFCURVE",
"511 205 CURVE",
"505 192 OFFCURVE",
"498 177 OFFCURVE",
"490 161 CURVE SMOOTH",
"458 107 OFFCURVE",
"408 38 OFFCURVE",
"353 32 CURVE SMOOTH",
"349 32 LINE SMOOTH",
"325 32 OFFCURVE",
"305 56 OFFCURVE",
"305 121 CURVE SMOOTH",
"305 147 OFFCURVE",
"379 235 OFFCURVE",
"379 284 CURVE SMOOTH",
"379 304 OFFCURVE",
"367 317 OFFCURVE",
"333 317 CURVE SMOOTH",
"310 316 OFFCURVE",
"285 268 OFFCURVE",
"272 199 CURVE",
"266 181 LINE",
"234 128 OFFCURVE",
"181 38 OFFCURVE",
"126 32 CURVE SMOOTH",
"121 32 LINE SMOOTH",
"98 32 OFFCURVE",
"83 52 OFFCURVE",
"83 108 CURVE SMOOTH",
"83 225 OFFCURVE",
"147 301 OFFCURVE",
"153 310 CURVE SMOOTH",
"154 312 OFFCURVE",
"155 314 OFFCURVE",
"155 316 CURVE SMOOTH",
"155 325 OFFCURVE",
"145 335 OFFCURVE",
"132 335 CURVE SMOOTH",
"123 335 OFFCURVE",
"112 330 OFFCURVE",
"101 314 CURVE SMOOTH",
"88 296 OFFCURVE",
"33 222 OFFCURVE",
"33 112 CURVE SMOOTH",
"33 27 OFFCURVE",
"61 -18 OFFCURVE",
"117 -18 CURVE SMOOTH",
"174 -16 OFFCURVE",
"221 33 OFFCURVE",
"265 97 CURVE",
"268 23 OFFCURVE",
"290 -18 OFFCURVE",
"345 -18 CURVE SMOOTH",
"419 -15 OFFCURVE",
"473 48 OFFCURVE",
"528 139 CURVE SMOOTH",
"541 162 OFFCURVE",
"551 184 OFFCURVE",
"560 203 CURVE",
"594 208 OFFCURVE",
"635 224 OFFCURVE",
"684 256 CURVE SMOOTH",
"691 260 OFFCURVE",
"693 266 OFFCURVE",
"693 272 CURVE SMOOTH",
"693 282 OFFCURVE",
"686 291 OFFCURVE",
"677 291 CURVE SMOOTH",
"674 291 OFFCURVE",
"670 290 OFFCURVE",
"667 288 CURVE SMOOTH",
"630 262 OFFCURVE",
"599 248 OFFCURVE",
"573 241 CURVE",
"579 262 OFFCURVE",
"582 280 OFFCURVE"
);
},
{
closed = 1;
nodes = (
"523 238 CURVE",
"490 244 OFFCURVE",
"476 271 OFFCURVE",
"476 294 CURVE SMOOTH",
"476 317 OFFCURVE",
"489 337 OFFCURVE",
"513 337 CURVE SMOOTH",
"523 337 OFFCURVE",
"536 329 OFFCURVE",
"536 299 CURVE SMOOTH",
"536 284 OFFCURVE",
"533 264 OFFCURVE"
);
}
);
width = 565;
}
);
unicode = 0077;
userData = {
com.typemytype.robofont.layerData = {
};
};
},
{
glyphname = x;
lastChange = "2016-06-28 15:02:07 +0000";
layers = (
{
layerId = "DE4BB00D-BABA-4D36-9D9A-44FD0E91C3DF";
paths = (
{
closed = 1;
nodes = (
"270 -4 CURVE SMOOTH",
"281 -7 OFFCURVE",
"291 -9 OFFCURVE",
"300 -9 CURVE SMOOTH",
"367 -9 OFFCURVE",
"396 66 OFFCURVE",
"414 98 CURVE SMOOTH",
"418 104 OFFCURVE",
"419 110 OFFCURVE",
"419 115 CURVE SMOOTH",
"419 124 OFFCURVE",
"414 130 OFFCURVE",
"408 130 CURVE SMOOTH",
"404 130 OFFCURVE",
"398 127 OFFCURVE",
"393 120 CURVE SMOOTH",
"376 97 OFFCURVE",
"344 32 OFFCURVE",
"295 32 CURVE SMOOTH",
"263 32 OFFCURVE",
"230 65 OFFCURVE",
"185 132 CURVE",
"291 264 LINE SMOOTH",
"306 283 OFFCURVE",
"321 289 OFFCURVE",
"334 289 CURVE SMOOTH",
"351 289 OFFCURVE",
"365 279 OFFCURVE",
"373 279 CURVE SMOOTH",
"380 279 OFFCURVE",
"381 291 OFFCURVE",
"381 297 CURVE SMOOTH",
"381 320 OFFCURVE",
"361 333 OFFCURVE",
"337 333 CURVE SMOOTH",
"318 333 OFFCURVE",
"297 325 OFFCURVE",
"281 305 CURVE SMOOTH",
"165 162 LINE",
"137 206 OFFCURVE",
"105 260 OFFCURVE",
"66 326 CURVE SMOOTH",
"65 327 OFFCURVE",
"64 328 OFFCURVE",
"62 328 CURVE SMOOTH",
"53 328 OFFCURVE",
"34 318 OFFCURVE",
"34 305 CURVE SMOOTH",
"34 303 OFFCURVE",
"35 300 OFFCURVE",
"36 298 CURVE SMOOTH",
"75 230 OFFCURVE",
"108 173 OFFCURVE",
"137 128 CURVE",
"105 89 OFFCURVE",
"74 51 OFFCURVE",
"52 36 CURVE SMOOTH",
"44 31 OFFCURVE",
"41 23 OFFCURVE",
"41 16 CURVE SMOOTH",
"41 2 OFFCURVE",
"53 -12 OFFCURVE",
"66 -12 CURVE SMOOTH",
"72 -12 OFFCURVE",
"79 -9 OFFCURVE",
"85 0 CURVE SMOOTH",
"105 31 OFFCURVE",
"131 65 OFFCURVE",
"157 98 CURVE",
"196 41 OFFCURVE",
"230 7 OFFCURVE"
);
}
);
width = 326;
}
);
unicode = 0078;
},
{
glyphname = y;
lastChange = "2016-06-28 15:02:07 +0000";
layers = (
{
anchors = (
{
name = top;
position = "{242, 333}";
}
);
layerId = "DE4BB00D-BABA-4D36-9D9A-44FD0E91C3DF";
paths = (
{
closed = 1;
nodes = (
"74 -282 CURVE SMOOTH",
"50 -282 OFFCURVE",
"34 -270 OFFCURVE",
"34 -244 CURVE SMOOTH",
"34 -201 OFFCURVE",
"90 -132 OFFCURVE",
"200 -62 CURVE",
"189 -100 OFFCURVE",
"163 -282 OFFCURVE"
);
},
{
closed = 1;
nodes = (
"-13 -254 CURVE SMOOTH",
"-13 -292 OFFCURVE",
"19 -322 OFFCURVE",
"61 -322 CURVE SMOOTH",
"204 -322 OFFCURVE",
"242 -141 OFFCURVE",
"265 -21 CURVE",
"334 37 OFFCURVE",
"373 60 OFFCURVE",
"420 76 CURVE SMOOTH",
"428 77 OFFCURVE",
"431 84 OFFCURVE",
"431 92 CURVE SMOOTH",
"431 104 OFFCURVE",
"423 119 OFFCURVE",
"410 119 CURVE SMOOTH",
"406 119 LINE SMOOTH",
"370 111 OFFCURVE",
"330 80 OFFCURVE",
"271 33 CURVE",
"271 33 OFFCURVE",
"286 105 OFFCURVE",
"294 146 CURVE SMOOTH",
"315 247 OFFCURVE",
"331 273 OFFCURVE",
"331 317 CURVE SMOOTH",
"331 323 OFFCURVE",
"325 326 OFFCURVE",
"314 326 CURVE SMOOTH",
"286 326 OFFCURVE",
"272 309 OFFCURVE",
"266 286 CURVE SMOOTH",
"234 162 LINE SMOOTH",
"226 130 OFFCURVE",
"188 47 OFFCURVE",
"135 47 CURVE SMOOTH",
"101 47 OFFCURVE",
"97 90 OFFCURVE",
"97 113 CURVE SMOOTH",
"97 159 OFFCURVE",
"117 214 OFFCURVE",
"134 266 CURVE SMOOTH",
"142 288 OFFCURVE",
"148 301 OFFCURVE",
"148 317 CURVE SMOOTH",
"148 326 OFFCURVE",
"138 332 OFFCURVE",
"135 332 CURVE SMOOTH",
"114 332 OFFCURVE",
"105 319 OFFCURVE",
"98 306 CURVE SMOOTH",
"70 253 OFFCURVE",
"44 176 OFFCURVE",
"44 99 CURVE SMOOTH",
"44 50 OFFCURVE",
"67 0 OFFCURVE",
"118 0 CURVE SMOOTH",
"175 0 OFFCURVE",
"217 48 OFFCURVE",
"228 77 CURVE SMOOTH",
"203 -8 LINE",
"149 -49 OFFCURVE",
"95 -82 OFFCURVE",
"53 -130 CURVE SMOOTH",
"28 -158 OFFCURVE",
"-13 -208 OFFCURVE"
);
}
);
width = 346;
}
);
unicode = 0079;
userData = {
com.typemytype.robofont.layerData = {
};
};
},
{
glyphname = z;
lastChange = "2016-06-28 15:02:07 +0000";
layers = (
{
anchors = (
{
name = top;
position = "{172, 333}";
}
);
layerId = "DE4BB00D-BABA-4D36-9D9A-44FD0E91C3DF";
paths = (
{
closed = 1;
nodes = (
"299 66 CURVE SMOOTH",
"305 71 OFFCURVE",
"307 77 OFFCURVE",
"307 83 CURVE SMOOTH",
"307 94 OFFCURVE",
"300 106 OFFCURVE",
"295 106 CURVE SMOOTH",
"294 106 OFFCURVE",
"294 105 OFFCURVE",
"293 105 CURVE SMOOTH",
"218 60 OFFCURVE",
"153 41 OFFCURVE",
"111 41 CURVE SMOOTH",
"78 41 OFFCURVE",
"60 53 OFFCURVE",
"61 73 CURVE",
"88 106 OFFCURVE",
"208 219 OFFCURVE",
"237 256 CURVE SMOOTH",
"248 269 OFFCURVE",
"251 279 OFFCURVE",
"251 292 CURVE SMOOTH",
"251 310 OFFCURVE",
"238 314 OFFCURVE",
"227 314 CURVE SMOOTH",
"210 314 OFFCURVE",
"95 313 OFFCURVE",
"36 313 CURVE SMOOTH",
"25 313 OFFCURVE",
"21 306 OFFCURVE",
"21 298 CURVE SMOOTH",
"21 286 OFFCURVE",
"29 271 OFFCURVE",
"36 271 CURVE SMOOTH",
"65 271 OFFCURVE",
"125 275 OFFCURVE",
"191 277 CURVE",
"42 124 LINE SMOOTH",
"27 108 OFFCURVE",
"9 91 OFFCURVE",
"9 62 CURVE SMOOTH",
"9 22 OFFCURVE",
"49 -5 OFFCURVE",
"109 -5 CURVE SMOOTH",
"162 -5 OFFCURVE",
"230 16 OFFCURVE"
);
}
);
width = 254;
}
);
unicode = 007A;
userData = {
com.typemytype.robofont.layerData = {
};
};
},
{
glyphname = f_f;
lastChange = "2016-06-28 15:02:07 +0000";
layers = (
{
layerId = "DE4BB00D-BABA-4D36-9D9A-44FD0E91C3DF";
paths = (
{
closed = 1;
nodes = (
"329 213 CURVE",
"343 278 OFFCURVE",
"396 517 OFFCURVE",
"489 517 CURVE SMOOTH",
"510 517 OFFCURVE",
"520 502 OFFCURVE",
"520 483 CURVE SMOOTH",
"520 403 OFFCURVE",
"373 240 OFFCURVE"
);
},
{
closed = 1;
nodes = (
"117 226 CURVE",
"111 229 OFFCURVE",
"104 238 OFFCURVE",
"101 246 CURVE SMOOTH",
"101 266 OFFCURVE",
"163 571 OFFCURVE",
"251 571 CURVE SMOOTH",
"273 571 OFFCURVE",
"277 546 OFFCURVE",
"277 526 CURVE SMOOTH",
"277 433 OFFCURVE",
"171 292 OFFCURVE"
);
},
{
closed = 1;
nodes = (
"356 -100 CURVE SMOOTH",
"324 -100 OFFCURVE",
"324 -5 OFFCURVE",
"324 73 CURVE SMOOTH",
"325 173 LINE",
"344 166 LINE",
"347 154 OFFCURVE",
"396 43 OFFCURVE",
"396 -33 CURVE SMOOTH",
"396 -68 OFFCURVE",
"387 -100 OFFCURVE"
);
},
{
closed = 1;
nodes = (
"109 -147 CURVE SMOOTH",
"86 -147 OFFCURVE",
"85 -92 OFFCURVE",
"85 -44 CURVE SMOOTH",
"85 -23 LINE SMOOTH",
"85 53 OFFCURVE",
"93 127 OFFCURVE",
"95 205 CURVE",
"125 158 OFFCURVE",
"160 77 OFFCURVE",
"160 -27 CURVE SMOOTH",
"160 -29 LINE SMOOTH",
"160 -67 OFFCURVE",
"159 -147 OFFCURVE"
);
},
{
closed = 1;
nodes = (
"28 -13 CURVE SMOOTH",
"28 -99 OFFCURVE",
"36 -196 OFFCURVE",
"109 -196 CURVE SMOOTH",
"188 -196 OFFCURVE",
"213 -113 OFFCURVE",
"213 -27 CURVE SMOOTH",
"213 64 OFFCURVE",
"187 127 OFFCURVE",
"159 171 CURVE",
"176 165 OFFCURVE",
"199 162 OFFCURVE",
"222 162 CURVE SMOOTH",
"245 162 OFFCURVE",
"268 165 OFFCURVE",
"283 172 CURVE",
"282 120 OFFCURVE",
"279 69 OFFCURVE",
"279 18 CURVE SMOOTH",
"279 -63 OFFCURVE",
"292 -146 OFFCURVE",
"354 -146 CURVE SMOOTH",
"427 -146 OFFCURVE",
"441 -76 OFFCURVE",
"441 -27 CURVE SMOOTH",
"441 47 OFFCURVE",
"414 112 OFFCURVE",
"392 161 CURVE",
"403 160 OFFCURVE",
"414 160 OFFCURVE",
"425 160 CURVE SMOOTH",
"497 160 OFFCURVE",
"579 174 OFFCURVE",
"579 247 CURVE",
"577 261 LINE",
"528 220 OFFCURVE",
"455 198 OFFCURVE",
"407 198 CURVE SMOOTH",
"392 198 OFFCURVE",
"378 200 OFFCURVE",
"365 202 CURVE",
"436 248 OFFCURVE",
"564 393 OFFCURVE",
"564 504 CURVE SMOOTH",
"564 546 OFFCURVE",
"542 573 OFFCURVE",
"505 573 CURVE SMOOTH",
"382 573 OFFCURVE",
"314 376 OFFCURVE",
"287 206 CURVE",
"263 200 OFFCURVE",
"240 197 OFFCURVE",
"219 197 CURVE SMOOTH",
"192 197 OFFCURVE",
"168 201 OFFCURVE",
"147 208 CURVE",
"213 284 OFFCURVE",
"333 422 OFFCURVE",
"333 555 CURVE SMOOTH",
"333 597 OFFCURVE",
"311 624 OFFCURVE",
"274 624 CURVE SMOOTH",
"93 624 OFFCURVE",
"28 176 OFFCURVE"
);
}
);
width = 476;
}
);
},
{
glyphname = ordfeminine;
lastChange = "2016-06-28 15:02:07 +0000";
layers = (
{
layerId = "DE4BB00D-BABA-4D36-9D9A-44FD0E91C3DF";
paths = (
{
closed = 1;
nodes = (
"121 323 CURVE SMOOTH",
"95 323 OFFCURVE",
"89 350 OFFCURVE",
"89 371 CURVE SMOOTH",
"89 428 OFFCURVE",
"128 510 OFFCURVE",
"189 510 CURVE SMOOTH",
"193 510 OFFCURVE",
"196 510 OFFCURVE",
"200 509 CURVE",
"180 413 LINE SMOOTH",
"174 385 OFFCURVE",
"160 323 OFFCURVE"
);
},
{
closed = 1;
nodes = (
"243 282 CURVE SMOOTH",
"292 282 OFFCURVE",
"344 347 OFFCURVE",
"339 362 CURVE SMOOTH",
"334 382 LINE SMOOTH",
"333 385 OFFCURVE",
"332 387 OFFCURVE",
"330 387 CURVE SMOOTH",
"319 387 OFFCURVE",
"292 332 OFFCURVE",
"252 332 CURVE SMOOTH",
"231 332 OFFCURVE",
"231 356 OFFCURVE",
"231 371 CURVE SMOOTH",
"231 422 OFFCURVE",
"250 462 OFFCURVE",
"250 508 CURVE SMOOTH",
"250 527 OFFCURVE",
"241 527 OFFCURVE",
"233 527 CURVE SMOOTH",
"194 527 OFFCURVE",
"214 549 OFFCURVE",
"194 549 CURVE SMOOTH",
"182 549 OFFCURVE",
"163 549 OFFCURVE",
"137 537 CURVE SMOOTH",
"84 514 OFFCURVE",
"30 443 OFFCURVE",
"30 358 CURVE SMOOTH",
"30 315 OFFCURVE",
"56 283 OFFCURVE",
"96 283 CURVE SMOOTH",
"140 283 OFFCURVE",
"179 316 OFFCURVE",
"191 339 CURVE",
"202 310 OFFCURVE",
"213 282 OFFCURVE"
);
}
);
width = 317;
}
);
unicode = 00AA;
},
{
glyphname = ordmasculine;
lastChange = "2016-06-28 15:02:07 +0000";
layers = (
{
layerId = "DE4BB00D-BABA-4D36-9D9A-44FD0E91C3DF";
paths = (
{
closed = 1;
nodes = (
"121 284 CURVE SMOOTH",
"196 284 OFFCURVE",
"237 365 OFFCURVE",
"237 445 CURVE SMOOTH",
"237 500 OFFCURVE",
"215 547 OFFCURVE",
"165 547 CURVE SMOOTH",
"88 547 OFFCURVE",
"34 482 OFFCURVE",
"34 403 CURVE SMOOTH",
"34 338 OFFCURVE",
"61 284 OFFCURVE"
);
},
{
closed = 1;
nodes = (
"131 320 CURVE SMOOTH",
"90 320 OFFCURVE",
"78 355 OFFCURVE",
"78 391 CURVE SMOOTH",
"78 435 OFFCURVE",
"99 511 OFFCURVE",
"148 511 CURVE SMOOTH",
"185 511 OFFCURVE",
"193 467 OFFCURVE",
"193 437 CURVE SMOOTH",
"193 396 OFFCURVE",
"175 320 OFFCURVE"
);
}
);
width = 273;
}
);
unicode = 00BA;
},
{
glyphname = Delta;
lastChange = "2016-06-28 15:02:07 +0000";
layers = (
{
layerId = "DE4BB00D-BABA-4D36-9D9A-44FD0E91C3DF";
paths = (
{
closed = 1;
nodes = (
"185 55 LINE",
"202 76 OFFCURVE",
"352 327 OFFCURVE",
"419 439 CURVE",
"580 55 LINE"
);
},
{
closed = 1;
nodes = (
"141 -1 CURVE SMOOTH",
"614 -1 LINE SMOOTH",
"637 -1 OFFCURVE",
"646 11 OFFCURVE",
"646 34 CURVE",
"459 478 LINE SMOOTH",
"452 494 OFFCURVE",
"441 504 OFFCURVE",
"429 504 CURVE SMOOTH",
"419 504 OFFCURVE",
"409 498 OFFCURVE",
"400 483 CURVE SMOOTH",
"331 368 OFFCURVE",
"259 251 OFFCURVE",
"202 161 CURVE SMOOTH",
"161 94 OFFCURVE",
"128 45 OFFCURVE",
"119 25 CURVE",
"119 9 OFFCURVE",
"126 -1 OFFCURVE"
);
}
);
width = 687;
}
);
unicode = 0394;
},
{
glyphname = Omega;
lastChange = "2016-06-28 15:02:07 +0000";
layers = (
{
layerId = "DE4BB00D-BABA-4D36-9D9A-44FD0E91C3DF";
paths = (
{
closed = 1;
nodes = (
"761 41 CURVE SMOOTH",
"735 41 OFFCURVE",
"705 36 OFFCURVE",
"665 36 CURVE SMOOTH",
"652 36 OFFCURVE",
"638 36 OFFCURVE",
"623 37 CURVE",
"747 102 OFFCURVE",
"812 236 OFFCURVE",
"812 366 CURVE SMOOTH",
"812 530 OFFCURVE",
"710 686 OFFCURVE",
"498 686 CURVE SMOOTH",
"260 686 OFFCURVE",
"130 488 OFFCURVE",
"130 305 CURVE SMOOTH",
"130 201 OFFCURVE",
"172 102 OFFCURVE",
"260 45 CURVE",
"221 46 OFFCURVE",
"191 48 OFFCURVE",
"167 48 CURVE SMOOTH",
"157 48 OFFCURVE",
"147 48 OFFCURVE",
"139 47 CURVE SMOOTH",
"128 47 OFFCURVE",
"123 38 OFFCURVE",
"123 28 CURVE SMOOTH",
"123 13 OFFCURVE",
"137 -5 OFFCURVE",
"157 -6 CURVE SMOOTH",
"169 -6 OFFCURVE",
"180 -7 OFFCURVE",
"192 -7 CURVE SMOOTH",
"241 -7 OFFCURVE",
"297 -4 OFFCURVE",
"410 -2 CURVE",
"412 40 LINE",
"259 54 OFFCURVE",
"190 169 OFFCURVE",
"190 293 CURVE SMOOTH",
"190 453 OFFCURVE",
"304 628 OFFCURVE",
"496 628 CURVE SMOOTH",
"665 628 OFFCURVE",
"751 492 OFFCURVE",
"751 350 CURVE SMOOTH",
"751 206 OFFCURVE",
"662 57 OFFCURVE",
"483 40 CURVE",
"481 -2 LINE",
"553 -12 OFFCURVE",
"614 -17 OFFCURVE",
"666 -17 CURVE SMOOTH",
"675 -17 LINE SMOOTH",
"720 -17 OFFCURVE",
"774 -16 OFFCURVE",
"774 24 CURVE SMOOTH",
"774 33 OFFCURVE",
"770 41 OFFCURVE"
);
}
);
width = 837;
}
);
unicode = 03A9;
},
{
glyphname = mu;
lastChange = "2016-06-28 15:02:07 +0000";
layers = (
{
layerId = "DE4BB00D-BABA-4D36-9D9A-44FD0E91C3DF";
paths = (
{
closed = 1;
nodes = (
"226 66 CURVE",
"226 31 OFFCURVE",
"238 -4 OFFCURVE",
"282 -4 CURVE SMOOTH",
"333 -4 OFFCURVE",
"396 49 OFFCURVE",
"420 90 CURVE SMOOTH",
"423 94 OFFCURVE",
"424 98 OFFCURVE",
"424 102 CURVE SMOOTH",
"424 110 OFFCURVE",
"418 117 OFFCURVE",
"406 117 CURVE SMOOTH",
"400 117 OFFCURVE",
"392 115 OFFCURVE",
"383 103 CURVE SMOOTH",
"370 85 OFFCURVE",
"325 35 OFFCURVE",
"290 35 CURVE SMOOTH",
"277 35 OFFCURVE",
"266 49 OFFCURVE",
"266 81 CURVE SMOOTH",
"266 86 OFFCURVE",
"266 91 OFFCURVE",
"267 97 CURVE SMOOTH",
"275 182 OFFCURVE",
"311 278 OFFCURVE",
"319 305 CURVE SMOOTH",
"320 306 OFFCURVE",
"320 308 OFFCURVE",
"320 309 CURVE SMOOTH",
"320 317 OFFCURVE",
"310 326 OFFCURVE",
"297 326 CURVE SMOOTH",
"283 326 OFFCURVE",
"271 319 OFFCURVE",
"262 284 CURVE SMOOTH",
"229 159 LINE SMOOTH",
"204 65 OFFCURVE",
"165 38 OFFCURVE",
"126 37 CURVE SMOOTH",
"97 37 OFFCURVE",
"82 58 OFFCURVE",
"82 93 CURVE SMOOTH",
"82 103 LINE SMOOTH",
"86 172 OFFCURVE",
"105 240 OFFCURVE",
"134 313 CURVE SMOOTH",
"134 322 OFFCURVE",
"126 328 OFFCURVE",
"111 328 CURVE SMOOTH",
"97 328 OFFCURVE",
"89 327 OFFCURVE",
"84 316 CURVE SMOOTH",
"66 277 OFFCURVE",
"54 235 OFFCURVE",
"45 194 CURVE SMOOTH",
"-9 -55 LINE SMOOTH",
"-12 -68 OFFCURVE",
"1 -81 OFFCURVE",
"15 -81 CURVE SMOOTH",
"25 -81 OFFCURVE",
"36 -73 OFFCURVE",
"41 -52 CURVE SMOOTH",
"56 18 LINE",
"70 3 OFFCURVE",
"92 -5 OFFCURVE",
"120 -5 CURVE SMOOTH",
"170 -5 OFFCURVE",
"202 23 OFFCURVE"
);
}
);
width = 347;
}
);
unicode = 03BC;
},
{
glyphname = pi;
lastChange = "2016-06-28 15:02:07 +0000";
layers = (
{
layerId = "DE4BB00D-BABA-4D36-9D9A-44FD0E91C3DF";
paths = (
{
closed = 1;
nodes = (
"449 -3 CURVE SMOOTH",
"466 -3 OFFCURVE",
"477 5 OFFCURVE",
"477 20 CURVE SMOOTH",
"477 41 OFFCURVE",
"464 80 OFFCURVE",
"464 150 CURVE SMOOTH",
"464 189 OFFCURVE",
"468 238 OFFCURVE",
"481 300 CURVE",
"494 300 OFFCURVE",
"506 299 OFFCURVE",
"521 299 CURVE SMOOTH",
"586 299 OFFCURVE",
"591 308 OFFCURVE",
"591 319 CURVE SMOOTH",
"591 332 OFFCURVE",
"582 343 OFFCURVE",
"572 343 CURVE SMOOTH",
"570 343 LINE SMOOTH",
"431 343 OFFCURVE",
"405 359 OFFCURVE",
"298 359 CURVE SMOOTH",
"192 359 OFFCURVE",
"135 341 OFFCURVE",
"121 248 CURVE SMOOTH",
"121 238 OFFCURVE",
"133 232 OFFCURVE",
"142 232 CURVE SMOOTH",
"148 232 OFFCURVE",
"152 234 OFFCURVE",
"153 239 CURVE SMOOTH",
"186 309 OFFCURVE",
"196 316 OFFCURVE",
"251 316 CURVE SMOOTH",
"280 316 LINE",
"217 189 OFFCURVE",
"175 64 OFFCURVE",
"175 29 CURVE SMOOTH",
"175 10 OFFCURVE",
"180 -1 OFFCURVE",
"198 -1 CURVE SMOOTH",
"217 -1 OFFCURVE",
"225 9 OFFCURVE",
"229 35 CURVE SMOOTH",
"244 121 OFFCURVE",
"281 214 OFFCURVE",
"313 316 CURVE",
"355 314 OFFCURVE",
"393 307 OFFCURVE",
"442 303 CURVE",
"417 201 OFFCURVE",
"407 131 OFFCURVE",
"407 84 CURVE SMOOTH",
"407 18 OFFCURVE",
"426 -3 OFFCURVE"
);
}
);
width = 575;
}
);
unicode = 03C0;
},
{
glyphname = zero;
lastChange = "2016-06-28 15:02:07 +0000";
layers = (
{
layerId = "DE4BB00D-BABA-4D36-9D9A-44FD0E91C3DF";
paths = (
{
closed = 1;
nodes = (
"47 185 CURVE SMOOTH",
"47 80 OFFCURVE",
"82 -7 OFFCURVE",
"200 -7 CURVE SMOOTH",
"344 -7 OFFCURVE",
"418 156 OFFCURVE",
"418 301 CURVE SMOOTH",
"418 407 OFFCURVE",
"374 495 OFFCURVE",
"263 495 CURVE SMOOTH",
"112 495 OFFCURVE",
"47 333 OFFCURVE"
);
},
{
closed = 1;
nodes = (
"200 35 CURVE SMOOTH",
"132 35 OFFCURVE",
"102 90 OFFCURVE",
"102 192 CURVE SMOOTH",
"102 327 OFFCURVE",
"158 451 OFFCURVE",
"266 451 CURVE SMOOTH",
"334 451 OFFCURVE",
"366 380 OFFCURVE",
"366 297 CURVE SMOOTH",
"366 162 OFFCURVE",
"306 35 OFFCURVE"
);
}
);
width = 417;
}
);
unicode = 0030;
},
{
glyphname = one;
lastChange = "2016-06-28 15:02:07 +0000";
layers = (
{
layerId = "DE4BB00D-BABA-4D36-9D9A-44FD0E91C3DF";
paths = (
{
closed = 1;
nodes = (
"171 10 CURVE SMOOTH",
"202 170 OFFCURVE",
"249 417 OFFCURVE",
"255 448 CURVE SMOOTH",
"256 455 OFFCURVE",
"257 461 OFFCURVE",
"257 467 CURVE SMOOTH",
"257 482 OFFCURVE",
"253 492 OFFCURVE",
"241 492 CURVE SMOOTH",
"236 492 LINE SMOOTH",
"201 485 OFFCURVE",
"157 471 OFFCURVE",
"129 462 CURVE SMOOTH",
"118 459 OFFCURVE",
"113 448 OFFCURVE",
"113 437 CURVE SMOOTH",
"113 426 OFFCURVE",
"118 414 OFFCURVE",
"129 414 CURVE SMOOTH",
"131 414 OFFCURVE",
"132 415 OFFCURVE",
"134 415 CURVE SMOOTH",
"147 418 OFFCURVE",
"186 429 OFFCURVE",
"202 435 CURVE",
"171 274 OFFCURVE",
"167 242 OFFCURVE",
"121 22 CURVE SMOOTH",
"121 20 OFFCURVE",
"120 18 OFFCURVE",
"120 16 CURVE SMOOTH",
"120 2 OFFCURVE",
"132 -3 OFFCURVE",
"145 -3 CURVE SMOOTH",
"157 -3 OFFCURVE",
"169 2 OFFCURVE"
);
}
);
width = 333;
}
);
unicode = 0031;
},
{
glyphname = two;
lastChange = "2016-06-28 15:02:07 +0000";
layers = (
{
layerId = "DE4BB00D-BABA-4D36-9D9A-44FD0E91C3DF";
paths = (
{
closed = 1;
nodes = (
"125 36 CURVE SMOOTH",
"89 36 OFFCURVE",
"77 66 OFFCURVE",
"77 85 CURVE SMOOTH",
"77 102 OFFCURVE",
"88 120 OFFCURVE",
"111 120 CURVE SMOOTH",
"148 120 OFFCURVE",
"179 92 OFFCURVE",
"201 78 CURVE",
"184 53 OFFCURVE",
"151 36 OFFCURVE"
);
},
{
closed = 1;
nodes = (
"220 449 CURVE SMOOTH",
"285 449 OFFCURVE",
"313 393 OFFCURVE",
"313 331 CURVE SMOOTH",
"313 236 OFFCURVE",
"267 150 OFFCURVE",
"229 109 CURVE",
"198 129 OFFCURVE",
"153 164 OFFCURVE",
"106 164 CURVE SMOOTH",
"60 164 OFFCURVE",
"32 128 OFFCURVE",
"32 84 CURVE SMOOTH",
"32 35 OFFCURVE",
"75 -3 OFFCURVE",
"127 -3 CURVE SMOOTH",
"168 -3 OFFCURVE",
"203 25 OFFCURVE",
"231 50 CURVE",
"256 30 OFFCURVE",
"281 0 OFFCURVE",
"318 0 CURVE SMOOTH",
"355 0 OFFCURVE",
"368 33 OFFCURVE",
"368 65 CURVE SMOOTH",
"368 75 OFFCURVE",
"360 75 OFFCURVE",
"359 73 CURVE SMOOTH",
"354 66 OFFCURVE",
"341 50 OFFCURVE",
"328 50 CURVE SMOOTH",
"297 50 OFFCURVE",
"279 68 OFFCURVE",
"259 81 CURVE",
"305 131 OFFCURVE",
"364 225 OFFCURVE",
"364 344 CURVE SMOOTH",
"364 440 OFFCURVE",
"300 495 OFFCURVE",
"222 495 CURVE SMOOTH",
"151 495 OFFCURVE",
"77 462 OFFCURVE",
"77 392 CURVE SMOOTH",
"77 357 OFFCURVE",
"99 327 OFFCURVE",
"120 327 CURVE SMOOTH",
"132 327 OFFCURVE",
"141 335 OFFCURVE",
"141 343 CURVE SMOOTH",
"141 357 OFFCURVE",
"124 377 OFFCURVE",
"124 396 CURVE SMOOTH",
"124 436 OFFCURVE",
"169 449 OFFCURVE"
);
}
);
width = 417;
}
);
unicode = 0032;
},
{
glyphname = three;
lastChange = "2016-06-28 15:02:07 +0000";
layers = (
{
layerId = "DE4BB00D-BABA-4D36-9D9A-44FD0E91C3DF";
paths = (
{
closed = 1;
nodes = (
"307 147 CURVE SMOOTH",
"307 67 OFFCURVE",
"245 29 OFFCURVE",
"183 29 CURVE SMOOTH",
"143 29 OFFCURVE",
"104 45 OFFCURVE",
"83 76 CURVE SMOOTH",
"69 96 OFFCURVE",
"57 103 OFFCURVE",
"48 103 CURVE SMOOTH",
"36 103 OFFCURVE",
"29 91 OFFCURVE",
"29 82 CURVE SMOOTH",
"29 80 OFFCURVE",
"29 79 OFFCURVE",
"30 77 CURVE SMOOTH",
"43 39 OFFCURVE",
"101 -13 OFFCURVE",
"195 -13 CURVE SMOOTH",
"293 -13 OFFCURVE",
"358 49 OFFCURVE",
"358 137 CURVE SMOOTH",
"358 209 OFFCURVE",
"334 251 OFFCURVE",
"260 274 CURVE",
"310 289 OFFCURVE",
"354 327 OFFCURVE",
"354 387 CURVE SMOOTH",
"354 453 OFFCURVE",
"297 490 OFFCURVE",
"226 490 CURVE SMOOTH",
"169 490 OFFCURVE",
"128 472 OFFCURVE",
"97 427 CURVE SMOOTH",
"96 425 OFFCURVE",
"95 423 OFFCURVE",
"95 421 CURVE SMOOTH",
"95 412 OFFCURVE",
"105 403 OFFCURVE",
"115 403 CURVE SMOOTH",
"120 403 OFFCURVE",
"124 405 OFFCURVE",
"128 410 CURVE SMOOTH",
"149 438 OFFCURVE",
"187 452 OFFCURVE",
"222 452 CURVE SMOOTH",
"266 452 OFFCURVE",
"306 431 OFFCURVE",
"306 390 CURVE SMOOTH",
"306 330 OFFCURVE",
"261 288 OFFCURVE",
"152 288 CURVE SMOOTH",
"136 288 OFFCURVE",
"129 280 OFFCURVE",
"129 272 CURVE SMOOTH",
"129 264 OFFCURVE",
"136 256 OFFCURVE",
"147 256 CURVE SMOOTH",
"237 256 OFFCURVE",
"307 233 OFFCURVE"
);
}
);
width = 417;
}
);
unicode = 0033;
},
{
glyphname = four;
lastChange = "2016-06-28 15:02:07 +0000";
layers = (
{
layerId = "DE4BB00D-BABA-4D36-9D9A-44FD0E91C3DF";
paths = (
{
closed = 1;
nodes = (
"228 -19 LINE SMOOTH",
"235 -19 OFFCURVE",
"245 -13 OFFCURVE",
"248 3 CURVE SMOOTH",
"264 83 LINE",
"279 83 OFFCURVE",
"308 82 OFFCURVE",
"330 82 CURVE SMOOTH",
"345 82 LINE SMOOTH",
"359 83 OFFCURVE",
"366 99 OFFCURVE",
"366 111 CURVE SMOOTH",
"366 118 OFFCURVE",
"363 124 OFFCURVE",
"358 124 CURVE SMOOTH",
"347 124 OFFCURVE",
"334 122 OFFCURVE",
"275 122 CURVE",
"280 145 OFFCURVE",
"318 278 OFFCURVE",
"318 315 CURVE SMOOTH",
"318 323 OFFCURVE",
"312 329 OFFCURVE",
"298 329 CURVE SMOOTH",
"278 329 OFFCURVE",
"272 320 OFFCURVE",
"269 306 CURVE SMOOTH",
"261 278 OFFCURVE",
"230 142 OFFCURVE",
"229 132 CURVE",
"216 124 OFFCURVE",
"191 122 OFFCURVE",
"167 122 CURVE SMOOTH",
"142 122 OFFCURVE",
"118 124 OFFCURVE",
"113 124 CURVE",
"140 202 OFFCURVE",
"203 386 OFFCURVE",
"227 464 CURVE SMOOTH",
"227 465 OFFCURVE",
"228 467 OFFCURVE",
"228 468 CURVE SMOOTH",
"228 478 OFFCURVE",
"217 487 OFFCURVE",
"205 487 CURVE SMOOTH",
"195 487 OFFCURVE",
"185 481 OFFCURVE",
"180 465 CURVE SMOOTH",
"151 388 OFFCURVE",
"89 202 OFFCURVE",
"64 126 CURVE SMOOTH",
"59 113 OFFCURVE",
"57 103 OFFCURVE",
"57 96 CURVE SMOOTH",
"57 83 OFFCURVE",
"65 79 OFFCURVE",
"79 79 CURVE SMOOTH",
"129 79 OFFCURVE",
"157 82 OFFCURVE",
"217 82 CURVE",
"202 9 LINE SMOOTH",
"201 6 OFFCURVE",
"201 3 OFFCURVE",
"201 1 CURVE SMOOTH",
"201 -13 OFFCURVE",
"212 -19 OFFCURVE",
"225 -19 CURVE SMOOTH"
);
}
);
width = 417;
}
);
unicode = 0034;
},
{
glyphname = five;
lastChange = "2016-06-28 15:02:07 +0000";
layers = (
{
layerId = "DE4BB00D-BABA-4D36-9D9A-44FD0E91C3DF";
paths = (
{
closed = 1;
nodes = (
"29 105 CURVE SMOOTH",
"29 38 OFFCURVE",
"92 -10 OFFCURVE",
"177 -10 CURVE SMOOTH",
"266 -10 OFFCURVE",
"340 45 OFFCURVE",
"340 155 CURVE SMOOTH",
"340 235 OFFCURVE",
"279 282 OFFCURVE",
"179 282 CURVE SMOOTH",
"165 282 OFFCURVE",
"150 281 OFFCURVE",
"135 279 CURVE",
"174 417 LINE SMOOTH",
"177 417 LINE SMOOTH",
"237 417 OFFCURVE",
"298 396 OFFCURVE",
"337 396 CURVE SMOOTH",
"363 396 OFFCURVE",
"379 405 OFFCURVE",
"379 434 CURVE SMOOTH",
"379 463 OFFCURVE",
"368 471 OFFCURVE",
"360 471 CURVE SMOOTH",
"357 471 OFFCURVE",
"354 470 OFFCURVE",
"353 468 CURVE SMOOTH",
"332 450 OFFCURVE",
"315 444 OFFCURVE",
"297 444 CURVE SMOOTH",
"265 444 OFFCURVE",
"228 461 OFFCURVE",
"155 461 CURVE SMOOTH",
"91 461 OFFCURVE",
"149 452 OFFCURVE",
"95 278 CURVE SMOOTH",
"93 273 OFFCURVE",
"93 268 OFFCURVE",
"93 264 CURVE SMOOTH",
"93 248 OFFCURVE",
"106 242 OFFCURVE",
"118 242 CURVE SMOOTH",
"129 242 OFFCURVE",
"140 243 OFFCURVE",
"151 243 CURVE SMOOTH",
"223 243 OFFCURVE",
"286 225 OFFCURVE",
"286 152 CURVE SMOOTH",
"286 67 OFFCURVE",
"237 27 OFFCURVE",
"177 27 CURVE SMOOTH",
"120 27 OFFCURVE",
"80 57 OFFCURVE",
"80 92 CURVE SMOOTH",
"80 125 OFFCURVE",
"104 139 OFFCURVE",
"104 149 CURVE SMOOTH",
"104 158 OFFCURVE",
"97 164 OFFCURVE",
"68 164 CURVE SMOOTH",
"40 164 OFFCURVE",
"29 141 OFFCURVE"
);
}
);
width = 395;
}
);
unicode = 0035;
},
{
glyphname = six;
lastChange = "2016-06-28 15:02:07 +0000";
layers = (
{
layerId = "DE4BB00D-BABA-4D36-9D9A-44FD0E91C3DF";
paths = (
{
closed = 1;
nodes = (
"213 32 CURVE SMOOTH",
"156 32 OFFCURVE",
"114 71 OFFCURVE",
"114 139 CURVE SMOOTH",
"114 205 OFFCURVE",
"151 257 OFFCURVE",
"236 257 CURVE SMOOTH",
"298 257 OFFCURVE",
"327 209 OFFCURVE",
"327 157 CURVE SMOOTH",
"327 97 OFFCURVE",
"288 32 OFFCURVE"
);
},
{
closed = 1;
nodes = (
"211 -10 CURVE SMOOTH",
"312 -10 OFFCURVE",
"380 70 OFFCURVE",
"380 170 CURVE SMOOTH",
"380 246 OFFCURVE",
"312 298 OFFCURVE",
"238 298 CURVE SMOOTH",
"201 298 OFFCURVE",
"161 285 OFFCURVE",
"129 255 CURVE",
"159 327 OFFCURVE",
"237 419 OFFCURVE",
"354 471 CURVE SMOOTH",
"366 478 OFFCURVE",
"373 487 OFFCURVE",
"373 499 CURVE SMOOTH",
"373 510 OFFCURVE",
"363 518 OFFCURVE",
"347 518 CURVE SMOOTH",
"337 518 OFFCURVE",
"331 515 OFFCURVE",
"321 510 CURVE SMOOTH",
"203 453 OFFCURVE",
"69 327 OFFCURVE",
"62 155 CURVE SMOOTH",
"62 147 LINE SMOOTH",
"62 62 OFFCURVE",
"122 -10 OFFCURVE"
);
}
);
width = 417;
}
);
unicode = 0036;
},
{
glyphname = seven;
lastChange = "2016-06-28 15:02:07 +0000";
layers = (
{
layerId = "DE4BB00D-BABA-4D36-9D9A-44FD0E91C3DF";
paths = (
{
closed = 1;
nodes = (
"87 427 CURVE SMOOTH",
"87 413 OFFCURVE",
"97 396 OFFCURVE",
"111 396 CURVE SMOOTH",
"130 396 OFFCURVE",
"142 428 OFFCURVE",
"204 428 CURVE SMOOTH",
"209 428 LINE SMOOTH",
"320 425 LINE",
"260 337 OFFCURVE",
"130 106 OFFCURVE",
"130 10 CURVE SMOOTH",
"130 -4 OFFCURVE",
"139 -11 OFFCURVE",
"150 -11 CURVE SMOOTH",
"163 -11 OFFCURVE",
"178 -2 OFFCURVE",
"184 18 CURVE SMOOTH",
"221 141 OFFCURVE",
"275 283 OFFCURVE",
"360 410 CURVE SMOOTH",
"369 425 OFFCURVE",
"392 428 OFFCURVE",
"392 445 CURVE SMOOTH",
"392 459 OFFCURVE",
"389 465 OFFCURVE",
"381 465 CURVE SMOOTH",
"374 465 OFFCURVE",
"342 462 OFFCURVE",
"327 462 CURVE SMOOTH",
"289 462 OFFCURVE",
"211 467 OFFCURVE",
"147 467 CURVE SMOOTH",
"103 467 OFFCURVE",
"87 446 OFFCURVE"
);
}
);
width = 417;
}
);
unicode = 0037;
},
{
glyphname = eight;
lastChange = "2016-06-28 15:02:07 +0000";
layers = (
{
layerId = "DE4BB00D-BABA-4D36-9D9A-44FD0E91C3DF";
paths = (
{
closed = 1;
nodes = (
"216 282 CURVE",
"196 298 OFFCURVE",
"158 340 OFFCURVE",
"158 375 CURVE SMOOTH",
"158 420 OFFCURVE",
"191 455 OFFCURVE",
"246 455 CURVE SMOOTH",
"295 455 OFFCURVE",
"320 430 OFFCURVE",
"320 390 CURVE SMOOTH",
"320 347 OFFCURVE",
"261 299 OFFCURVE"
);
},
{
closed = 1;
nodes = (
"198 37 CURVE SMOOTH",
"153 37 OFFCURVE",
"112 62 OFFCURVE",
"112 107 CURVE SMOOTH",
"112 171 OFFCURVE",
"175 216 OFFCURVE",
"210 234 CURVE",
"227 214 OFFCURVE",
"287 173 OFFCURVE",
"287 118 CURVE SMOOTH",
"287 66 OFFCURVE",
"251 37 OFFCURVE"
);
},
{
closed = 1;
nodes = (
"371 405 CURVE SMOOTH",
"371 464 OFFCURVE",
"311 495 OFFCURVE",
"257 495 CURVE SMOOTH",
"179 495 OFFCURVE",
"110 452 OFFCURVE",
"110 375 CURVE SMOOTH",
"110 325 OFFCURVE",
"141 294 OFFCURVE",
"179 261 CURVE",
"126 225 OFFCURVE",
"62 189 OFFCURVE",
"62 100 CURVE SMOOTH",
"62 28 OFFCURVE",
"123 -5 OFFCURVE",
"197 -5 CURVE SMOOTH",
"272 -5 OFFCURVE",
"339 39 OFFCURVE",
"339 109 CURVE SMOOTH",
"339 180 OFFCURVE",
"283 223 OFFCURVE",
"243 256 CURVE",
"306 286 OFFCURVE",
"371 316 OFFCURVE"
);
}
);
width = 417;
}
);
unicode = 0038;
},
{
glyphname = nine;
lastChange = "2016-06-28 15:02:07 +0000";
layers = (
{
layerId = "DE4BB00D-BABA-4D36-9D9A-44FD0E91C3DF";
paths = (
{
closed = 1;
nodes = (
"240 328 CURVE SMOOTH",
"297 328 OFFCURVE",
"339 290 OFFCURVE",
"339 222 CURVE SMOOTH",
"339 156 OFFCURVE",
"302 103 OFFCURVE",
"217 103 CURVE SMOOTH",
"156 103 OFFCURVE",
"126 151 OFFCURVE",
"126 203 CURVE SMOOTH",
"126 263 OFFCURVE",
"166 328 OFFCURVE"
);
},
{
closed = 1;
nodes = (
"242 371 CURVE SMOOTH",
"141 371 OFFCURVE",
"73 291 OFFCURVE",
"73 190 CURVE SMOOTH",
"73 114 OFFCURVE",
"142 63 OFFCURVE",
"216 63 CURVE SMOOTH",
"253 63 OFFCURVE",
"292 76 OFFCURVE",
"324 105 CURVE",
"295 34 OFFCURVE",
"216 -58 OFFCURVE",
"99 -110 CURVE SMOOTH",
"87 -117 OFFCURVE",
"80 -126 OFFCURVE",
"80 -139 CURVE SMOOTH",
"80 -149 OFFCURVE",
"90 -157 OFFCURVE",
"106 -157 CURVE SMOOTH",
"116 -157 OFFCURVE",
"123 -155 OFFCURVE",
"133 -150 CURVE SMOOTH",
"251 -92 OFFCURVE",
"384 33 OFFCURVE",
"392 205 CURVE SMOOTH",
"392 213 LINE SMOOTH",
"392 299 OFFCURVE",
"331 371 OFFCURVE"
);
}
);
width = 417;
}
);
unicode = 0039;
},
{
glyphname = fraction;
lastChange = "2016-06-28 15:02:07 +0000";
layers = (
{
layerId = "DE4BB00D-BABA-4D36-9D9A-44FD0E91C3DF";
paths = (
{
closed = 1;
nodes = (
"29 5 CURVE SMOOTH",
"279 564 LINE SMOOTH",
"281 569 OFFCURVE",
"282 574 OFFCURVE",
"282 579 CURVE SMOOTH",
"282 594 OFFCURVE",
"272 605 OFFCURVE",
"260 605 CURVE SMOOTH",
"251 605 OFFCURVE",
"240 598 OFFCURVE",
"232 580 CURVE SMOOTH",
"-20 28 LINE SMOOTH",
"-24 20 OFFCURVE",
"-25 13 OFFCURVE",
"-25 7 CURVE SMOOTH",
"-25 -9 OFFCURVE",
"-14 -17 OFFCURVE",
"-2 -17 CURVE SMOOTH",
"10 -17 OFFCURVE",
"22 -10 OFFCURVE"
);
}
);
width = 217;
}
);
unicode = 2044;
},
{
glyphname = onehalf;
lastChange = "2016-06-28 15:02:07 +0000";
layers = (
{
layerId = "DE4BB00D-BABA-4D36-9D9A-44FD0E91C3DF";
paths = (
{
closed = 1;
nodes = (
"171 215 CURVE SMOOTH",
"202 375 OFFCURVE",
"249 622 OFFCURVE",
"255 653 CURVE SMOOTH",
"256 660 OFFCURVE",
"257 666 OFFCURVE",
"257 672 CURVE SMOOTH",
"257 687 OFFCURVE",
"253 697 OFFCURVE",
"241 697 CURVE SMOOTH",
"236 697 LINE SMOOTH",
"201 690 OFFCURVE",
"157 676 OFFCURVE",
"129 667 CURVE SMOOTH",
"118 664 OFFCURVE",
"113 653 OFFCURVE",
"113 642 CURVE SMOOTH",
"113 631 OFFCURVE",
"118 619 OFFCURVE",
"129 619 CURVE SMOOTH",
"131 619 OFFCURVE",
"132 620 OFFCURVE",
"134 620 CURVE SMOOTH",
"147 624 OFFCURVE",
"186 634 OFFCURVE",
"202 640 CURVE",
"171 479 OFFCURVE",
"167 447 OFFCURVE",
"121 228 CURVE SMOOTH",
"121 226 OFFCURVE",
"120 224 OFFCURVE",
"120 222 CURVE SMOOTH",
"120 208 OFFCURVE",
"133 202 OFFCURVE",
"146 202 CURVE SMOOTH",
"158 202 OFFCURVE",
"169 207 OFFCURVE"
);
},
{
closed = 1;
nodes = (
"324 5 CURVE SMOOTH",
"574 564 LINE SMOOTH",
"576 569 OFFCURVE",
"577 574 OFFCURVE",
"577 579 CURVE SMOOTH",
"577 594 OFFCURVE",
"567 605 OFFCURVE",
"555 605 CURVE SMOOTH",
"546 605 OFFCURVE",
"535 598 OFFCURVE",
"527 580 CURVE SMOOTH",
"275 28 LINE SMOOTH",
"271 20 OFFCURVE",
"270 13 OFFCURVE",
"270 7 CURVE SMOOTH",
"270 -9 OFFCURVE",
"281 -17 OFFCURVE",
"293 -17 CURVE SMOOTH",
"305 -17 OFFCURVE",
"317 -10 OFFCURVE"
);
},
{
closed = 1;
nodes = (
"675 36 CURVE SMOOTH",
"640 36 OFFCURVE",
"628 66 OFFCURVE",
"628 85 CURVE SMOOTH",
"628 102 OFFCURVE",
"639 120 OFFCURVE",
"661 120 CURVE SMOOTH",
"699 120 OFFCURVE",
"729 92 OFFCURVE",
"751 78 CURVE",
"734 53 OFFCURVE",
"702 36 OFFCURVE"
);
},
{
closed = 1;
nodes = (
"771 449 CURVE SMOOTH",
"838 449 OFFCURVE",
"863 392 OFFCURVE",
"863 329 CURVE SMOOTH",
"863 235 OFFCURVE",
"818 150 OFFCURVE",
"779 109 CURVE",
"749 129 OFFCURVE",
"704 164 OFFCURVE",
"657 164 CURVE SMOOTH",
"611 164 OFFCURVE",
"583 128 OFFCURVE",
"583 84 CURVE SMOOTH",
"583 35 OFFCURVE",
"625 -3 OFFCURVE",
"677 -3 CURVE SMOOTH",
"719 -3 OFFCURVE",
"753 25 OFFCURVE",
"782 50 CURVE",
"807 30 OFFCURVE",
"832 0 OFFCURVE",
"869 0 CURVE SMOOTH",
"906 0 OFFCURVE",
"918 33 OFFCURVE",
"918 65 CURVE SMOOTH",
"918 75 OFFCURVE",
"911 75 OFFCURVE",
"910 73 CURVE SMOOTH",
"905 66 OFFCURVE",
"892 50 OFFCURVE",
"879 50 CURVE SMOOTH",
"848 50 OFFCURVE",
"830 68 OFFCURVE",
"810 81 CURVE",
"857 132 OFFCURVE",
"915 227 OFFCURVE",
"915 347 CURVE SMOOTH",
"915 442 OFFCURVE",
"849 495 OFFCURVE",
"772 495 CURVE SMOOTH",
"701 495 OFFCURVE",
"627 462 OFFCURVE",
"627 392 CURVE SMOOTH",
"627 357 OFFCURVE",
"649 327 OFFCURVE",
"671 327 CURVE SMOOTH",
"683 327 OFFCURVE",
"692 335 OFFCURVE",
"692 343 CURVE SMOOTH",
"692 357 OFFCURVE",
"675 377 OFFCURVE",
"675 396 CURVE SMOOTH",
"675 436 OFFCURVE",
"720 449 OFFCURVE"
);
}
);
width = 967;
}
);
unicode = 00BD;
},
{
glyphname = onequarter;
lastChange = "2016-06-28 15:02:07 +0000";
layers = (
{
layerId = "DE4BB00D-BABA-4D36-9D9A-44FD0E91C3DF";
paths = (
{
closed = 1;
nodes = (
"171 215 CURVE SMOOTH",
"202 375 OFFCURVE",
"249 622 OFFCURVE",
"255 653 CURVE SMOOTH",
"256 660 OFFCURVE",
"257 666 OFFCURVE",
"257 672 CURVE SMOOTH",
"257 687 OFFCURVE",
"253 697 OFFCURVE",
"241 697 CURVE SMOOTH",
"236 697 LINE SMOOTH",
"201 690 OFFCURVE",
"157 676 OFFCURVE",
"129 667 CURVE SMOOTH",
"118 664 OFFCURVE",
"113 653 OFFCURVE",
"113 642 CURVE SMOOTH",
"113 631 OFFCURVE",
"118 619 OFFCURVE",
"129 619 CURVE SMOOTH",
"131 619 OFFCURVE",
"132 620 OFFCURVE",
"134 620 CURVE SMOOTH",
"147 624 OFFCURVE",
"186 634 OFFCURVE",
"202 640 CURVE",
"171 479 OFFCURVE",
"167 447 OFFCURVE",
"121 228 CURVE SMOOTH",
"121 226 OFFCURVE",
"120 224 OFFCURVE",
"120 222 CURVE SMOOTH",
"120 208 OFFCURVE",
"133 202 OFFCURVE",
"146 202 CURVE SMOOTH",
"158 202 OFFCURVE",
"169 207 OFFCURVE"
);
},
{
closed = 1;
nodes = (
"344 5 CURVE SMOOTH",
"594 564 LINE SMOOTH",
"596 569 OFFCURVE",
"597 574 OFFCURVE",
"597 579 CURVE SMOOTH",
"597 594 OFFCURVE",
"588 605 OFFCURVE",
"576 605 CURVE SMOOTH",
"567 605 OFFCURVE",
"556 598 OFFCURVE",
"547 580 CURVE SMOOTH",
"296 28 LINE SMOOTH",
"292 20 OFFCURVE",
"290 12 OFFCURVE",
"290 6 CURVE SMOOTH",
"290 -9 OFFCURVE",
"301 -17 OFFCURVE",
"313 -17 CURVE SMOOTH",
"325 -17 OFFCURVE",
"338 -10 OFFCURVE"
);
},
{
closed = 1;
nodes = (
"779 -19 LINE SMOOTH",
"786 -19 OFFCURVE",
"796 -13 OFFCURVE",
"799 3 CURVE SMOOTH",
"815 83 LINE",
"829 83 OFFCURVE",
"859 82 OFFCURVE",
"881 82 CURVE SMOOTH",
"896 82 LINE SMOOTH",
"910 83 OFFCURVE",
"916 99 OFFCURVE",
"916 111 CURVE SMOOTH",
"916 118 OFFCURVE",
"914 124 OFFCURVE",
"909 124 CURVE SMOOTH",
"897 124 OFFCURVE",
"883 122 OFFCURVE",
"826 122 CURVE",
"831 145 OFFCURVE",
"869 278 OFFCURVE",
"869 315 CURVE SMOOTH",
"869 323 OFFCURVE",
"863 329 OFFCURVE",
"849 329 CURVE SMOOTH",
"829 329 OFFCURVE",
"823 320 OFFCURVE",
"819 306 CURVE SMOOTH",
"812 278 OFFCURVE",
"781 142 OFFCURVE",
"779 132 CURVE",
"767 124 OFFCURVE",
"742 122 OFFCURVE",
"718 122 CURVE SMOOTH",
"693 122 OFFCURVE",
"669 124 OFFCURVE",
"664 124 CURVE",
"690 202 OFFCURVE",
"753 386 OFFCURVE",
"777 464 CURVE SMOOTH",
"778 466 OFFCURVE",
"778 467 OFFCURVE",
"778 469 CURVE SMOOTH",
"778 479 OFFCURVE",
"767 487 OFFCURVE",
"756 487 CURVE SMOOTH",
"746 487 OFFCURVE",
"736 481 OFFCURVE",
"730 465 CURVE SMOOTH",
"702 388 OFFCURVE",
"640 202 OFFCURVE",
"615 126 CURVE SMOOTH",
"610 113 OFFCURVE",
"608 103 OFFCURVE",
"608 96 CURVE SMOOTH",
"608 83 OFFCURVE",
"615 79 OFFCURVE",
"629 79 CURVE SMOOTH",
"680 79 OFFCURVE",
"708 82 OFFCURVE",
"768 82 CURVE",
"752 9 LINE SMOOTH",
"752 7 OFFCURVE",
"751 4 OFFCURVE",
"751 2 CURVE SMOOTH",
"751 -13 OFFCURVE",
"763 -19 OFFCURVE",
"776 -19 CURVE SMOOTH"
);
}
);
width = 967;
}
);
unicode = 00BC;
},
{
glyphname = threequarters;
lastChange = "2016-06-28 15:02:07 +0000";
layers = (
{
layerId = "DE4BB00D-BABA-4D36-9D9A-44FD0E91C3DF";
paths = (
{
closed = 1;
nodes = (
"313 351 CURVE SMOOTH",
"313 272 OFFCURVE",
"250 234 OFFCURVE",
"189 234 CURVE SMOOTH",
"149 234 OFFCURVE",
"110 250 OFFCURVE",
"88 281 CURVE SMOOTH",
"75 301 OFFCURVE",
"63 308 OFFCURVE",
"54 308 CURVE SMOOTH",
"42 308 OFFCURVE",
"35 296 OFFCURVE",
"35 287 CURVE SMOOTH",
"35 285 OFFCURVE",
"35 284 OFFCURVE",
"36 282 CURVE SMOOTH",
"49 245 OFFCURVE",
"107 192 OFFCURVE",
"201 192 CURVE SMOOTH",
"299 192 OFFCURVE",
"364 255 OFFCURVE",
"364 342 CURVE SMOOTH",
"364 414 OFFCURVE",
"340 456 OFFCURVE",
"266 479 CURVE",
"316 494 OFFCURVE",
"360 532 OFFCURVE",
"360 592 CURVE SMOOTH",
"360 658 OFFCURVE",
"303 695 OFFCURVE",
"232 695 CURVE SMOOTH",
"175 695 OFFCURVE",
"134 677 OFFCURVE",
"103 632 CURVE SMOOTH",
"102 630 OFFCURVE",
"101 628 OFFCURVE",
"101 626 CURVE SMOOTH",
"101 617 OFFCURVE",
"111 608 OFFCURVE",
"121 608 CURVE SMOOTH",
"126 608 OFFCURVE",
"130 610 OFFCURVE",
"134 615 CURVE SMOOTH",
"155 643 OFFCURVE",
"193 657 OFFCURVE",
"228 657 CURVE SMOOTH",
"272 657 OFFCURVE",
"312 636 OFFCURVE",
"312 595 CURVE SMOOTH",
"312 535 OFFCURVE",
"267 493 OFFCURVE",
"158 493 CURVE SMOOTH",
"142 493 OFFCURVE",
"135 485 OFFCURVE",
"135 477 CURVE SMOOTH",
"135 469 OFFCURVE",
"143 461 OFFCURVE",
"153 461 CURVE SMOOTH",
"243 461 OFFCURVE",
"313 439 OFFCURVE"
);
},
{
closed = 1;
nodes = (
"377 5 CURVE SMOOTH",
"627 564 LINE SMOOTH",
"630 569 OFFCURVE",
"631 575 OFFCURVE",
"631 580 CURVE SMOOTH",
"631 595 OFFCURVE",
"621 605 OFFCURVE",
"609 605 CURVE SMOOTH",
"600 605 OFFCURVE",
"589 598 OFFCURVE",
"581 580 CURVE SMOOTH",
"329 28 LINE SMOOTH",
"325 20 OFFCURVE",
"324 13 OFFCURVE",
"324 7 CURVE SMOOTH",
"324 -9 OFFCURVE",
"334 -17 OFFCURVE",
"346 -17 CURVE SMOOTH",
"357 -17 OFFCURVE",
"371 -10 OFFCURVE"
);
},
{
closed = 1;
nodes = (
"789 -19 LINE SMOOTH",
"796 -19 OFFCURVE",
"806 -13 OFFCURVE",
"809 3 CURVE SMOOTH",
"825 83 LINE",
"840 83 OFFCURVE",
"869 82 OFFCURVE",
"891 82 CURVE SMOOTH",
"906 82 LINE SMOOTH",
"920 83 OFFCURVE",
"927 99 OFFCURVE",
"927 111 CURVE SMOOTH",
"927 118 OFFCURVE",
"924 124 OFFCURVE",
"919 124 CURVE SMOOTH",
"908 124 OFFCURVE",
"895 122 OFFCURVE",
"836 122 CURVE",
"841 145 OFFCURVE",
"879 278 OFFCURVE",
"879 315 CURVE SMOOTH",
"879 323 OFFCURVE",
"873 329 OFFCURVE",
"859 329 CURVE SMOOTH",
"839 329 OFFCURVE",
"833 320 OFFCURVE",
"829 306 CURVE SMOOTH",
"822 278 OFFCURVE",
"790 135 OFFCURVE",
"788 125 CURVE",
"774 125 OFFCURVE",
"683 124 OFFCURVE",
"674 124 CURVE",
"700 202 OFFCURVE",
"764 386 OFFCURVE",
"788 464 CURVE SMOOTH",
"788 465 OFFCURVE",
"789 467 OFFCURVE",
"789 468 CURVE SMOOTH",
"789 478 OFFCURVE",
"778 487 OFFCURVE",
"766 487 CURVE SMOOTH",
"756 487 OFFCURVE",
"746 481 OFFCURVE",
"741 465 CURVE SMOOTH",
"712 388 OFFCURVE",
"650 202 OFFCURVE",
"625 126 CURVE SMOOTH",
"620 113 OFFCURVE",
"618 103 OFFCURVE",
"618 96 CURVE SMOOTH",
"618 83 OFFCURVE",
"626 79 OFFCURVE",
"640 79 CURVE SMOOTH",
"690 79 OFFCURVE",
"718 82 OFFCURVE",
"778 82 CURVE",
"763 9 LINE SMOOTH",
"762 6 OFFCURVE",
"762 3 OFFCURVE",
"762 1 CURVE SMOOTH",
"762 -13 OFFCURVE",
"773 -19 OFFCURVE",
"786 -19 CURVE SMOOTH"
);
}
);
width = 1052;
}
);
unicode = 00BE;
},
{
glyphname = asterisk;
lastChange = "2016-06-28 15:02:07 +0000";
layers = (
{
layerId = "DE4BB00D-BABA-4D36-9D9A-44FD0E91C3DF";
paths = (
{
closed = 1;
nodes = (
"285 302 CURVE SMOOTH",
"304 302 OFFCURVE",
"321 312 OFFCURVE",
"321 327 CURVE SMOOTH",
"325 437 LINE",
"406 362 LINE SMOOTH",
"410 358 OFFCURVE",
"416 356 OFFCURVE",
"422 356 CURVE SMOOTH",
"438 356 OFFCURVE",
"458 368 OFFCURVE",
"458 387 CURVE SMOOTH",
"458 410 OFFCURVE",
"405 427 OFFCURVE",
"348 457 CURVE",
"384 461 OFFCURVE",
"473 470 OFFCURVE",
"473 496 CURVE SMOOTH",
"473 517 OFFCURVE",
"454 532 OFFCURVE",
"439 532 CURVE SMOOTH",
"435 532 OFFCURVE",
"432 531 OFFCURVE",
"429 529 CURVE SMOOTH",
"395 511 OFFCURVE",
"365 497 OFFCURVE",
"332 480 CURVE",
"347 513 OFFCURVE",
"356 548 OFFCURVE",
"369 586 CURVE SMOOTH",
"370 589 OFFCURVE",
"371 593 OFFCURVE",
"371 596 CURVE SMOOTH",
"371 608 OFFCURVE",
"363 617 OFFCURVE",
"346 617 CURVE SMOOTH",
"327 617 OFFCURVE",
"310 608 OFFCURVE",
"310 592 CURVE SMOOTH",
"310 553 OFFCURVE",
"306 518 OFFCURVE",
"306 481 CURVE",
"274 509 OFFCURVE",
"228 562 OFFCURVE",
"209 562 CURVE SMOOTH",
"191 562 OFFCURVE",
"172 547 OFFCURVE",
"172 530 CURVE SMOOTH",
"172 506 OFFCURVE",
"247 482 OFFCURVE",
"285 462 CURVE",
"278 460 OFFCURVE",
"158 453 OFFCURVE",
"158 422 CURVE SMOOTH",
"158 401 OFFCURVE",
"177 386 OFFCURVE",
"192 386 CURVE SMOOTH",
"196 386 OFFCURVE",
"199 387 OFFCURVE",
"202 389 CURVE SMOOTH",
"235 406 OFFCURVE",
"267 422 OFFCURVE",
"298 440 CURVE",
"290 409 OFFCURVE",
"260 364 OFFCURVE",
"260 322 CURVE SMOOTH",
"260 309 OFFCURVE",
"270 302 OFFCURVE"
);
}
);
width = 490;
}
);
unicode = 002A;
},
{
glyphname = backslash;
lastChange = "2016-06-28 15:02:07 +0000";
layers = (
{
layerId = "DE4BB00D-BABA-4D36-9D9A-44FD0E91C3DF";
paths = (
{
closed = 1;
nodes = (
"369 -5 CURVE SMOOTH",
"379 -5 OFFCURVE",
"389 5 OFFCURVE",
"389 20 CURVE SMOOTH",
"389 25 OFFCURVE",
"388 30 OFFCURVE",
"386 36 CURVE SMOOTH",
"136 582 LINE SMOOTH",
"121 615 OFFCURVE",
"117 637 OFFCURVE",
"96 637 CURVE SMOOTH",
"83 637 OFFCURVE",
"69 629 OFFCURVE",
"69 620 CURVE SMOOTH",
"69 609 OFFCURVE",
"79 594 OFFCURVE",
"88 574 CURVE SMOOTH",
"349 10 LINE SMOOTH",
"354 -1 OFFCURVE",
"362 -5 OFFCURVE"
);
}
);
width = 426;
}
);
unicode = 005C;
},
{
glyphname = bullet;
lastChange = "2016-06-28 15:02:07 +0000";
layers = (
{
layerId = "DE4BB00D-BABA-4D36-9D9A-44FD0E91C3DF";
paths = (
{
closed = 1;
nodes = (
"175 96 CURVE SMOOTH",
"243 96 OFFCURVE",
"285 157 OFFCURVE",
"285 229 CURVE SMOOTH",
"285 275 OFFCURVE",
"264 296 OFFCURVE",
"219 296 CURVE SMOOTH",
"152 296 OFFCURVE",
"98 252 OFFCURVE",
"98 186 CURVE SMOOTH",
"98 130 OFFCURVE",
"123 96 OFFCURVE"
);
}
);
width = 383;
}
);
unicode = 2022;
},
{
glyphname = colon;
lastChange = "2016-06-28 15:02:07 +0000";
layers = (
{
layerId = "DE4BB00D-BABA-4D36-9D9A-44FD0E91C3DF";
paths = (
{
closed = 1;
nodes = (
"186 229 CURVE SMOOTH",
"221 229 OFFCURVE",
"240 250 OFFCURVE",
"240 283 CURVE SMOOTH",
"240 313 OFFCURVE",
"224 329 OFFCURVE",
"192 329 CURVE SMOOTH",
"159 329 OFFCURVE",
"140 308 OFFCURVE",
"140 273 CURVE SMOOTH",
"140 243 OFFCURVE",
"155 229 OFFCURVE"
);
},
{
closed = 1;
nodes = (
"166 0 CURVE SMOOTH",
"200 0 OFFCURVE",
"219 21 OFFCURVE",
"219 55 CURVE SMOOTH",
"219 85 OFFCURVE",
"203 100 OFFCURVE",
"172 100 CURVE SMOOTH",
"138 100 OFFCURVE",
"120 79 OFFCURVE",
"120 45 CURVE SMOOTH",
"120 14 OFFCURVE",
"135 0 OFFCURVE"
);
}
);
width = 240;
}
);
unicode = 003A;
},
{
glyphname = comma;
lastChange = "2016-06-28 15:02:07 +0000";
layers = (
{
layerId = "DE4BB00D-BABA-4D36-9D9A-44FD0E91C3DF";
paths = (
{
closed = 1;
nodes = (
"95 -61 CURVE SMOOTH",
"133 -50 OFFCURVE",
"188 16 OFFCURVE",
"188 71 CURVE SMOOTH",
"188 89 OFFCURVE",
"181 104 OFFCURVE",
"162 104 CURVE SMOOTH",
"140 104 OFFCURVE",
"131 94 OFFCURVE",
"129 80 CURVE SMOOTH",
"124 34 OFFCURVE",
"105 -12 OFFCURVE",
"83 -49 CURVE SMOOTH",
"82 -51 OFFCURVE",
"81 -53 OFFCURVE",
"81 -55 CURVE SMOOTH",
"81 -59 OFFCURVE",
"85 -62 OFFCURVE",
"90 -62 CURVE SMOOTH",
"92 -62 OFFCURVE",
"93 -62 OFFCURVE"
);
}
);
width = 290;
}
);
unicode = 002C;
},
{
glyphname = exclam;
lastChange = "2016-06-28 15:02:07 +0000";
layers = (
{
layerId = "DE4BB00D-BABA-4D36-9D9A-44FD0E91C3DF";
paths = (
{
closed = 1;
nodes = (
"191 20 CURVE SMOOTH",
"212 20 OFFCURVE",
"232 39 OFFCURVE",
"232 65 CURVE SMOOTH",
"232 89 OFFCURVE",
"222 101 OFFCURVE",
"197 101 CURVE SMOOTH",
"175 101 OFFCURVE",
"155 82 OFFCURVE",
"155 55 CURVE SMOOTH",
"155 31 OFFCURVE",
"166 20 OFFCURVE"
);
},
{
closed = 1;
nodes = (
"385 609 CURVE SMOOTH",
"385 626 OFFCURVE",
"374 638 OFFCURVE",
"348 638 CURVE SMOOTH",
"326 638 OFFCURVE",
"312 622 OFFCURVE",
"306 599 CURVE SMOOTH",
"207 198 LINE SMOOTH",
"205 190 OFFCURVE",
"210 184 OFFCURVE",
"216 184 CURVE SMOOTH",
"220 184 OFFCURVE",
"226 187 OFFCURVE",
"229 195 CURVE SMOOTH",
"361 530 LINE SMOOTH",
"374 562 OFFCURVE",
"385 589 OFFCURVE"
);
}
);
width = 355;
}
);
unicode = 0021;
},
{
glyphname = numbersign;
lastChange = "2016-06-28 15:02:07 +0000";
layers = (
{
layerId = "DE4BB00D-BABA-4D36-9D9A-44FD0E91C3DF";
paths = (
{
closed = 1;
nodes = (
"214 218 CURVE",
"231 259 OFFCURVE",
"248 298 OFFCURVE",
"265 338 CURVE",
"382 338 LINE",
"352 251 OFFCURVE",
"347 239 OFFCURVE",
"340 219 CURVE",
"318 219 OFFCURVE",
"305 218 OFFCURVE"
);
},
{
closed = 1;
nodes = (
"80 -11 CURVE SMOOTH",
"101 -11 OFFCURVE",
"110 -1 OFFCURVE",
"118 14 CURVE SMOOTH",
"143 62 OFFCURVE",
"164 109 OFFCURVE",
"187 157 CURVE",
"230 157 OFFCURVE",
"276 158 OFFCURVE",
"318 158 CURVE",
"271 24 OFFCURVE",
"272 27 OFFCURVE",
"272 13 CURVE SMOOTH",
"272 -4 OFFCURVE",
"281 -10 OFFCURVE",
"301 -10 CURVE SMOOTH",
"320 -10 OFFCURVE",
"329 -1 OFFCURVE",
"335 15 CURVE SMOOTH",
"355 63 OFFCURVE",
"374 110 OFFCURVE",
"392 158 CURVE",
"399 158 LINE SMOOTH",
"444 158 OFFCURVE",
"476 168 OFFCURVE",
"476 206 CURVE SMOOTH",
"476 215 OFFCURVE",
"469 219 OFFCURVE",
"456 220 CURVE SMOOTH",
"413 220 LINE",
"427 259 OFFCURVE",
"441 298 OFFCURVE",
"454 338 CURVE SMOOTH",
"463 338 LINE SMOOTH",
"521 338 OFFCURVE",
"550 348 OFFCURVE",
"550 387 CURVE SMOOTH",
"550 396 OFFCURVE",
"544 399 OFFCURVE",
"530 399 CURVE SMOOTH",
"476 399 LINE",
"484 454 OFFCURVE",
"520 508 OFFCURVE",
"520 537 CURVE SMOOTH",
"520 551 OFFCURVE",
"517 558 OFFCURVE",
"505 558 CURVE SMOOTH",
"435 558 OFFCURVE",
"427 458 OFFCURVE",
"404 399 CURVE",
"291 399 LINE",
"302 427 OFFCURVE",
"348 525 OFFCURVE",
"348 535 CURVE SMOOTH",
"348 550 OFFCURVE",
"346 556 OFFCURVE",
"327 556 CURVE SMOOTH",
"305 556 OFFCURVE",
"282 535 OFFCURVE",
"273 512 CURVE SMOOTH",
"222 399 LINE",
"159 399 OFFCURVE",
"121 399 OFFCURVE",
"121 367 CURVE SMOOTH",
"121 344 OFFCURVE",
"134 338 OFFCURVE",
"182 338 CURVE SMOOTH",
"195 338 LINE SMOOTH",
"142 219 LINE",
"126 219 LINE SMOOTH",
"81 219 OFFCURVE",
"57 214 OFFCURVE",
"57 188 CURVE SMOOTH",
"57 169 OFFCURVE",
"88 159 OFFCURVE",
"112 159 CURVE SMOOTH",
"115 159 OFFCURVE",
"118 160 OFFCURVE",
"121 160 CURVE",
"110 137 OFFCURVE",
"73 73 OFFCURVE",
"59 22 CURVE SMOOTH",
"57 15 OFFCURVE",
"56 10 OFFCURVE",
"56 6 CURVE SMOOTH",
"56 -8 OFFCURVE",
"66 -11 OFFCURVE"
);
}
);
width = 426;
}
);
unicode = 0023;
},
{
glyphname = period;
lastChange = "2016-06-28 15:02:07 +0000";
layers = (
{
layerId = "DE4BB00D-BABA-4D36-9D9A-44FD0E91C3DF";
paths = (
{
closed = 1;
nodes = (
"93 0 CURVE SMOOTH",
"124 0 OFFCURVE",
"141 19 OFFCURVE",
"141 49 CURVE SMOOTH",
"141 76 OFFCURVE",
"126 89 OFFCURVE",
"99 89 CURVE SMOOTH",
"68 89 OFFCURVE",
"52 71 OFFCURVE",
"52 41 CURVE SMOOTH",
"52 13 OFFCURVE",
"65 0 OFFCURVE"
);
}
);
width = 185;
}
);
unicode = 002E;
},
{
glyphname = periodcentered;
lastChange = "2016-06-28 15:02:07 +0000";
layers = (
{
anchors = (
{
name = _mid;
position = "{171, 59}";
}
);
layerId = "DE4BB00D-BABA-4D36-9D9A-44FD0E91C3DF";
paths = (
{
closed = 1;
nodes = (
"167 21 CURVE SMOOTH",
"193 21 OFFCURVE",
"208 38 OFFCURVE",
"208 64 CURVE SMOOTH",
"208 87 OFFCURVE",
"196 99 OFFCURVE",
"171 99 CURVE SMOOTH",
"146 99 OFFCURVE",
"131 83 OFFCURVE",
"131 57 CURVE SMOOTH",
"131 33 OFFCURVE",
"143 21 OFFCURVE"
);
}
);
width = 240;
}
);
unicode = 00B7;
},
{
glyphname = question;
lastChange = "2016-06-28 15:02:07 +0000";
layers = (
{
layerId = "DE4BB00D-BABA-4D36-9D9A-44FD0E91C3DF";
paths = (
{
closed = 1;
nodes = (
"208 0 CURVE SMOOTH",
"243 0 OFFCURVE",
"262 21 OFFCURVE",
"262 55 CURVE SMOOTH",
"262 85 OFFCURVE",
"246 100 OFFCURVE",
"214 100 CURVE SMOOTH",
"181 100 OFFCURVE",
"162 79 OFFCURVE",
"162 45 CURVE SMOOTH",
"162 14 OFFCURVE",
"177 0 OFFCURVE"
);
},
{
closed = 1;
nodes = (
"196 221 CURVE SMOOTH",
"196 207 OFFCURVE",
"203 202 OFFCURVE",
"215 202 CURVE SMOOTH",
"228 202 OFFCURVE",
"235 203 OFFCURVE",
"238 226 CURVE SMOOTH",
"256 369 OFFCURVE",
"417 392 OFFCURVE",
"417 518 CURVE SMOOTH",
"417 582 OFFCURVE",
"366 640 OFFCURVE",
"288 640 CURVE SMOOTH",
"195 640 OFFCURVE",
"146 577 OFFCURVE",
"129 536 CURVE SMOOTH",
"127 532 OFFCURVE",
"126 528 OFFCURVE",
"126 524 CURVE SMOOTH",
"126 508 OFFCURVE",
"142 498 OFFCURVE",
"155 498 CURVE SMOOTH",
"161 498 OFFCURVE",
"167 501 OFFCURVE",
"170 506 CURVE SMOOTH",
"200 563 OFFCURVE",
"235 590 OFFCURVE",
"288 590 CURVE SMOOTH",
"330 590 OFFCURVE",
"356 554 OFFCURVE",
"356 512 CURVE SMOOTH",
"356 413 OFFCURVE",
"204 384 OFFCURVE"
);
}
);
width = 441;
}
);
unicode = 003F;
},
{
glyphname = questiondown;
lastChange = "2016-06-28 15:02:07 +0000";
layers = (
{
layerId = "DE4BB00D-BABA-4D36-9D9A-44FD0E91C3DF";
paths = (
{
closed = 1;
nodes = (
"334 437 CURVE SMOOTH",
"369 437 OFFCURVE",
"387 458 OFFCURVE",
"387 492 CURVE SMOOTH",
"387 523 OFFCURVE",
"372 537 OFFCURVE",
"341 537 CURVE SMOOTH",
"306 537 OFFCURVE",
"287 517 OFFCURVE",
"287 482 CURVE SMOOTH",
"287 452 OFFCURVE",
"303 437 OFFCURVE"
);
},
{
closed = 1;
nodes = (
"264 10 CURVE SMOOTH",
"309 10 OFFCURVE",
"381 39 OFFCURVE",
"381 79 CURVE SMOOTH",
"381 95 OFFCURVE",
"372 108 OFFCURVE",
"358 108 CURVE SMOOTH",
"352 108 OFFCURVE",
"347 105 OFFCURVE",
"343 101 CURVE SMOOTH",
"328 82 OFFCURVE",
"299 55 OFFCURVE",
"264 55 CURVE SMOOTH",
"223 55 OFFCURVE",
"208 83 OFFCURVE",
"208 122 CURVE SMOOTH",
"208 218 OFFCURVE",
"344 243 OFFCURVE",
"344 359 CURVE SMOOTH",
"344 367 OFFCURVE",
"336 371 OFFCURVE",
"324 371 CURVE SMOOTH",
"312 371 OFFCURVE",
"304 359 OFFCURVE",
"298 344 CURVE SMOOTH",
"292 329 OFFCURVE",
"281 316 OFFCURVE",
"271 306 CURVE SMOOTH",
"211 248 OFFCURVE",
"145 223 OFFCURVE",
"145 116 CURVE SMOOTH",
"145 50 OFFCURVE",
"197 10 OFFCURVE"
);
}
);
width = 441;
}
);
unicode = 00BF;
},
{
glyphname = quotedbl;
lastChange = "2016-06-28 15:02:07 +0000";
layers = (
{
layerId = "DE4BB00D-BABA-4D36-9D9A-44FD0E91C3DF";
paths = (
{
closed = 1;
nodes = (
"106 396 CURVE SMOOTH",
"115 396 OFFCURVE",
"124 408 OFFCURVE",
"125 421 CURVE SMOOTH",
"132 470 OFFCURVE",
"138 540 OFFCURVE",
"138 597 CURVE SMOOTH",
"138 617 OFFCURVE",
"126 626 OFFCURVE",
"109 626 CURVE SMOOTH",
"92 626 OFFCURVE",
"74 613 OFFCURVE",
"74 591 CURVE SMOOTH",
"74 534 OFFCURVE",
"82 474 OFFCURVE",
"87 422 CURVE SMOOTH",
"89 405 OFFCURVE",
"94 396 OFFCURVE"
);
},
{
closed = 1;
nodes = (
"227 396 CURVE SMOOTH",
"238 396 OFFCURVE",
"247 408 OFFCURVE",
"250 422 CURVE SMOOTH",
"259 471 OFFCURVE",
"266 529 OFFCURVE",
"272 599 CURVE SMOOTH",
"273 600 OFFCURVE",
"273 600 OFFCURVE",
"273 602 CURVE SMOOTH",
"273 618 OFFCURVE",
"261 626 OFFCURVE",
"248 626 CURVE SMOOTH",
"227 626 OFFCURVE",
"206 613 OFFCURVE",
"206 591 CURVE SMOOTH",
"206 533 OFFCURVE",
"208 480 OFFCURVE",
"208 421 CURVE SMOOTH",
"208 406 OFFCURVE",
"215 396 OFFCURVE"
);
}
);
width = 404;
}
);
unicode = 0022;
},
{
glyphname = quotesingle;
lastChange = "2016-06-28 15:02:07 +0000";
layers = (
{
layerId = "DE4BB00D-BABA-4D36-9D9A-44FD0E91C3DF";
paths = (
{
closed = 1;
nodes = (
"56 389 CURVE SMOOTH",
"64 389 OFFCURVE",
"98 419 OFFCURVE",
"111 440 CURVE SMOOTH",
"125 461 OFFCURVE",
"190 554 OFFCURVE",
"190 598 CURVE SMOOTH",
"190 615 OFFCURVE",
"181 626 OFFCURVE",
"160 626 CURVE SMOOTH",
"125 626 OFFCURVE",
"103 494 OFFCURVE",
"53 416 CURVE SMOOTH",
"49 410 OFFCURVE",
"47 403 OFFCURVE",
"47 398 CURVE SMOOTH",
"47 393 OFFCURVE",
"50 389 OFFCURVE"
);
}
);
width = 179;
}
);
unicode = 0027;
},
{
glyphname = semicolon;
lastChange = "2016-06-28 15:02:07 +0000";
layers = (
{
layerId = "DE4BB00D-BABA-4D36-9D9A-44FD0E91C3DF";
paths = (
{
closed = 1;
nodes = (
"186 240 CURVE SMOOTH",
"221 240 OFFCURVE",
"240 261 OFFCURVE",
"240 295 CURVE SMOOTH",
"240 325 OFFCURVE",
"224 340 OFFCURVE",
"192 340 CURVE SMOOTH",
"158 340 OFFCURVE",
"140 319 OFFCURVE",
"140 285 CURVE SMOOTH",
"140 254 OFFCURVE",
"155 240 OFFCURVE"
);
},
{
closed = 1;
nodes = (
"126 -55 CURVE SMOOTH",
"156 -55 OFFCURVE",
"219 53 OFFCURVE",
"219 70 CURVE SMOOTH",
"219 89 OFFCURVE",
"199 100 OFFCURVE",
"176 100 CURVE SMOOTH",
"157 100 OFFCURVE",
"144 91 OFFCURVE",
"138 77 CURVE SMOOTH",
"128 53 OFFCURVE",
"108 1 OFFCURVE",
"108 -37 CURVE SMOOTH",
"108 -48 OFFCURVE",
"115 -55 OFFCURVE"
);
}
);
width = 262;
}
);
unicode = 003B;
},
{
glyphname = slash;
lastChange = "2016-06-28 15:02:07 +0000";
layers = (
{
layerId = "DE4BB00D-BABA-4D36-9D9A-44FD0E91C3DF";
paths = (
{
closed = 1;
nodes = (
"134 17 CURVE SMOOTH",
"162 79 OFFCURVE",
"296 385 OFFCURVE",
"374 559 CURVE SMOOTH",
"376 564 OFFCURVE",
"377 569 OFFCURVE",
"377 573 CURVE SMOOTH",
"377 586 OFFCURVE",
"369 595 OFFCURVE",
"358 595 CURVE SMOOTH",
"349 595 OFFCURVE",
"340 588 OFFCURVE",
"332 572 CURVE SMOOTH",
"260 416 OFFCURVE",
"125 106 OFFCURVE",
"93 35 CURVE SMOOTH",
"88 25 OFFCURVE",
"86 17 OFFCURVE",
"86 10 CURVE SMOOTH",
"86 -3 OFFCURVE",
"94 -11 OFFCURVE",
"103 -11 CURVE SMOOTH",
"113 -11 OFFCURVE",
"125 -2 OFFCURVE"
);
}
);
width = 426;
}
);
unicode = 002F;
},
{
glyphname = underscore;
lastChange = "2016-06-28 15:02:07 +0000";
layers = (
{
layerId = "DE4BB00D-BABA-4D36-9D9A-44FD0E91C3DF";
paths = (
{
closed = 1;
nodes = (
"34 10 CURVE SMOOTH",
"357 10 LINE SMOOTH",
"401 10 OFFCURVE",
"431 20 OFFCURVE",
"431 56 CURVE SMOOTH",
"431 64 OFFCURVE",
"426 66 OFFCURVE",
"413 66 CURVE SMOOTH",
"70 66 LINE SMOOTH",
"33 66 OFFCURVE",
"-2 64 OFFCURVE",
"-2 37 CURVE SMOOTH",
"-2 20 OFFCURVE",
"13 10 OFFCURVE"
);
}
);
width = 426;
}
);
unicode = 005F;
},
{
glyphname = braceleft;
lastChange = "2016-06-28 15:02:07 +0000";
layers = (
{
layerId = "DE4BB00D-BABA-4D36-9D9A-44FD0E91C3DF";
paths = (
{
closed = 1;
nodes = (
"116 324 CURVE SMOOTH",
"109 324 OFFCURVE",
"102 325 OFFCURVE",
"95 325 CURVE SMOOTH",
"78 325 OFFCURVE",
"67 317 OFFCURVE",
"67 298 CURVE SMOOTH",
"67 284 OFFCURVE",
"73 273 OFFCURVE",
"85 271 CURVE SMOOTH",
"160 264 OFFCURVE",
"171 244 OFFCURVE",
"171 203 CURVE SMOOTH",
"171 145 OFFCURVE",
"156 93 OFFCURVE",
"156 45 CURVE SMOOTH",
"156 -31 OFFCURVE",
"187 -72 OFFCURVE",
"281 -72 CURVE SMOOTH",
"296 -72 OFFCURVE",
"312 -71 OFFCURVE",
"330 -69 CURVE SMOOTH",
"338 -68 OFFCURVE",
"341 -61 OFFCURVE",
"341 -53 CURVE SMOOTH",
"341 -44 OFFCURVE",
"336 -34 OFFCURVE",
"326 -34 CURVE SMOOTH",
"317 -34 OFFCURVE",
"306 -35 OFFCURVE",
"298 -35 CURVE SMOOTH",
"214 -35 OFFCURVE",
"204 -6 OFFCURVE",
"204 52 CURVE SMOOTH",
"204 104 OFFCURVE",
"219 160 OFFCURVE",
"219 211 CURVE SMOOTH",
"219 258 OFFCURVE",
"189 285 OFFCURVE",
"145 294 CURVE",
"195 301 OFFCURVE",
"234 327 OFFCURVE",
"238 383 CURVE SMOOTH",
"247 554 OFFCURVE",
"257 605 OFFCURVE",
"321 612 CURVE SMOOTH",
"326 613 OFFCURVE",
"330 613 OFFCURVE",
"335 613 CURVE SMOOTH",
"364 613 OFFCURVE",
"393 603 OFFCURVE",
"410 597 CURVE SMOOTH",
"413 596 OFFCURVE",
"415 596 OFFCURVE",
"417 596 CURVE SMOOTH",
"427 596 OFFCURVE",
"432 605 OFFCURVE",
"432 613 CURVE SMOOTH",
"432 619 OFFCURVE",
"430 624 OFFCURVE",
"425 626 CURVE SMOOTH",
"403 639 OFFCURVE",
"367 651 OFFCURVE",
"328 651 CURVE SMOOTH",
"222 651 OFFCURVE",
"202 582 OFFCURVE",
"192 404 CURVE SMOOTH",
"188 352 OFFCURVE",
"173 324 OFFCURVE"
);
}
);
width = 394;
}
);
unicode = 007B;
},
{
glyphname = braceright;
lastChange = "2016-06-28 15:02:07 +0000";
layers = (
{
layerId = "DE4BB00D-BABA-4D36-9D9A-44FD0E91C3DF";
paths = (
{
closed = 1;
nodes = (
"167 583 CURVE SMOOTH",
"177 583 OFFCURVE",
"186 584 OFFCURVE",
"194 584 CURVE SMOOTH",
"277 584 OFFCURVE",
"288 555 OFFCURVE",
"288 497 CURVE SMOOTH",
"288 445 OFFCURVE",
"273 390 OFFCURVE",
"273 338 CURVE SMOOTH",
"273 291 OFFCURVE",
"303 264 OFFCURVE",
"346 255 CURVE",
"297 249 OFFCURVE",
"257 222 OFFCURVE",
"254 166 CURVE SMOOTH",
"245 -5 OFFCURVE",
"235 -55 OFFCURVE",
"171 -62 CURVE SMOOTH",
"166 -63 OFFCURVE",
"162 -63 OFFCURVE",
"157 -63 CURVE SMOOTH",
"127 -63 OFFCURVE",
"100 -53 OFFCURVE",
"83 -47 CURVE SMOOTH",
"81 -46 OFFCURVE",
"78 -46 OFFCURVE",
"76 -46 CURVE SMOOTH",
"65 -46 OFFCURVE",
"60 -55 OFFCURVE",
"60 -63 CURVE SMOOTH",
"60 -68 OFFCURVE",
"62 -74 OFFCURVE",
"67 -76 CURVE SMOOTH",
"89 -90 OFFCURVE",
"128 -101 OFFCURVE",
"168 -101 CURVE SMOOTH",
"181 -101 LINE SMOOTH",
"269 -93 OFFCURVE",
"290 -25 OFFCURVE",
"300 146 CURVE SMOOTH",
"303 199 OFFCURVE",
"319 226 OFFCURVE",
"379 226 CURVE SMOOTH",
"385 226 OFFCURVE",
"392 225 OFFCURVE",
"399 225 CURVE SMOOTH",
"416 225 OFFCURVE",
"424 233 OFFCURVE",
"424 254 CURVE SMOOTH",
"424 267 OFFCURVE",
"418 276 OFFCURVE",
"407 278 CURVE SMOOTH",
"332 285 OFFCURVE",
"321 306 OFFCURVE",
"321 347 CURVE SMOOTH",
"321 405 OFFCURVE",
"335 456 OFFCURVE",
"335 504 CURVE SMOOTH",
"335 581 OFFCURVE",
"303 622 OFFCURVE",
"210 622 CURVE SMOOTH",
"195 622 OFFCURVE",
"180 621 OFFCURVE",
"162 619 CURVE SMOOTH",
"154 618 OFFCURVE",
"151 611 OFFCURVE",
"151 603 CURVE SMOOTH",
"151 593 OFFCURVE",
"156 583 OFFCURVE"
);
}
);
width = 426;
}
);
unicode = 007D;
},
{
glyphname = bracketleft;
lastChange = "2016-06-28 15:02:07 +0000";
layers = (
{
layerId = "DE4BB00D-BABA-4D36-9D9A-44FD0E91C3DF";
paths = (
{
closed = 1;
nodes = (
"118 -17 LINE",
"129 34 OFFCURVE",
"199 479 OFFCURVE",
"207 524 CURVE",
"332 524 LINE SMOOTH",
"347 524 OFFCURVE",
"355 535 OFFCURVE",
"355 545 CURVE SMOOTH",
"355 553 OFFCURVE",
"350 560 OFFCURVE",
"338 560 CURVE SMOOTH",
"206 560 LINE SMOOTH",
"167 560 OFFCURVE",
"158 553 OFFCURVE",
"151 506 CURVE SMOOTH",
"129 373 OFFCURVE",
"86 75 OFFCURVE",
"76 13 CURVE SMOOTH",
"70 -18 LINE",
"70 -45 OFFCURVE",
"82 -55 OFFCURVE",
"103 -55 CURVE SMOOTH",
"106 -55 LINE SMOOTH",
"237 -54 LINE SMOOTH",
"255 -54 OFFCURVE",
"262 -45 OFFCURVE",
"262 -37 CURVE SMOOTH",
"262 -27 OFFCURVE",
"254 -17 OFFCURVE",
"244 -17 CURVE SMOOTH"
);
}
);
width = 316;
}
);
unicode = 005B;
},
{
glyphname = bracketright;
lastChange = "2016-06-28 15:02:07 +0000";
layers = (
{
layerId = "DE4BB00D-BABA-4D36-9D9A-44FD0E91C3DF";
paths = (
{
closed = 1;
nodes = (
"37 -55 CURVE SMOOTH",
"173 -55 LINE SMOOTH",
"203 -55 OFFCURVE",
"209 -46 OFFCURVE",
"214 -12 CURVE SMOOTH",
"233 115 OFFCURVE",
"281 381 OFFCURVE",
"285 418 CURVE SMOOTH",
"303 528 OFFCURVE",
"304 533 OFFCURVE",
"304 537 CURVE SMOOTH",
"304 555 OFFCURVE",
"292 560 OFFCURVE",
"265 560 CURVE SMOOTH",
"133 560 LINE SMOOTH",
"113 560 OFFCURVE",
"103 548 OFFCURVE",
"103 539 CURVE SMOOTH",
"103 529 OFFCURVE",
"111 521 OFFCURVE",
"129 521 CURVE SMOOTH",
"254 521 LINE",
"225 341 OFFCURVE",
"196 162 OFFCURVE",
"166 -17 CURVE",
"41 -17 LINE SMOOTH",
"26 -17 OFFCURVE",
"19 -27 OFFCURVE",
"19 -38 CURVE SMOOTH",
"19 -47 OFFCURVE",
"24 -55 OFFCURVE"
);
}
);
width = 316;
}
);
unicode = 005D;
},
{
glyphname = parenleft;
lastChange = "2016-06-28 15:02:07 +0000";
layers = (
{
layerId = "DE4BB00D-BABA-4D36-9D9A-44FD0E91C3DF";
paths = (
{
closed = 1;
nodes = (
"355 -121 CURVE SMOOTH",
"379 -121 OFFCURVE",
"423 -118 OFFCURVE",
"423 -96 CURVE SMOOTH",
"423 -74 OFFCURVE",
"393 -81 OFFCURVE",
"352 -74 CURVE SMOOTH",
"248 -56 OFFCURVE",
"207 33 OFFCURVE",
"207 147 CURVE SMOOTH",
"207 298 OFFCURVE",
"282 476 OFFCURVE",
"425 579 CURVE SMOOTH",
"456 602 OFFCURVE",
"472 621 OFFCURVE",
"472 634 CURVE SMOOTH",
"472 642 OFFCURVE",
"467 646 OFFCURVE",
"456 646 CURVE SMOOTH",
"450 646 OFFCURVE",
"443 645 OFFCURVE",
"434 641 CURVE SMOOTH",
"245 556 OFFCURVE",
"136 339 OFFCURVE",
"136 140 CURVE SMOOTH",
"136 -14 OFFCURVE",
"214 -121 OFFCURVE"
);
}
);
width = 470;
}
);
unicode = 0028;
},
{
glyphname = parenright;
lastChange = "2016-06-28 15:02:07 +0000";
layers = (
{
layerId = "DE4BB00D-BABA-4D36-9D9A-44FD0E91C3DF";
paths = (
{
closed = 1;
nodes = (
"118 -121 CURVE SMOOTH",
"296 -121 OFFCURVE",
"408 48 OFFCURVE",
"408 263 CURVE SMOOTH",
"408 422 OFFCURVE",
"341 573 OFFCURVE",
"206 641 CURVE SMOOTH",
"197 645 OFFCURVE",
"190 646 OFFCURVE",
"184 646 CURVE SMOOTH",
"172 646 OFFCURVE",
"164 639 OFFCURVE",
"164 628 CURVE SMOOTH",
"164 616 OFFCURVE",
"175 599 OFFCURVE",
"198 579 CURVE SMOOTH",
"292 498 OFFCURVE",
"337 372 OFFCURVE",
"337 250 CURVE SMOOTH",
"337 87 OFFCURVE",
"270 -51 OFFCURVE",
"135 -74 CURVE SMOOTH",
"94 -81 OFFCURVE",
"57 -74 OFFCURVE",
"57 -102 CURVE SMOOTH",
"57 -118 OFFCURVE",
"96 -121 OFFCURVE"
);
}
);
width = 470;
}
);
unicode = 0029;
},
{
glyphname = emdash;
lastChange = "2016-06-28 15:02:07 +0000";
layers = (
{
layerId = "DE4BB00D-BABA-4D36-9D9A-44FD0E91C3DF";
paths = (
{
closed = 1;
nodes = (
"54 142 CURVE SMOOTH",
"318 142 LINE SMOOTH",
"341 142 OFFCURVE",
"351 153 OFFCURVE",
"351 177 CURVE SMOOTH",
"351 193 OFFCURVE",
"340 198 OFFCURVE",
"319 198 CURVE SMOOTH",
"63 198 LINE SMOOTH",
"40 198 OFFCURVE",
"32 191 OFFCURVE",
"32 168 CURVE SMOOTH",
"32 151 OFFCURVE",
"40 142 OFFCURVE"
);
}
);
width = 383;
}
);
unicode = 2014;
},
{
glyphname = endash;
lastChange = "2016-06-28 15:02:07 +0000";
layers = (
{
layerId = "DE4BB00D-BABA-4D36-9D9A-44FD0E91C3DF";
paths = (
{
closed = 1;
nodes = (
"54 131 CURVE SMOOTH",
"274 131 LINE SMOOTH",
"304 131 OFFCURVE",
"317 148 OFFCURVE",
"317 177 CURVE SMOOTH",
"317 201 OFFCURVE",
"300 208 OFFCURVE",
"276 208 CURVE SMOOTH",
"64 208 LINE SMOOTH",
"35 208 OFFCURVE",
"22 197 OFFCURVE",
"22 168 CURVE SMOOTH",
"22 147 OFFCURVE",
"34 131 OFFCURVE"
);
}
);
width = 338;
}
);
unicode = 2013;
},
{
glyphname = hyphen;
lastChange = "2016-06-28 15:02:07 +0000";
layers = (
{
layerId = "DE4BB00D-BABA-4D36-9D9A-44FD0E91C3DF";
paths = (
{
closed = 1;
nodes = (
"110 187 CURVE SMOOTH",
"285 204 LINE SMOOTH",
"305 205 OFFCURVE",
"307 212 OFFCURVE",
"307 222 CURVE SMOOTH",
"307 233 OFFCURVE",
"299 235 OFFCURVE",
"288 235 CURVE SMOOTH",
"110 228 LINE SMOOTH",
"97 228 OFFCURVE",
"88 222 OFFCURVE",
"88 208 CURVE SMOOTH",
"88 192 OFFCURVE",
"98 187 OFFCURVE"
);
}
);
width = 333;
}
);
unicode = 002D;
},
{
glyphname = guillemotleft;
lastChange = "2016-06-28 15:02:07 +0000";
layers = (
{
layerId = "DE4BB00D-BABA-4D36-9D9A-44FD0E91C3DF";
paths = (
{
closed = 1;
nodes = (
"423 40 CURVE SMOOTH",
"427 38 OFFCURVE",
"432 36 OFFCURVE",
"437 36 CURVE SMOOTH",
"448 36 OFFCURVE",
"458 42 OFFCURVE",
"458 54 CURVE SMOOTH",
"458 78 OFFCURVE",
"438 84 OFFCURVE",
"421 99 CURVE SMOOTH",
"319 187 LINE",
"442 273 LINE SMOOTH",
"456 283 OFFCURVE",
"469 291 OFFCURVE",
"469 306 CURVE SMOOTH",
"469 322 OFFCURVE",
"459 330 OFFCURVE",
"447 330 CURVE SMOOTH",
"428 330 OFFCURVE",
"413 311 OFFCURVE",
"389 293 CURVE SMOOTH",
"353 268 OFFCURVE",
"279 236 OFFCURVE",
"279 182 CURVE SMOOTH",
"279 162 OFFCURVE",
"289 150 OFFCURVE",
"300 140 CURVE SMOOTH",
"342 99 OFFCURVE",
"375 66 OFFCURVE"
);
},
{
closed = 1;
nodes = (
"227 40 CURVE SMOOTH",
"231 38 OFFCURVE",
"236 36 OFFCURVE",
"241 36 CURVE SMOOTH",
"252 36 OFFCURVE",
"262 42 OFFCURVE",
"262 54 CURVE SMOOTH",
"262 78 OFFCURVE",
"241 84 OFFCURVE",
"225 99 CURVE SMOOTH",
"122 187 LINE",
"245 273 LINE SMOOTH",
"259 283 OFFCURVE",
"272 291 OFFCURVE",
"272 306 CURVE SMOOTH",
"272 322 OFFCURVE",
"262 330 OFFCURVE",
"250 330 CURVE SMOOTH",
"231 330 OFFCURVE",
"215 311 OFFCURVE",
"191 293 CURVE SMOOTH",
"156 268 OFFCURVE",
"83 236 OFFCURVE",
"83 182 CURVE SMOOTH",
"83 162 OFFCURVE",
"92 150 OFFCURVE",
"103 140 CURVE SMOOTH",
"146 99 OFFCURVE",
"178 67 OFFCURVE"
);
}
);
width = 492;
}
);
unicode = 00AB;
},
{
glyphname = guillemotright;
lastChange = "2016-06-28 15:02:07 +0000";
layers = (
{
layerId = "DE4BB00D-BABA-4D36-9D9A-44FD0E91C3DF";
paths = (
{
closed = 1;
nodes = (
"312 36 CURVE SMOOTH",
"322 36 OFFCURVE",
"341 46 OFFCURVE",
"361 62 CURVE SMOOTH",
"382 77 OFFCURVE",
"405 97 OFFCURVE",
"424 117 CURVE SMOOTH",
"442 135 OFFCURVE",
"469 152 OFFCURVE",
"469 182 CURVE SMOOTH",
"469 219 OFFCURVE",
"437 242 OFFCURVE",
"412 256 CURVE SMOOTH",
"393 268 OFFCURVE",
"374 283 OFFCURVE",
"360 293 CURVE SMOOTH",
"337 309 OFFCURVE",
"319 330 OFFCURVE",
"301 330 CURVE SMOOTH",
"289 330 OFFCURVE",
"279 322 OFFCURVE",
"279 306 CURVE SMOOTH",
"279 291 OFFCURVE",
"292 283 OFFCURVE",
"306 273 CURVE SMOOTH",
"430 187 LINE",
"327 99 LINE SMOOTH",
"310 84 OFFCURVE",
"290 78 OFFCURVE",
"290 54 CURVE SMOOTH",
"290 43 OFFCURVE",
"300 36 OFFCURVE"
);
},
{
closed = 1;
nodes = (
"114 36 CURVE SMOOTH",
"125 36 OFFCURVE",
"144 46 OFFCURVE",
"165 62 CURVE SMOOTH",
"185 77 OFFCURVE",
"208 97 OFFCURVE",
"228 117 CURVE SMOOTH",
"246 135 OFFCURVE",
"272 152 OFFCURVE",
"272 182 CURVE SMOOTH",
"272 219 OFFCURVE",
"240 242 OFFCURVE",
"215 256 CURVE SMOOTH",
"196 268 OFFCURVE",
"177 283 OFFCURVE",
"163 293 CURVE SMOOTH",
"140 309 OFFCURVE",
"123 330 OFFCURVE",
"104 330 CURVE SMOOTH",
"92 330 OFFCURVE",
"83 322 OFFCURVE",
"83 306 CURVE SMOOTH",
"83 291 OFFCURVE",
"96 283 OFFCURVE",
"109 273 CURVE SMOOTH",
"232 187 LINE",
"130 99 LINE SMOOTH",
"113 84 OFFCURVE",
"93 78 OFFCURVE",
"93 54 CURVE SMOOTH",
"93 43 OFFCURVE",
"103 36 OFFCURVE"
);
}
);
width = 492;
}
);
unicode = 00BB;
},
{
glyphname = guilsinglleft;
lastChange = "2016-06-28 15:02:07 +0000";
layers = (
{
layerId = "DE4BB00D-BABA-4D36-9D9A-44FD0E91C3DF";
paths = (
{
closed = 1;
nodes = (
"303 40 CURVE SMOOTH",
"314 40 OFFCURVE",
"322 46 OFFCURVE",
"322 60 CURVE SMOOTH",
"322 74 OFFCURVE",
"313 83 OFFCURVE",
"300 89 CURVE SMOOTH",
"122 180 LINE",
"280 273 LINE SMOOTH",
"294 282 OFFCURVE",
"312 292 OFFCURVE",
"312 313 CURVE SMOOTH",
"312 321 OFFCURVE",
"303 327 OFFCURVE",
"292 327 CURVE SMOOTH",
"289 327 OFFCURVE",
"286 326 OFFCURVE",
"279 324 CURVE SMOOTH",
"229 298 OFFCURVE",
"121 232 OFFCURVE",
"104 220 CURVE SMOOTH",
"83 204 OFFCURVE",
"65 195 OFFCURVE",
"65 171 CURVE SMOOTH",
"65 157 OFFCURVE",
"83 146 OFFCURVE",
"115 130 CURVE SMOOTH",
"292 42 LINE SMOOTH",
"297 40 OFFCURVE",
"299 40 OFFCURVE"
);
}
);
width = 372;
}
);
unicode = 2039;
},
{
glyphname = guilsinglright;
lastChange = "2016-06-28 15:02:07 +0000";
layers = (
{
layerId = "DE4BB00D-BABA-4D36-9D9A-44FD0E91C3DF";
paths = (
{
closed = 1;
nodes = (
"109 40 CURVE SMOOTH",
"113 40 OFFCURVE",
"115 41 OFFCURVE",
"122 43 CURVE SMOOTH",
"172 68 OFFCURVE",
"281 134 OFFCURVE",
"297 146 CURVE SMOOTH",
"318 162 OFFCURVE",
"336 171 OFFCURVE",
"336 195 CURVE SMOOTH",
"336 209 OFFCURVE",
"318 221 OFFCURVE",
"286 236 CURVE SMOOTH",
"109 324 LINE SMOOTH",
"104 326 OFFCURVE",
"102 327 OFFCURVE",
"98 327 CURVE SMOOTH",
"87 327 OFFCURVE",
"79 320 OFFCURVE",
"79 306 CURVE SMOOTH",
"79 292 OFFCURVE",
"89 283 OFFCURVE",
"102 277 CURVE SMOOTH",
"280 187 LINE",
"122 94 LINE SMOOTH",
"107 85 OFFCURVE",
"89 74 OFFCURVE",
"89 54 CURVE SMOOTH",
"89 46 OFFCURVE",
"99 40 OFFCURVE"
);
}
);
width = 372;
}
);
unicode = 203A;
},
{
glyphname = quotedblbase;
lastChange = "2016-06-28 15:02:07 +0000";
layers = (
{
layerId = "DE4BB00D-BABA-4D36-9D9A-44FD0E91C3DF";
paths = (
{
closed = 1;
nodes = (
"259 -65 CURVE SMOOTH",
"294 -65 OFFCURVE",
"310 -26 OFFCURVE",
"325 -3 CURVE SMOOTH",
"340 21 LINE SMOOTH",
"349 35 OFFCURVE",
"363 49 OFFCURVE",
"363 70 CURVE SMOOTH",
"363 97 OFFCURVE",
"336 110 OFFCURVE",
"310 110 CURVE SMOOTH",
"286 110 OFFCURVE",
"268 100 OFFCURVE",
"263 81 CURVE SMOOTH",
"252 44 OFFCURVE",
"232 3 OFFCURVE",
"232 -37 CURVE SMOOTH",
"232 -54 OFFCURVE",
"243 -65 OFFCURVE"
);
},
{
closed = 1;
nodes = (
"126 -65 CURVE SMOOTH",
"161 -65 OFFCURVE",
"176 -26 OFFCURVE",
"191 -3 CURVE SMOOTH",
"198 9 OFFCURVE",
"199 9 OFFCURVE",
"207 21 CURVE SMOOTH",
"216 35 OFFCURVE",
"229 49 OFFCURVE",
"229 70 CURVE SMOOTH",
"229 97 OFFCURVE",
"203 110 OFFCURVE",
"176 110 CURVE SMOOTH",
"152 110 OFFCURVE",
"134 100 OFFCURVE",
"129 81 CURVE SMOOTH",
"119 44 OFFCURVE",
"98 3 OFFCURVE",
"98 -37 CURVE SMOOTH",
"98 -54 OFFCURVE",
"110 -65 OFFCURVE"
);
}
);
width = 350;
}
);
unicode = 201E;
},
{
glyphname = quotedblleft;
lastChange = "2016-06-28 15:02:07 +0000";
layers = (
{
layerId = "DE4BB00D-BABA-4D36-9D9A-44FD0E91C3DF";
paths = (
{
closed = 1;
nodes = (
"150 615 CURVE SMOOTH",
"150 623 OFFCURVE",
"148 631 OFFCURVE",
"137 631 CURVE SMOOTH",
"130 631 OFFCURVE",
"124 624 OFFCURVE",
"120 614 CURVE SMOOTH",
"102 567 OFFCURVE",
"70 489 OFFCURVE",
"70 437 CURVE SMOOTH",
"70 417 OFFCURVE",
"82 408 OFFCURVE",
"102 408 CURVE SMOOTH",
"122 408 OFFCURVE",
"133 416 OFFCURVE",
"133 438 CURVE SMOOTH",
"133 504 OFFCURVE",
"148 600 OFFCURVE"
);
},
{
closed = 1;
nodes = (
"271 619 CURVE SMOOTH",
"271 625 OFFCURVE",
"268 631 OFFCURVE",
"259 631 CURVE SMOOTH",
"251 631 OFFCURVE",
"246 624 OFFCURVE",
"242 614 CURVE SMOOTH",
"224 567 OFFCURVE",
"191 489 OFFCURVE",
"191 437 CURVE SMOOTH",
"191 417 OFFCURVE",
"203 408 OFFCURVE",
"223 408 CURVE SMOOTH",
"244 408 OFFCURVE",
"254 416 OFFCURVE",
"254 438 CURVE SMOOTH",
"254 508 OFFCURVE",
"271 600 OFFCURVE"
);
}
);
width = 350;
}
);
unicode = 201C;
},
{
glyphname = quotedblright;
lastChange = "2016-06-28 15:02:07 +0000";
layers = (
{
layerId = "DE4BB00D-BABA-4D36-9D9A-44FD0E91C3DF";
paths = (
{
closed = 1;
nodes = (
"229 419 CURVE SMOOTH",
"229 414 OFFCURVE",
"232 408 OFFCURVE",
"242 408 CURVE SMOOTH",
"249 408 OFFCURVE",
"254 415 OFFCURVE",
"258 425 CURVE SMOOTH",
"276 471 OFFCURVE",
"309 549 OFFCURVE",
"309 602 CURVE SMOOTH",
"309 622 OFFCURVE",
"297 631 OFFCURVE",
"277 631 CURVE SMOOTH",
"257 631 OFFCURVE",
"246 623 OFFCURVE",
"246 601 CURVE SMOOTH",
"246 531 OFFCURVE",
"229 439 OFFCURVE"
);
},
{
closed = 1;
nodes = (
"107 420 CURVE SMOOTH",
"107 415 OFFCURVE",
"111 408 OFFCURVE",
"120 408 CURVE SMOOTH",
"127 408 OFFCURVE",
"133 415 OFFCURVE",
"137 425 CURVE SMOOTH",
"155 471 OFFCURVE",
"188 549 OFFCURVE",
"188 602 CURVE SMOOTH",
"188 622 OFFCURVE",
"175 631 OFFCURVE",
"155 631 CURVE SMOOTH",
"135 631 OFFCURVE",
"125 623 OFFCURVE",
"125 601 CURVE SMOOTH",
"125 531 OFFCURVE",
"107 439 OFFCURVE"
);
}
);
width = 404;
}
);
unicode = 201D;
},
{
glyphname = quoteleft;
lastChange = "2016-06-28 15:02:07 +0000";
layers = (
{
layerId = "DE4BB00D-BABA-4D36-9D9A-44FD0E91C3DF";
paths = (
{
closed = 1;
nodes = (
"99 418 CURVE SMOOTH",
"114 418 OFFCURVE",
"126 429 OFFCURVE",
"128 450 CURVE SMOOTH",
"146 605 LINE SMOOTH",
"146 615 OFFCURVE",
"143 620 OFFCURVE",
"140 620 CURVE SMOOTH",
"130 620 OFFCURVE",
"122 611 OFFCURVE",
"118 598 CURVE SMOOTH",
"102 551 OFFCURVE",
"72 491 OFFCURVE",
"72 442 CURVE SMOOTH",
"72 425 OFFCURVE",
"82 418 OFFCURVE"
);
}
);
width = 240;
}
);
unicode = 2018;
},
{
glyphname = quoteright;
lastChange = "2016-06-28 15:02:07 +0000";
layers = (
{
layerId = "DE4BB00D-BABA-4D36-9D9A-44FD0E91C3DF";
paths = (
{
closed = 1;
nodes = (
"92 419 CURVE SMOOTH",
"99 419 OFFCURVE",
"104 425 OFFCURVE",
"107 435 CURVE SMOOTH",
"157 591 LINE SMOOTH",
"158 594 OFFCURVE",
"159 597 OFFCURVE",
"159 600 CURVE SMOOTH",
"159 613 OFFCURVE",
"146 621 OFFCURVE",
"133 621 CURVE SMOOTH",
"116 621 OFFCURVE",
"101 610 OFFCURVE",
"100 590 CURVE SMOOTH",
"89 438 LINE SMOOTH",
"89 422 OFFCURVE",
"91 419 OFFCURVE"
);
}
);
width = 219;
}
);
unicode = 2019;
},
{
glyphname = quotesinglbase;
lastChange = "2016-06-28 15:02:07 +0000";
layers = (
{
layerId = "DE4BB00D-BABA-4D36-9D9A-44FD0E91C3DF";
paths = (
{
closed = 1;
nodes = (
"126 -65 CURVE SMOOTH",
"161 -65 OFFCURVE",
"176 -26 OFFCURVE",
"191 -3 CURVE SMOOTH",
"198 9 OFFCURVE",
"199 9 OFFCURVE",
"207 21 CURVE SMOOTH",
"216 35 OFFCURVE",
"229 49 OFFCURVE",
"229 70 CURVE SMOOTH",
"229 97 OFFCURVE",
"203 110 OFFCURVE",
"176 110 CURVE SMOOTH",
"152 110 OFFCURVE",
"134 100 OFFCURVE",
"129 81 CURVE SMOOTH",
"119 44 OFFCURVE",
"98 3 OFFCURVE",
"98 -37 CURVE SMOOTH",
"98 -54 OFFCURVE",
"110 -65 OFFCURVE"
);
}
);
width = 208;
}
);
unicode = 201A;
},
{
glyphname = florin;
lastChange = "2016-06-28 15:02:07 +0000";
layers = (
{
layerId = "DE4BB00D-BABA-4D36-9D9A-44FD0E91C3DF";
paths = (
{
closed = 1;
nodes = (
"162 -30 CURVE SMOOTH",
"306 -30 OFFCURVE",
"306 109 OFFCURVE",
"344 313 CURVE",
"458 313 LINE SMOOTH",
"469 313 OFFCURVE",
"475 318 OFFCURVE",
"475 328 CURVE SMOOTH",
"475 339 OFFCURVE",
"471 344 OFFCURVE",
"458 344 CURVE SMOOTH",
"347 344 LINE",
"364 439 OFFCURVE",
"372 582 OFFCURVE",
"467 582 CURVE SMOOTH",
"503 582 OFFCURVE",
"510 558 OFFCURVE",
"527 558 CURVE SMOOTH",
"540 558 OFFCURVE",
"550 574 OFFCURVE",
"550 590 CURVE SMOOTH",
"550 612 OFFCURVE",
"511 625 OFFCURVE",
"478 625 CURVE SMOOTH",
"343 625 OFFCURVE",
"324 479 OFFCURVE",
"298 344 CURVE SMOOTH",
"288 344 LINE SMOOTH",
"268 344 OFFCURVE",
"248 346 OFFCURVE",
"232 346 CURVE SMOOTH",
"208 346 OFFCURVE",
"199 343 OFFCURVE",
"199 328 CURVE SMOOTH",
"199 315 OFFCURVE",
"202 313 OFFCURVE",
"217 313 CURVE SMOOTH",
"293 313 LINE",
"273 195 LINE SMOOTH",
"259 114 OFFCURVE",
"249 12 OFFCURVE",
"167 12 CURVE SMOOTH",
"136 12 OFFCURVE",
"139 37 OFFCURVE",
"130 37 CURVE SMOOTH",
"118 37 OFFCURVE",
"107 20 OFFCURVE",
"107 4 CURVE SMOOTH",
"107 -17 OFFCURVE",
"134 -30 OFFCURVE"
);
}
);
width = 449;
}
);
unicode = 0192;
},
{
glyphname = cent;
lastChange = "2016-06-28 15:02:07 +0000";
layers = (
{
layerId = "DE4BB00D-BABA-4D36-9D9A-44FD0E91C3DF";
paths = (
{
closed = 1;
nodes = (
"161 55 CURVE",
"115 58 OFFCURVE",
"84 98 OFFCURVE",
"84 142 CURVE SMOOTH",
"84 204 OFFCURVE",
"125 259 OFFCURVE",
"179 271 CURVE",
"173 201 OFFCURVE",
"167 125 OFFCURVE"
);
},
{
closed = 1;
nodes = (
"164 -58 CURVE SMOOTH",
"185 -58 OFFCURVE",
"184 -57 OFFCURVE",
"187 -43 CURVE SMOOTH",
"194 14 LINE",
"219 14 OFFCURVE",
"265 40 OFFCURVE",
"294 63 CURVE SMOOTH",
"298 67 OFFCURVE",
"300 70 OFFCURVE",
"300 75 CURVE SMOOTH",
"300 87 OFFCURVE",
"294 98 OFFCURVE",
"287 98 CURVE SMOOTH",
"286 98 OFFCURVE",
"284 98 OFFCURVE",
"283 97 CURVE SMOOTH",
"262 81 OFFCURVE",
"223 59 OFFCURVE",
"197 56 CURVE",
"205 130 OFFCURVE",
"208 203 OFFCURVE",
"212 273 CURVE",
"285 268 OFFCURVE",
"239 196 OFFCURVE",
"272 196 CURVE SMOOTH",
"291 196 OFFCURVE",
"301 224 OFFCURVE",
"301 249 CURVE SMOOTH",
"301 292 OFFCURVE",
"258 314 OFFCURVE",
"215 317 CURVE",
"216 330 OFFCURVE",
"217 344 OFFCURVE",
"217 356 CURVE SMOOTH",
"217 369 OFFCURVE",
"215 378 OFFCURVE",
"209 378 CURVE SMOOTH",
"200 378 OFFCURVE",
"189 376 OFFCURVE",
"187 353 CURVE SMOOTH",
"184 317 LINE",
"98 313 OFFCURVE",
"32 236 OFFCURVE",
"32 141 CURVE SMOOTH",
"32 66 OFFCURVE",
"75 10 OFFCURVE",
"149 10 CURVE SMOOTH",
"157 10 LINE",
"157 -14 OFFCURVE",
"155 -18 OFFCURVE",
"155 -30 CURVE SMOOTH",
"155 -44 OFFCURVE",
"156 -58 OFFCURVE"
);
}
);
width = 306;
}
);
unicode = 00A2;
},
{
glyphname = currency;
lastChange = "2016-06-28 15:02:07 +0000";
layers = (
{
layerId = "DE4BB00D-BABA-4D36-9D9A-44FD0E91C3DF";
paths = (
{
closed = 1;
nodes = (
"238 200 CURVE SMOOTH",
"180 200 OFFCURVE",
"151 242 OFFCURVE",
"151 308 CURVE SMOOTH",
"151 396 OFFCURVE",
"197 482 OFFCURVE",
"287 482 CURVE SMOOTH",
"332 482 OFFCURVE",
"358 449 OFFCURVE",
"358 399 CURVE SMOOTH",
"358 395 OFFCURVE",
"357 390 OFFCURVE",
"357 385 CURVE SMOOTH",
"357 305 OFFCURVE",
"323 200 OFFCURVE"
);
},
{
closed = 1;
nodes = (
"141 186 CURVE",
"164 165 OFFCURVE",
"194 154 OFFCURVE",
"227 154 CURVE SMOOTH",
"255 154 OFFCURVE",
"284 162 OFFCURVE",
"308 175 CURVE",
"326 163 OFFCURVE",
"355 119 OFFCURVE",
"382 119 CURVE SMOOTH",
"393 119 OFFCURVE",
"406 132 OFFCURVE",
"406 144 CURVE SMOOTH",
"405 148 OFFCURVE",
"400 156 OFFCURVE",
"389 167 CURVE SMOOTH",
"348 205 LINE",
"392 249 OFFCURVE",
"418 322 OFFCURVE",
"418 390 CURVE SMOOTH",
"418 419 OFFCURVE",
"414 444 OFFCURVE",
"403 464 CURVE",
"450 496 LINE SMOOTH",
"463 504 OFFCURVE",
"472 511 OFFCURVE",
"472 522 CURVE SMOOTH",
"472 533 OFFCURVE",
"463 543 OFFCURVE",
"454 543 CURVE SMOOTH",
"428 543 OFFCURVE",
"397 510 OFFCURVE",
"376 498 CURVE",
"353 518 OFFCURVE",
"321 527 OFFCURVE",
"287 527 CURVE SMOOTH",
"253 527 OFFCURVE",
"220 519 OFFCURVE",
"193 502 CURVE",
"146 543 LINE SMOOTH",
"137 552 OFFCURVE",
"128 556 OFFCURVE",
"123 556 CURVE SMOOTH",
"112 556 OFFCURVE",
"99 542 OFFCURVE",
"99 531 CURVE SMOOTH",
"99 521 OFFCURVE",
"105 516 OFFCURVE",
"115 507 CURVE SMOOTH",
"155 471 LINE",
"117 429 OFFCURVE",
"96 359 OFFCURVE",
"96 300 CURVE SMOOTH",
"96 269 OFFCURVE",
"102 240 OFFCURVE",
"114 219 CURVE",
"54 178 LINE SMOOTH",
"41 168 OFFCURVE",
"32 163 OFFCURVE",
"32 152 CURVE SMOOTH",
"32 141 OFFCURVE",
"41 130 OFFCURVE",
"50 130 CURVE SMOOTH",
"55 130 OFFCURVE",
"63 134 OFFCURVE",
"73 140 CURVE SMOOTH",
"94 151 OFFCURVE",
"121 171 OFFCURVE"
);
}
);
width = 503;
}
);
unicode = 00A4;
},
{
glyphname = dollar;
lastChange = "2016-06-28 15:02:07 +0000";
layers = (
{
layerId = "DE4BB00D-BABA-4D36-9D9A-44FD0E91C3DF";
paths = (
{
closed = 1;
nodes = (
"336 41 CURVE",
"378 268 LINE",
"412 243 OFFCURVE",
"465 218 OFFCURVE",
"465 166 CURVE SMOOTH",
"465 99 OFFCURVE",
"400 51 OFFCURVE"
);
},
{
closed = 1;
nodes = (
"333 346 CURVE",
"294 370 OFFCURVE",
"247 399 OFFCURVE",
"247 460 CURVE SMOOTH",
"247 519 OFFCURVE",
"293 549 OFFCURVE",
"369 552 CURVE",
"359 495 OFFCURVE",
"344 412 OFFCURVE"
);
},
{
closed = 1;
nodes = (
"571 475 CURVE SMOOTH",
"571 543 OFFCURVE",
"495 581 OFFCURVE",
"432 592 CURVE",
"438 631 LINE SMOOTH",
"440 641 OFFCURVE",
"441 650 OFFCURVE",
"441 658 CURVE SMOOTH",
"441 669 OFFCURVE",
"438 677 OFFCURVE",
"427 677 CURVE SMOOTH",
"405 677 OFFCURVE",
"390 665 OFFCURVE",
"387 646 CURVE SMOOTH",
"378 595 LINE",
"278 593 OFFCURVE",
"195 553 OFFCURVE",
"195 457 CURVE SMOOTH",
"195 377 OFFCURVE",
"268 327 OFFCURVE",
"325 296 CURVE",
"277 42 LINE",
"197 44 OFFCURVE",
"142 75 OFFCURVE",
"142 136 CURVE SMOOTH",
"142 177 OFFCURVE",
"174 208 OFFCURVE",
"215 208 CURVE SMOOTH",
"229 208 OFFCURVE",
"236 216 OFFCURVE",
"236 228 CURVE SMOOTH",
"236 244 OFFCURVE",
"227 250 OFFCURVE",
"208 250 CURVE SMOOTH",
"137 250 OFFCURVE",
"94 205 OFFCURVE",
"94 135 CURVE SMOOTH",
"94 41 OFFCURVE",
"179 7 OFFCURVE",
"271 1 CURVE",
"268 -13 OFFCURVE",
"264 -32 OFFCURVE",
"264 -48 CURVE SMOOTH",
"264 -64 OFFCURVE",
"268 -76 OFFCURVE",
"280 -76 CURVE SMOOTH",
"304 -76 OFFCURVE",
"314 -73 OFFCURVE",
"318 -60 CURVE SMOOTH",
"330 1 LINE",
"436 16 OFFCURVE",
"515 64 OFFCURVE",
"515 166 CURVE SMOOTH",
"515 247 OFFCURVE",
"441 284 OFFCURVE",
"385 316 CURVE",
"425 549 LINE",
"456 545 OFFCURVE",
"516 514 OFFCURVE",
"520 478 CURVE SMOOTH",
"522 458 OFFCURVE",
"535 448 OFFCURVE",
"548 448 CURVE SMOOTH",
"560 448 OFFCURVE",
"571 457 OFFCURVE"
);
}
);
width = 593;
}
);
unicode = 0024;
},
{
glyphname = Euro;
lastChange = "2016-06-28 15:02:07 +0000";
layers = (
{
layerId = "DE4BB00D-BABA-4D36-9D9A-44FD0E91C3DF";
paths = (
{
closed = 1;
nodes = (
"72 226 LINE SMOOTH",
"61 226 OFFCURVE",
"51 222 OFFCURVE",
"51 206 CURVE SMOOTH",
"51 193 OFFCURVE",
"60 189 OFFCURVE",
"69 189 CURVE SMOOTH",
"106 189 LINE",
"106 165 LINE SMOOTH",
"106 31 OFFCURVE",
"168 -58 OFFCURVE",
"293 -58 CURVE SMOOTH",
"396 -58 OFFCURVE",
"474 -15 OFFCURVE",
"535 38 CURVE SMOOTH",
"546 48 OFFCURVE",
"550 57 OFFCURVE",
"550 64 CURVE SMOOTH",
"550 77 OFFCURVE",
"540 85 OFFCURVE",
"530 85 CURVE SMOOTH",
"524 85 OFFCURVE",
"519 83 OFFCURVE",
"513 79 CURVE SMOOTH",
"465 39 OFFCURVE",
"397 -8 OFFCURVE",
"304 -8 CURVE SMOOTH",
"200 -8 OFFCURVE",
"167 55 OFFCURVE",
"167 161 CURVE SMOOTH",
"167 189 LINE SMOOTH",
"317 189 LINE SMOOTH",
"336 189 OFFCURVE",
"342 195 OFFCURVE",
"342 215 CURVE SMOOTH",
"342 224 OFFCURVE",
"339 226 OFFCURVE",
"329 226 CURVE SMOOTH",
"174 226 LINE",
"178 250 OFFCURVE",
"184 272 OFFCURVE",
"193 299 CURVE",
"339 299 LINE SMOOTH",
"358 299 OFFCURVE",
"364 305 OFFCURVE",
"364 324 CURVE SMOOTH",
"364 333 OFFCURVE",
"361 335 OFFCURVE",
"351 335 CURVE SMOOTH",
"207 335 LINE",
"264 458 OFFCURVE",
"344 564 OFFCURVE",
"443 564 CURVE SMOOTH",
"495 564 OFFCURVE",
"538 543 OFFCURVE",
"538 489 CURVE SMOOTH",
"538 447 OFFCURVE",
"517 421 OFFCURVE",
"517 393 CURVE SMOOTH",
"517 386 OFFCURVE",
"528 379 OFFCURVE",
"537 379 CURVE SMOOTH",
"542 379 OFFCURVE",
"546 381 OFFCURVE",
"549 385 CURVE SMOOTH",
"564 407 OFFCURVE",
"582 450 OFFCURVE",
"582 494 CURVE SMOOTH",
"582 576 OFFCURVE",
"532 611 OFFCURVE",
"447 611 CURVE SMOOTH",
"328 611 OFFCURVE",
"213 496 OFFCURVE",
"145 335 CURVE",
"96 335 LINE SMOOTH",
"82 335 OFFCURVE",
"74 329 OFFCURVE",
"74 314 CURVE SMOOTH",
"74 302 OFFCURVE",
"83 299 OFFCURVE",
"95 299 CURVE SMOOTH",
"132 299 LINE",
"124 276 OFFCURVE",
"117 255 OFFCURVE",
"113 226 CURVE"
);
}
);
width = 634;
}
);
unicode = 20AC;
},
{
glyphname = sterling;
lastChange = "2016-06-28 15:02:07 +0000";
layers = (
{
layerId = "DE4BB00D-BABA-4D36-9D9A-44FD0E91C3DF";
paths = (
{
closed = 1;
nodes = (
"219 -5 LINE SMOOTH",
"419 8 LINE SMOOTH",
"443 9 OFFCURVE",
"454 22 OFFCURVE",
"454 34 CURVE SMOOTH",
"454 44 OFFCURVE",
"444 53 OFFCURVE",
"425 53 CURVE SMOOTH",
"422 53 LINE SMOOTH",
"220 39 LINE",
"223 66 OFFCURVE",
"245 227 OFFCURVE",
"254 283 CURVE",
"363 283 LINE SMOOTH",
"391 283 OFFCURVE",
"407 288 OFFCURVE",
"407 304 CURVE SMOOTH",
"407 327 OFFCURVE",
"390 329 OFFCURVE",
"364 329 CURVE SMOOTH",
"261 329 LINE",
"286 478 OFFCURVE",
"293 549 OFFCURVE",
"392 549 CURVE SMOOTH",
"427 549 OFFCURVE",
"455 524 OFFCURVE",
"455 482 CURVE SMOOTH",
"455 471 OFFCURVE",
"466 462 OFFCURVE",
"480 462 CURVE SMOOTH",
"498 462 OFFCURVE",
"506 475 OFFCURVE",
"506 497 CURVE SMOOTH",
"506 565 OFFCURVE",
"461 594 OFFCURVE",
"391 594 CURVE SMOOTH",
"258 594 OFFCURVE",
"233 508 OFFCURVE",
"212 329 CURVE",
"156 329 LINE SMOOTH",
"132 329 OFFCURVE",
"121 327 OFFCURVE",
"121 307 CURVE SMOOTH",
"121 291 OFFCURVE",
"131 283 OFFCURVE",
"147 283 CURVE SMOOTH",
"206 283 LINE",
"176 91 LINE SMOOTH",
"171 77 OFFCURVE",
"166 58 OFFCURVE",
"166 41 CURVE SMOOTH",
"166 9 OFFCURVE",
"184 -5 OFFCURVE",
"213 -5 CURVE SMOOTH"
);
}
);
width = 514;
}
);
unicode = 00A3;
},
{
glyphname = yen;
lastChange = "2016-06-28 15:02:07 +0000";
layers = (
{
layerId = "DE4BB00D-BABA-4D36-9D9A-44FD0E91C3DF";
paths = (
{
closed = 1;
nodes = (
"278 6 CURVE SMOOTH",
"322 143 LINE",
"421 143 LINE SMOOTH",
"451 143 OFFCURVE",
"465 145 OFFCURVE",
"465 165 CURVE SMOOTH",
"465 175 OFFCURVE",
"456 175 OFFCURVE",
"437 175 CURVE SMOOTH",
"331 175 LINE",
"350 230 LINE",
"439 230 LINE SMOOTH",
"469 230 OFFCURVE",
"477 231 OFFCURVE",
"477 252 CURVE SMOOTH",
"477 263 OFFCURVE",
"475 263 OFFCURVE",
"457 263 CURVE SMOOTH",
"378 263 LINE",
"414 312 OFFCURVE",
"505 445 OFFCURVE",
"557 513 CURVE SMOOTH",
"563 522 OFFCURVE",
"566 530 OFFCURVE",
"566 537 CURVE SMOOTH",
"566 550 OFFCURVE",
"556 558 OFFCURVE",
"545 558 CURVE SMOOTH",
"536 558 OFFCURVE",
"527 553 OFFCURVE",
"519 542 CURVE SMOOTH",
"456 446 OFFCURVE",
"348 294 OFFCURVE",
"332 264 CURVE",
"326 288 OFFCURVE",
"263 512 OFFCURVE",
"253 547 CURVE SMOOTH",
"248 565 OFFCURVE",
"238 573 OFFCURVE",
"228 573 CURVE SMOOTH",
"217 573 OFFCURVE",
"206 562 OFFCURVE",
"206 544 CURVE SMOOTH",
"206 539 OFFCURVE",
"206 534 OFFCURVE",
"208 529 CURVE SMOOTH",
"290 263 LINE",
"217 263 LINE SMOOTH",
"194 263 OFFCURVE",
"185 262 OFFCURVE",
"185 250 CURVE SMOOTH",
"185 233 OFFCURVE",
"194 230 OFFCURVE",
"217 230 CURVE SMOOTH",
"296 230 LINE",
"277 175 LINE",
"201 175 LINE SMOOTH",
"179 175 OFFCURVE",
"171 174 OFFCURVE",
"171 162 CURVE SMOOTH",
"171 146 OFFCURVE",
"180 143 OFFCURVE",
"201 143 CURVE SMOOTH",
"270 143 LINE",
"265 127 OFFCURVE",
"237 36 OFFCURVE",
"232 22 CURVE SMOOTH",
"230 17 OFFCURVE",
"229 12 OFFCURVE",
"229 8 CURVE SMOOTH",
"229 -7 OFFCURVE",
"240 -14 OFFCURVE",
"252 -14 CURVE SMOOTH",
"263 -14 OFFCURVE",
"274 -8 OFFCURVE"
);
}
);
width = 562;
}
);
unicode = 00A5;
},
{
glyphname = asciitilde;
lastChange = "2016-06-28 15:02:07 +0000";
layers = (
{
layerId = "DE4BB00D-BABA-4D36-9D9A-44FD0E91C3DF";
paths = (
{
closed = 1;
nodes = (
"249 449 CURVE SMOOTH",
"286 449 OFFCURVE",
"326 496 OFFCURVE",
"326 532 CURVE SMOOTH",
"326 544 OFFCURVE",
"317 550 OFFCURVE",
"305 550 CURVE SMOOTH",
"273 550 OFFCURVE",
"264 510 OFFCURVE",
"243 492 CURVE",
"203 531 LINE SMOOTH",
"182 552 OFFCURVE",
"167 579 OFFCURVE",
"134 579 CURVE SMOOTH",
"97 579 OFFCURVE",
"57 532 OFFCURVE",
"57 496 CURVE SMOOTH",
"57 484 OFFCURVE",
"65 478 OFFCURVE",
"78 478 CURVE SMOOTH",
"109 478 OFFCURVE",
"122 519 OFFCURVE",
"140 537 CURVE",
"180 497 LINE SMOOTH",
"201 477 OFFCURVE",
"216 449 OFFCURVE"
);
}
);
width = 295;
}
);
unicode = 007E;
},
{
glyphname = bulletoperator;
lastChange = "2016-06-28 15:02:07 +0000";
layers = (
{
layerId = "DE4BB00D-BABA-4D36-9D9A-44FD0E91C3DF";
paths = (
{
closed = 1;
nodes = (
"107 425 CURVE SMOOTH",
"134 425 OFFCURVE",
"153 444 OFFCURVE",
"153 471 CURVE SMOOTH",
"153 494 OFFCURVE",
"136 509 OFFCURVE",
"113 509 CURVE SMOOTH",
"87 509 OFFCURVE",
"69 490 OFFCURVE",
"69 463 CURVE SMOOTH",
"69 440 OFFCURVE",
"85 425 OFFCURVE"
);
}
);
width = 205;
}
);
unicode = 2219;
},
{
glyphname = divide;
lastChange = "2016-06-28 15:02:07 +0000";
layers = (
{
layerId = "DE4BB00D-BABA-4D36-9D9A-44FD0E91C3DF";
paths = (
{
closed = 1;
nodes = (
"255 305 CURVE SMOOTH",
"279 305 OFFCURVE",
"293 321 OFFCURVE",
"293 344 CURVE SMOOTH",
"293 366 OFFCURVE",
"282 377 OFFCURVE",
"259 377 CURVE SMOOTH",
"235 377 OFFCURVE",
"222 361 OFFCURVE",
"222 338 CURVE SMOOTH",
"222 316 OFFCURVE",
"233 305 OFFCURVE"
);
},
{
closed = 1;
nodes = (
"217 58 CURVE SMOOTH",
"242 58 OFFCURVE",
"256 74 OFFCURVE",
"256 98 CURVE SMOOTH",
"256 119 OFFCURVE",
"244 130 OFFCURVE",
"221 130 CURVE SMOOTH",
"197 130 OFFCURVE",
"184 115 OFFCURVE",
"184 91 CURVE SMOOTH",
"184 70 OFFCURVE",
"196 58 OFFCURVE"
);
},
{
closed = 1;
nodes = (
"124 197 CURVE SMOOTH",
"349 197 LINE SMOOTH",
"365 197 OFFCURVE",
"373 206 OFFCURVE",
"373 223 CURVE SMOOTH",
"373 233 OFFCURVE",
"364 239 OFFCURVE",
"352 239 CURVE SMOOTH",
"127 239 LINE SMOOTH",
"111 239 OFFCURVE",
"97 232 OFFCURVE",
"97 217 CURVE SMOOTH",
"97 203 OFFCURVE",
"109 197 OFFCURVE"
);
}
);
width = 381;
}
);
unicode = 00F7;
},
